<svg width="1323" height="756" xmlns="http://www.w3.org/2000/svg" xmlns:xlink="http://www.w3.org/1999/xlink" overflow="hidden"><defs><clipPath id="clip0"><rect x="0" y="0" width="1323" height="756"/></clipPath><clipPath id="clip1"><rect x="718" y="473" width="110" height="165"/></clipPath><clipPath id="clip2"><rect x="718" y="473" width="110" height="165"/></clipPath><clipPath id="clip3"><rect x="172" y="31" width="1114" height="667"/></clipPath><radialGradient cx="0" cy="0" r="1" gradientUnits="userSpaceOnUse" spreadMethod="pad" id="fill4" gradientTransform="matrix(32.2149 0 0 32.2149 645.478 500.227)"><stop offset="0" stop-color="#FFFFFF"/><stop offset="1" stop-color="#0080FF"/></radialGradient><linearGradient x1="647.018" y1="533.041" x2="636.352" y2="593.529" gradientUnits="userSpaceOnUse" spreadMethod="pad" id="fill5"><stop offset="0" stop-color="#FFFFFF"/><stop offset="1" stop-color="#0080FF"/></linearGradient></defs><g clip-path="url(#clip0)"><rect x="0" y="0" width="1323" height="756.071" fill="#FFFFFF"/><rect x="445.5" y="52.505" width="430" height="656.062" stroke="#000000" stroke-width="3.00038" stroke-miterlimit="8" fill="#FFFFFF"/><rect x="483.5" y="170.516" width="355" height="198.019" stroke="#000000" stroke-width="3.00038" stroke-miterlimit="8" fill="#FFFFFF"/><text font-family="Calibri,Calibri_MSFontService,sans-serif" font-weight="400" font-size="43" transform="matrix(1 0 0 1.00009 583.765 232)">Κεντρική<tspan font-size="43" x="2.40027" y="50.9952">Μονάδα</tspan><tspan font-size="43" x="-43.1188" y="101.99">Επεξεργασίας</tspan></text><rect x="483.5" y="458.543" width="355" height="197.019" stroke="#000000" stroke-width="3.00038" stroke-miterlimit="8" fill="#FFFFFF"/><text font-family="Calibri,Calibri_MSFontService,sans-serif" font-weight="400" font-size="48" transform="matrix(1 0 0 1.00009 467.53 127)">Λογισμικό</text><rect x="39.5" y="170.516" width="354" height="198.019" stroke="#000000" stroke-width="3.00038" stroke-miterlimit="8" fill="#FFFFFF"/><text font-family="Calibri,Calibri_MSFontService,sans-serif" font-weight="400" font-size="48" transform="matrix(1 0 0 1.00009 124.067 227)">Συσκευές<tspan font-size="48" x="-25.9099" y="57.9945">Εισόδου</tspan><tspan font-size="48" x="148.945" y="57.9945">και</tspan><tspan font-size="48" x="20.3892" y="114.989">Εξόδο</tspan><tspan font-size="48" x="137.271" y="114.989">υ</tspan></text><path d="M980.326 233.707C977.126 208.791 993.603 185.846 1017.13 182.457 1026.66 181.084 1036.35 183.137 1044.65 188.287 1053.45 170.727 1074 164.054 1090.56 173.381 1093.46 175.012 1096.11 177.08 1098.45 179.519 1105.3 164.963 1121.98 159.049 1135.72 166.31 1139.52 168.32 1142.83 171.226 1145.41 174.806 1156.45 161.041 1175.96 159.341 1188.99 171.008 1194.46 175.912 1198.15 182.676 1199.42 190.14 1217.51 195.368 1228.19 215.171 1223.26 234.372 1222.85 235.986 1222.33 237.568 1221.71 239.106 1236.21 259.112 1232.66 287.788 1213.77 303.154 1207.89 307.938 1200.95 311.035 1193.61 312.146 1193.44 333.671 1176.82 350.98 1156.49 350.807 1149.69 350.749 1143.04 348.703 1137.28 344.895 1130.4 369.026 1106.41 382.665 1083.69 375.359 1074.17 372.297 1065.94 365.821 1060.41 357.037 1037.15 371.899 1006.96 363.904 992.972 339.181 992.796 338.869 992.623 338.555 992.453 338.24 977.229 340.128 963.439 328.621 961.652 312.539 960.7 303.967 963.371 295.387 968.954 289.086 955.773 280.866 951.345 262.823 959.064 248.787 963.518 240.689 971.328 235.336 980.095 234.373Z" stroke="#000000" stroke-width="3.00038" stroke-miterlimit="8" fill="#FFFFFF" fill-rule="evenodd"/><path d="M985.374 292.201C979.747 292.667 974.12 291.29 969.249 288.252M999.602 335.411C997.339 336.365 994.967 337.001 992.547 337.301M1060.39 356.174C1058.69 353.47 1057.27 350.58 1056.14 347.554M1139.01 334.678C1138.75 337.885 1138.19 341.056 1137.31 344.137M1172.76 276.233C1185.52 282.811 1193.57 296.564 1193.45 311.585M1221.58 238.582C1219.51 243.696 1216.35 248.234 1212.36 251.838M1199.46 189.397C1199.81 191.462 1199.98 193.559 1199.95 195.657M1140.6 182.094C1141.8 179.206 1143.39 176.517 1145.32 174.11M1096.44 185.899C1096.93 183.512 1097.7 181.199 1098.73 179.014M1044.62 188.237C1047.62 190.101 1050.4 192.344 1052.9 194.918M981.771 240.737C981.116 238.438 980.633 236.088 980.327 233.709" stroke="#000000" stroke-width="3.00038" stroke-miterlimit="8" fill="none" fill-rule="evenodd"/><text font-family="Calibri,Calibri_MSFontService,sans-serif" font-weight="400" font-size="48" transform="matrix(1 0 0 1.00009 1016.27 280)">Δίκτυο</text><path d="M923.5 489.713C923.5 471.394 1004.31 456.543 1104 456.543 1203.69 456.543 1284.5 471.394 1284.5 489.713L1284.5 622.392C1284.5 640.711 1203.69 655.562 1104 655.562 1004.31 655.562 923.5 640.711 923.5 622.392Z" fill="#FFFFFF" fill-rule="evenodd"/><path d="M1284.5 489.713C1284.5 508.032 1203.69 522.883 1104 522.883 1004.31 522.883 923.5 508.032 923.5 489.713" stroke="#000000" stroke-width="3.00038" stroke-miterlimit="8" fill="none" fill-rule="evenodd"/><path d="M923.5 489.713C923.5 471.394 1004.31 456.543 1104 456.543 1203.69 456.543 1284.5 471.394 1284.5 489.713L1284.5 622.392C1284.5 640.711 1203.69 655.562 1104 655.562 1004.31 655.562 923.5 640.711 923.5 622.392Z" stroke="#000000" stroke-width="3.00038" stroke-miterlimit="8" fill="none" fill-rule="evenodd"/><text font-family="Calibri,Calibri_MSFontService,sans-serif" font-weight="400" font-size="48" transform="matrix(1 0 0 1.00009 957.94 560)">Δευτερεύουσα<tspan font-size="48" x="75.6296" y="57.9945">Μνήμη</tspan></text><path d="M393 269.025 482.829 269.025" stroke="#000000" stroke-width="6.00076" stroke-miterlimit="8" fill="none" fill-rule="evenodd"/><path d="M838 269.025 955.902 269.025" stroke="#000000" stroke-width="6.00076" stroke-miterlimit="8" fill="none" fill-rule="evenodd"/><path d="M0 0 85.647 0.909196" stroke="#000000" stroke-width="6.00076" stroke-miterlimit="8" fill="none" fill-rule="evenodd" transform="matrix(1 0 0 -1.00009 838 556.962)"/><path d="M660 368.035 660 458.055" stroke="#000000" stroke-width="6.00076" stroke-miterlimit="8" fill="none" fill-rule="evenodd"/><path d="M842.167 197.914 856.426 162.083C805.967 137.506 802.927 96.061 849.636 69.5117 896.345 42.9624 975.115 41.3629 1025.57 65.9391 1076.03 90.5153 1079.07 131.961 1032.36 158.51 997.888 178.106 944.257 184.73 896.81 175.252Z" stroke="#000000" stroke-width="3.00038" stroke-miterlimit="8" fill="#FFFFFF" fill-rule="evenodd"/><text font-family="Calibri,Calibri_MSFontService,sans-serif" font-weight="400" font-size="48" transform="matrix(1 0 0 1.00009 886.494 101)">Μετά <tspan font-size="48" x="31.8907" y="57.9945">τί;</tspan></text><g clip-path="url(#clip1)"><g clip-path="url(#clip2)"><g clip-path="url(#clip3)"><path d="M0 0 1626.33 0 1626.33 1891.55 0 1891.55Z" fill="#FFFFFF" transform="matrix(1 0 0 1.00474 132.253 -9.08078)"/><path d="M45.0368 202.666 315.258 202.666 315.258 382.813 45.0368 382.813Z" fill="#FFFFFF" transform="matrix(1 0 0 1.00474 132.253 -9.08078)"/><path d="M45.0368 202.666 315.258 202.666 315.258 382.813 45.0368 382.813Z" stroke="#000000" stroke-width="2.50205" stroke-linecap="round" stroke-linejoin="round" fill="none" transform="matrix(1 0 0 1.00474 132.253 -9.08078)"/><text font-family="Arial,Arial_MSFontService,sans-serif" font-weight="400" font-size="16" transform="matrix(2.50205 0 0 2.51392 227.471 255)">Input and<tspan font-size="16" x="9.184" y="17.9003">Output</tspan><tspan font-size="16" x="5.648" y="35.8007">Devices</tspan></text><path d="M382.813 112.592 743.108 112.592 743.108 698.071 382.813 698.071Z" fill="#FFFFFF" transform="matrix(1 0 0 1.00474 132.253 -9.08078)"/><path d="M382.813 112.592 743.108 112.592 743.108 698.071 382.813 698.071Z" stroke="#000000" stroke-width="2.50205" stroke-linecap="round" stroke-linejoin="round" fill="none" transform="matrix(1 0 0 1.00474 132.253 -9.08078)"/><text font-family="Arial,Arial_MSFontService,sans-serif" font-weight="400" font-size="16" transform="matrix(2.50205 0 0 2.51392 527.576 154)">Softwar<tspan font-size="16" x="55.088" y="0">e</tspan></text><path d="M427.85 472.887 698.071 472.887 698.071 653.034 427.85 653.034Z" fill="#FFFFFF" transform="matrix(1 0 0 1.00474 132.253 -9.08078)"/><path d="M427.85 472.887 698.071 472.887 698.071 653.034 427.85 653.034Z" stroke="#000000" stroke-width="2.50205" stroke-linecap="round" stroke-linejoin="round" fill="none" transform="matrix(1 0 0 1.00474 132.253 -9.08078)"/><text font-family="Arial,Arial_MSFontService,sans-serif" font-weight="400" font-size="16" transform="matrix(2.50205 0 0 2.51392 572.613 516)">Main <tspan font-size="16" x="0" y="18.2981">Memory</tspan></text><path d="M427.85 202.666 698.071 202.666 698.071 382.813 427.85 382.813Z" fill="#FFFFFF" transform="matrix(1 0 0 1.00474 132.253 -9.08078)"/><path d="M427.85 202.666 698.071 202.666 698.071 382.813 427.85 382.813Z" stroke="#000000" stroke-width="2.50205" stroke-linecap="round" stroke-linejoin="round" fill="none" transform="matrix(1 0 0 1.00474 132.253 -9.08078)"/><text font-family="Arial,Arial_MSFontService,sans-serif" font-weight="400" font-size="16" transform="matrix(2.50205 0 0 2.51392 630.721 255)">Central<tspan font-size="16" x="-13.928" y="17.9003">Pr</tspan><tspan font-size="16" x="1.48001" y="17.9003">ocessing</tspan><tspan font-size="16" x="11.256" y="35.8007">Unit</tspan></text><path d="M930.761 118.222C930.761 77.7588 863.617 45.0368 780.638 45.0368 697.66 45.0368 630.516 77.7588 630.516 118.222 630.516 152.704 679.774 181.731 745.894 189.295 740.469 202.314 731.527 217.62 717.452 225.184 744.573 225.184 771.403 207.24 789.727 191.23 868.454 188.944 930.761 157.101 930.761 118.222Z" fill="#FFFFFF" transform="matrix(1 0 0 1.00474 132.253 -9.08078)"/><path d="M930.761 118.222C930.761 77.7588 863.617 45.0368 780.638 45.0368 697.66 45.0368 630.516 77.7588 630.516 118.222 630.516 152.704 679.774 181.731 745.894 189.295 740.469 202.314 731.527 217.62 717.452 225.184 744.573 225.184 771.403 207.24 789.727 191.23 868.454 188.944 930.761 157.101 930.761 118.222Z" stroke="#000000" stroke-width="2.50205" stroke-linecap="round" stroke-linejoin="round" fill="none" transform="matrix(1 0 0 1.00474 132.253 -9.08078)"/><text font-family="Arial,Arial_MSFontService,sans-serif" font-weight="400" font-size="16" transform="matrix(2.50205 0 0 2.51392 866.173 97)">What<tspan font-size="16" x="-2.51201" y="17.9003">Next</tspan><tspan font-size="16" x="28.488" y="17.9003">?</tspan></text><path d="M867.754 296.522C815.589 285.233 836.391 190.204 919.606 206.419 927.327 174.811 1024.09 179.941 1023.46 206.419 1084.14 172.554 1161.68 240.08 1109.67 273.945 1172.08 290.364 1108.88 378.825 1057.66 364.048 1053.56 388.678 961.998 397.297 953.961 364.048 902.112 399.556 793.999 344.96 867.754 296.522Z" fill="#FFFFFF" transform="matrix(1 0 0 1.00474 132.253 -9.08078)"/><path d="M867.754 296.522C815.589 285.233 836.391 190.204 919.606 206.419 927.327 174.811 1024.09 179.941 1023.46 206.419 1084.14 172.554 1161.68 240.08 1109.67 273.945 1172.08 290.364 1108.88 378.825 1057.66 364.048 1053.56 388.678 961.998 397.297 953.961 364.048 902.112 399.556 793.999 344.96 867.754 296.522Z" stroke="#000000" stroke-width="2.50205" stroke-linecap="round" stroke-linejoin="round" fill="none" transform="matrix(1 0 0 1.00474 132.253 -9.08078)"/><text font-family="Arial,Arial_MSFontService,sans-serif" font-weight="400" font-size="16" transform="matrix(2.50205 0 0 2.51392 1044.09 293)">Network</text><path d="M315.258 292.739 426.599 292.739" stroke="#000000" stroke-width="7.50614" stroke-linecap="round" stroke-linejoin="round" fill="none" transform="matrix(1 0 0 1.00474 132.253 -9.08078)"/><path d="M562.326 471.636 561.709 382.813" stroke="#000000" stroke-width="7.50614" stroke-linecap="round" stroke-linejoin="round" fill="none" transform="matrix(1 0 0 1.00474 132.253 -9.08078)"/><path d="M849.019 287.57 699.322 290.103" stroke="#000000" stroke-width="7.50614" stroke-linecap="round" stroke-linejoin="round" fill="none" transform="matrix(1 0 0 1.00474 132.253 -9.08078)"/><path d="M661.599 507.814C661.599 518.812 652.683 527.728 641.685 527.728 630.686 527.728 621.77 518.812 621.77 507.814 621.77 496.815 630.686 487.899 641.685 487.899 652.683 487.899 661.599 496.815 661.599 507.814Z" fill="url(#fill4)" transform="matrix(1 0 0 1.00474 132.253 -9.08078)"/><path d="M661.599 507.814C661.599 518.812 652.683 527.728 641.685 527.728 630.686 527.728 621.77 518.812 621.77 507.814 621.77 496.815 630.686 487.899 641.685 487.899 652.683 487.899 661.599 496.815 661.599 507.814Z" stroke="#0080FF" stroke-width="10.0082" stroke-linecap="round" stroke-linejoin="round" fill="none" transform="matrix(1 0 0 1.00474 132.253 -9.08078)"/><path d="M623.783 535.257 659.586 535.257 659.586 591.313 623.783 591.313Z" fill="url(#fill5)" transform="matrix(1 0 0 1.00474 132.253 -9.08078)"/><path d="M623.783 535.257 659.586 535.257 659.586 591.313 623.783 591.313Z" stroke="#0080FF" stroke-width="10.0082" stroke-linecap="round" stroke-linejoin="round" fill="none" transform="matrix(1 0 0 1.00474 132.253 -9.08078)"/><path d="M690.565 566.236 659.586 535.257" stroke="#0080FF" stroke-width="10.0082" stroke-linecap="round" stroke-linejoin="round" fill="none" transform="matrix(1 0 0 1.00474 132.253 -9.08078)"/><path d="M609.769 636.306 623.783 636.306" stroke="#0080FF" stroke-width="10.0082" stroke-linecap="round" stroke-linejoin="round" fill="none" transform="matrix(1 0 0 1.00474 132.253 -9.08078)"/><path d="M623.783 591.314 623.783 636.306" stroke="#0080FF" stroke-width="10.0082" stroke-linecap="round" stroke-linejoin="round" fill="none" transform="matrix(1 0 0 1.00474 132.253 -9.08078)"/><path d="M592.805 566.236 623.783 535.257" stroke="#0080FF" stroke-width="10.0082" stroke-linecap="round" stroke-linejoin="round" fill="none" transform="matrix(1 0 0 1.00474 132.253 -9.08078)"/><path d="M673.601 636.306 659.587 636.306" stroke="#0080FF" stroke-width="10.0082" stroke-linecap="round" stroke-linejoin="round" fill="none" transform="matrix(1 0 0 1.00474 132.253 -9.08078)"/><path d="M659.587 591.314 659.587 636.306" stroke="#0080FF" stroke-width="10.0082" stroke-linecap="round" stroke-linejoin="round" fill="none" transform="matrix(1 0 0 1.00474 132.253 -9.08078)"/><path d="M855.7 562.96 699.322 562.96" stroke="#000000" stroke-width="7.50614" stroke-linecap="round" stroke-linejoin="round" fill="none" transform="matrix(1 0 0 1.00474 132.253 -9.08078)"/><path d="M855.7 635.019 855.7 490.901C855.7 480.957 921.273 472.887 1002.07 472.887 1082.87 472.887 1148.44 480.957 1148.44 490.901L1148.44 635.019C1148.44 644.964 1082.87 653.034 1002.07 653.034 921.273 653.034 855.7 644.964 855.7 635.019" fill="#FFFFFF" transform="matrix(1 0 0 1.00474 132.253 -9.08078)"/><path d="M855.7 635.019 855.7 490.901C855.7 480.957 921.273 472.887 1002.07 472.887 1082.87 472.887 1148.44 480.957 1148.44 490.901L1148.44 635.019C1148.44 644.964 1082.87 653.034 1002.07 653.034 921.273 653.034 855.7 644.964 855.7 635.019M855.7 490.901C855.7 500.846 921.273 508.916 1002.07 508.916 1082.87 508.916 1148.44 500.846 1148.44 490.901" stroke="#000000" stroke-width="2.50205" stroke-linecap="round" stroke-linejoin="round" fill="none" transform="matrix(1 0 0 1.00474 132.253 -9.08078)"/><text font-family="Arial,Arial_MSFontService,sans-serif" font-weight="400" font-size="16" transform="matrix(2.50205 0 0 2.51392 1038.63 556)">Secondary<tspan font-size="16" x="9.35548" y="18.6959">Memory</tspan></text></g></g></g><text font-family="Calibri,Calibri_MSFontService,sans-serif" font-weight="400" font-size="48" transform="matrix(1 0 0 1.00009 530.118 542)">Κεντρική<tspan font-size="48" x="15.9687" y="57.9945">Μνήμη</tspan></text></g></svg>