<svg width="1323" height="756" xmlns="http://www.w3.org/2000/svg" xmlns:xlink="http://www.w3.org/1999/xlink" overflow="hidden"><defs><clipPath id="clip0"><rect x="0" y="0" width="1323" height="756"/></clipPath></defs><g clip-path="url(#clip0)"><rect x="0" y="0" width="1323" height="756.071" fill="#FFFFFF"/><rect x="445.5" y="52.505" width="430" height="656.062" stroke="#000000" stroke-width="3.00038" stroke-miterlimit="8" fill="#FFFFFF"/><rect x="483.5" y="170.516" width="355" height="198.019" stroke="#000000" stroke-width="3.00038" stroke-miterlimit="8" fill="#FFFFFF"/><text font-family="Calibri,Calibri_MSFontService,sans-serif" font-weight="400" font-size="43" transform="matrix(1 0 0 1.00009 583.765 232)">Κεντρική<tspan font-size="43" x="2.40027" y="50.9952">Μονάδα</tspan><tspan font-size="43" x="-43.1188" y="101.99">Επεξεργασίας</tspan></text><rect x="483.5" y="458.543" width="355" height="197.019" stroke="#000000" stroke-width="3.00038" stroke-miterlimit="8" fill="#FFFFFF"/><text font-family="Calibri,Calibri_MSFontService,sans-serif" font-weight="400" font-size="48" transform="matrix(1 0 0 1.00009 574.094 544)">Κεντρική<tspan font-size="48" x="15.962" y="57.9945">Μνήμη</tspan><tspan font-size="48" x="-106.564" y="-416.961">Λογισμικό</tspan></text><rect x="39.5" y="170.516" width="354" height="198.019" stroke="#000000" stroke-width="3.00038" stroke-miterlimit="8" fill="#FFFFFF"/><text font-family="Calibri,Calibri_MSFontService,sans-serif" font-weight="400" font-size="48" transform="matrix(1 0 0 1.00009 124.067 227)">Συσκευές<tspan font-size="48" x="-25.9099" y="57.9945">Εισόδου</tspan><tspan font-size="48" x="148.945" y="57.9945">και</tspan><tspan font-size="48" x="20.3892" y="114.989">Εξόδο</tspan><tspan font-size="48" x="137.271" y="114.989">υ</tspan></text><path d="M980.326 233.707C977.126 208.791 993.603 185.846 1017.13 182.457 1026.66 181.084 1036.35 183.137 1044.65 188.287 1053.45 170.727 1074 164.054 1090.56 173.381 1093.46 175.012 1096.11 177.08 1098.45 179.519 1105.3 164.963 1121.98 159.049 1135.72 166.31 1139.52 168.32 1142.83 171.226 1145.41 174.806 1156.45 161.041 1175.96 159.341 1188.99 171.008 1194.46 175.912 1198.15 182.676 1199.42 190.14 1217.51 195.368 1228.19 215.171 1223.26 234.372 1222.85 235.986 1222.33 237.568 1221.71 239.106 1236.21 259.112 1232.66 287.788 1213.77 303.154 1207.89 307.938 1200.95 311.035 1193.61 312.146 1193.44 333.671 1176.82 350.98 1156.49 350.807 1149.69 350.749 1143.04 348.703 1137.28 344.895 1130.4 369.026 1106.41 382.665 1083.69 375.359 1074.17 372.297 1065.94 365.821 1060.41 357.037 1037.15 371.899 1006.96 363.904 992.972 339.181 992.796 338.869 992.623 338.555 992.453 338.24 977.229 340.128 963.439 328.621 961.652 312.539 960.7 303.967 963.371 295.387 968.954 289.086 955.773 280.866 951.345 262.823 959.064 248.787 963.518 240.689 971.328 235.336 980.095 234.373Z" stroke="#000000" stroke-width="3.00038" stroke-miterlimit="8" fill="#FFFFFF" fill-rule="evenodd"/><path d="M985.374 292.201C979.747 292.667 974.12 291.29 969.249 288.252M999.602 335.411C997.339 336.365 994.967 337.001 992.547 337.301M1060.39 356.174C1058.69 353.47 1057.27 350.58 1056.14 347.554M1139.01 334.678C1138.75 337.885 1138.19 341.056 1137.31 344.137M1172.76 276.233C1185.52 282.811 1193.57 296.564 1193.45 311.585M1221.58 238.582C1219.51 243.696 1216.35 248.234 1212.36 251.838M1199.46 189.397C1199.81 191.462 1199.98 193.559 1199.95 195.657M1140.6 182.094C1141.8 179.206 1143.39 176.517 1145.32 174.11M1096.44 185.899C1096.93 183.512 1097.7 181.199 1098.73 179.014M1044.62 188.237C1047.62 190.101 1050.4 192.344 1052.9 194.918M981.771 240.737C981.116 238.438 980.633 236.088 980.327 233.709" stroke="#000000" stroke-width="3.00038" stroke-miterlimit="8" fill="none" fill-rule="evenodd"/><text font-family="Calibri,Calibri_MSFontService,sans-serif" font-weight="400" font-size="48" transform="matrix(1 0 0 1.00009 1016.27 280)">Δίκτυο</text><path d="M923.5 489.713C923.5 471.394 1004.31 456.543 1104 456.543 1203.69 456.543 1284.5 471.394 1284.5 489.713L1284.5 622.392C1284.5 640.711 1203.69 655.562 1104 655.562 1004.31 655.562 923.5 640.711 923.5 622.392Z" fill="#FFFFFF" fill-rule="evenodd"/><path d="M1284.5 489.713C1284.5 508.032 1203.69 522.883 1104 522.883 1004.31 522.883 923.5 508.032 923.5 489.713" stroke="#000000" stroke-width="3.00038" stroke-miterlimit="8" fill="none" fill-rule="evenodd"/><path d="M923.5 489.713C923.5 471.394 1004.31 456.543 1104 456.543 1203.69 456.543 1284.5 471.394 1284.5 489.713L1284.5 622.392C1284.5 640.711 1203.69 655.562 1104 655.562 1004.31 655.562 923.5 640.711 923.5 622.392Z" stroke="#000000" stroke-width="3.00038" stroke-miterlimit="8" fill="none" fill-rule="evenodd"/><text font-family="Calibri,Calibri_MSFontService,sans-serif" font-weight="400" font-size="48" transform="matrix(1 0 0 1.00009 957.94 560)">Δευτερεύουσα<tspan font-size="48" x="75.6296" y="57.9945">Μνήμη</tspan></text><path d="M393 269.025 482.829 269.025" stroke="#000000" stroke-width="6.00076" stroke-miterlimit="8" fill="none" fill-rule="evenodd"/><path d="M838 269.025 955.902 269.025" stroke="#000000" stroke-width="6.00076" stroke-miterlimit="8" fill="none" fill-rule="evenodd"/><path d="M0 0 85.647 0.909196" stroke="#000000" stroke-width="6.00076" stroke-miterlimit="8" fill="none" fill-rule="evenodd" transform="matrix(1 0 0 -1.00009 838 556.962)"/><path d="M660 368.035 660 458.055" stroke="#000000" stroke-width="6.00076" stroke-miterlimit="8" fill="none" fill-rule="evenodd"/><path d="M842.167 197.914 856.426 162.083C805.967 137.506 802.927 96.061 849.636 69.5117 896.345 42.9624 975.115 41.3629 1025.57 65.9391 1076.03 90.5153 1079.07 131.961 1032.36 158.51 997.888 178.106 944.257 184.73 896.81 175.252Z" stroke="#000000" stroke-width="3.00038" stroke-miterlimit="8" fill="#FFFFFF" fill-rule="evenodd"/><text font-family="Calibri,Calibri_MSFontService,sans-serif" font-weight="400" font-size="48" transform="matrix(1 0 0 1.00009 886.494 101)">Μετά <tspan font-size="48" x="31.8907" y="57.9945">τί;</tspan></text></g></svg>