<svg width="832" height="378" xmlns="http://www.w3.org/2000/svg" xmlns:xlink="http://www.w3.org/1999/xlink" overflow="hidden"><defs><clipPath id="clip0"><rect x="0" y="0" width="832" height="378"/></clipPath></defs><g clip-path="url(#clip0)"><rect x="0" y="0" width="832" height="377.773" fill="#FFFFFF"/><path d="M225 90.9453 301 58.9645 377 90.9453 301 122.926Z" stroke="#000000" stroke-width="2.0012" stroke-miterlimit="8" fill="#FFFFFF" fill-rule="evenodd"/><text font-family="Calibri,Calibri_MSFontService,sans-serif" font-weight="400" font-size="16" transform="matrix(1 0 0 0.999399 286.269 96)">x <tspan font-size="16" x="10.6731" y="0">&lt; </tspan><tspan font-size="16" x="22.3468" y="0">y</tspan></text><path d="M303.001 33.4799 303.001 51.8109 299.999 51.8109 299.999 33.4799ZM306.003 50.3108 301.5 59.3109 296.997 50.3109Z"/><path d="M1.49938-0.043063 2.01499 17.9094-0.983778 17.9955-1.49938 0.043063ZM4.97069 16.3239 0.730919 25.4493-4.0256 16.5822Z" transform="matrix(-1.0006 0 0 1 302.231 211.373)"/><rect x="458" y="61.9627" width="197" height="56.9658" stroke="#000000" stroke-width="2.0012" stroke-miterlimit="8" fill="#FFFFFF"/><text font-family="Calibri,Calibri_MSFontService,sans-serif" font-weight="400" font-size="16" transform="matrix(1 0 0 0.999399 498.755 96)">Print<tspan font-size="16" x="31.0387" y="0">(‘</tspan><tspan font-size="16" x="39.8773" y="0">μικρότερο’)</tspan></text><path d="M0-1.5 41.7639-1.5 41.7639 0.000104987 40.2639-1.49989 73.0278-1.49989 73.0278 1.5001 38.7639 1.5001 38.7639 0 40.2639 1.5 0 1.5ZM71.5278-4.4999 80.5278 0.000104987 71.5278 4.5001Z" transform="matrix(1.0006 0 0 -1 377.5 91.4451)"/><text font-family="Calibri,Calibri_MSFontService,sans-serif" font-weight="400" font-size="16" transform="matrix(1 0 0 0.999399 392.914 82)">Ναι</text><rect x="458" y="150.909" width="197" height="56.9657" stroke="#000000" stroke-width="2.0012" stroke-miterlimit="8" fill="#FFFFFF"/><text font-family="Calibri,Calibri_MSFontService,sans-serif" font-weight="400" font-size="16" transform="matrix(1 0 0 0.999399 493.098 185)">Print<tspan font-size="16" x="31.0386" y="0">(‘</tspan><tspan font-size="16" x="39.8773" y="0">μεγαλύτερο’)</tspan></text><path d="M0 1.5-24.0011 1.5-22.5011 0-22.5011 231.824-24.0011 230.324 346.758 230.324 346.758 233.324-25.5011 233.324-25.5011-1.5 0-1.5ZM345.258 227.324 354.258 231.824 345.258 236.324Z" transform="matrix(-1.0006 0 0 1 655.971 91.445)"/><text font-family="Calibri,Calibri_MSFontService,sans-serif" font-weight="400" font-size="16" transform="matrix(1 0 0 0.999399 259.582 138)">Όχι</text><path d="M225 179.392 301 147.911 377 179.392 301 210.873Z" stroke="#000000" stroke-width="2.0012" stroke-miterlimit="8" fill="#FFFFFF" fill-rule="evenodd"/><text font-family="Calibri,Calibri_MSFontService,sans-serif" font-weight="400" font-size="16" transform="matrix(1 0 0 0.999399 286.269 185)">x <tspan font-size="16" x="10.6731" y="0">&gt;</tspan><tspan font-size="16" x="22.3468" y="0">y</tspan></text><path d="M303.001 123.426 303.001 140.681 299.999 140.681 299.999 123.426ZM306.003 139.181 301.5 148.181 296.997 139.181Z"/><path d="M0-1.5 41.7638-1.5 41.7638 0.000104987 40.2638-1.49989 73.0277-1.49989 73.0277 1.5001 38.7638 1.5001 38.7638 0 40.2638 1.5 0 1.5ZM71.5277-4.4999 80.5277 0.000104987 71.5277 4.5001Z" transform="matrix(1.0006 0 0 -1 377.5 179.392)"/><text font-family="Calibri,Calibri_MSFontService,sans-serif" font-weight="400" font-size="16" transform="matrix(1 0 0 0.999399 393.426 170)">Ναι</text><rect x="225" y="236.858" width="152" height="56.9658" stroke="#000000" stroke-width="2.0012" stroke-miterlimit="8" fill="#FFFFFF"/><text font-family="Calibri,Calibri_MSFontService,sans-serif" font-weight="400" font-size="16" transform="matrix(1 0 0 0.999399 265.997 271)">Print<tspan font-size="16" x="31.0386" y="0">(‘</tspan><tspan font-size="16" x="39.8773" y="0">ίσο’)</tspan></text><path d="M303.001 294.323 303.001 349.068 299.999 349.068 299.999 294.323ZM306.003 347.568 301.5 356.568 296.997 347.568Z"/><path d="M655.5 179.392 679.233 179.392" stroke="#000000" stroke-width="3.0018" stroke-miterlimit="8" fill="none" fill-rule="evenodd"/><text font-family="Calibri,Calibri_MSFontService,sans-serif" font-weight="400" font-size="16" transform="matrix(1 0 0 0.999399 259.582 224)">Όχι</text></g></svg>