<?xml version="1.0" standalone="no"?>
<!DOCTYPE svg PUBLIC "-//W3C//DTD SVG 20010904//EN"
 "http://www.w3.org/TR/2001/REC-SVG-20010904/DTD/svg10.dtd">
<svg version="1.0" xmlns="http://www.w3.org/2000/svg"
 width="5917.000000pt" height="3067.000000pt" viewBox="0 0 5917.000000 3067.000000"
 preserveAspectRatio="xMidYMid meet">

<g transform="translate(0.000000,3067.000000) scale(0.100000,-0.100000)"
fill="#000000" stroke="none">
<path d="M276 30394 l-26 -27 0 -15028 0 -15028 24 -28 24 -28 11286 0 11285
0 23 23 23 23 3 4474 2 4475 725 2 724 3 23 23 23 23 3 4514 c1 2483 4 4515 5
4515 2 0 502 -187 1110 -415 609 -228 1109 -415 1112 -415 3 0 5 151 5 335 l0
335 70 0 70 0 0 -1433 0 -1434 23 -43 c16 -30 37 -51 67 -67 l43 -23 1299 0
1298 0 0 -335 c0 -184 2 -335 3 -335 2 0 502 187 1110 415 609 228 1109 415
1112 415 3 0 5 -2713 5 -6029 0 -6605 -5 -6096 59 -6254 316 -791 1923 -1512
4511 -2027 3798 -756 9188 -972 13940 -559 3745 325 6639 1005 7921 1861 396
265 629 535 712 827 l22 76 3 12060 c2 8414 -1 12085 -8 12141 -39 301 -248
584 -640 864 -1523 1090 -5589 1889 -10615 2085 -871 34 -1225 40 -2330 39
-1101 0 -1434 -5 -2315 -39 -4499 -174 -8294 -842 -10105 -1779 -634 -328
-996 -663 -1121 -1036 l-29 -85 -5 -6067 -5 -6066 -1104 414 c-607 228 -1108
414 -1112 414 -5 0 -10 -150 -11 -332 l-3 -333 -1192 -3 -1193 -2 0 1409 c0
950 -3 1426 -11 1458 -12 55 -31 83 -80 112 -31 19 -50 21 -211 21 l-178 0 0
339 0 339 -1112 -418 -1113 -417 -5 4514 -5 4515 -28 24 -28 24 -719 0 -720 0
-2 1476 -3 1476 -28 24 -28 24 -11278 0 -11278 0 -27 -26z m22474 -1559 l0
-1415 -6724 0 -6723 0 -27 -26 -26 -27 0 -9028 0 -9028 24 -28 24 -28 6726 -3
6726 -2 0 -4415 0 -4415 -11165 0 -11165 0 0 14915 0 14915 11165 0 11165 0 0
-1415z m24270 1396 c1327 -45 2173 -93 3195 -181 3677 -317 6607 -994 7865
-1817 507 -332 729 -679 655 -1025 -32 -155 -114 -294 -264 -450 -344 -359
-956 -680 -1896 -994 -2065 -690 -5265 -1156 -8920 -1299 -855 -33 -1237 -40
-2325 -39 -1086 0 -1444 6 -2315 39 -3468 134 -6559 566 -8639 1206 -1316 405
-2139 875 -2381 1358 -117 236 -99 475 55 708 369 560 1488 1084 3245 1518
2209 546 5186 891 8405 975 228 6 465 12 525 14 257 7 2516 -3 2795 -13z
m-27270 -5146 l0 -2165 -5165 0 -5165 0 0 2165 0 2165 5165 0 5165 0 0 -2165z
m4500 -6750 l0 -8915 -2165 0 -2165 0 0 8915 0 8915 2165 0 2165 0 0 -8915z
m34490 -15104 c-27 -159 -114 -312 -268 -472 -345 -360 -956 -681 -1897 -995
-2065 -690 -5265 -1156 -8920 -1299 -855 -33 -1237 -40 -2325 -39 -1086 0
-1444 6 -2315 39 -3468 134 -6559 566 -8639 1206 -1327 408 -2150 880 -2385
1368 -22 45 -47 115 -56 155 -14 64 -15 1186 -13 11855 l3 11784 44 -58 c269
-356 899 -734 1751 -1053 3384 -1263 10378 -1797 16540 -1261 3987 346 6983
1090 8141 2021 100 80 277 258 319 321 l25 36 3 -11772 c2 -8481 0 -11790 -8
-11836z m-38990 17354 l0 -2165 -5165 0 -5165 0 0 2165 0 2165 5165 0 5165 0
0 -2165z m0 -4500 l0 -2165 -5165 0 -5165 0 0 2165 0 2165 5165 0 5165 0 0
-2165z m0 -4500 l0 -2165 -5165 0 -5165 0 0 2165 0 2165 5165 0 5165 0 0
-2165z"/>
<path d="M8375 4494 c-41 -86 -75 -158 -75 -160 0 -2 37 -4 83 -4 l82 0 115
147 c63 80 119 152 123 160 7 11 -16 13 -123 13 l-131 0 -74 -156z"/>
<path d="M15875 4494 c-41 -86 -75 -158 -75 -160 0 -2 37 -4 83 -4 l82 0 115
147 c63 80 119 152 123 160 7 11 -16 13 -123 13 l-131 0 -74 -156z"/>
<path d="M1750 4530 l0 -100 270 0 270 0 2 -737 3 -738 110 0 110 0 3 738 2
737 275 0 276 0 -3 98 -3 97 -657 3 -658 2 0 -100z"/>
<path d="M5135 4618 c-3 -7 -4 -384 -3 -838 l3 -825 108 -3 107 -3 0 741 0
740 435 0 435 0 2 -737 3 -738 108 -3 107 -3 0 841 0 840 -650 0 c-511 0 -652
-3 -655 -12z"/>
<path d="M3607 4174 c-126 -30 -248 -117 -317 -224 -99 -154 -126 -453 -59
-653 61 -182 196 -311 370 -352 75 -17 226 -20 301 -4 149 31 288 138 353 273
53 110 68 190 68 346 0 228 -45 354 -167 475 -80 79 -152 119 -254 141 -84 17
-219 17 -295 -2z m266 -170 c26 -9 70 -36 97 -61 93 -84 130 -193 130 -388 0
-178 -31 -277 -114 -363 -63 -67 -106 -85 -213 -90 -81 -4 -97 -2 -146 21
-143 65 -210 207 -210 442 0 180 41 295 133 378 28 25 70 52 93 60 57 21 172
21 230 1z"/>
<path d="M7051 4170 c-134 -36 -224 -108 -284 -227 -72 -144 -71 -127 -75
-825 l-3 -628 106 0 105 0 0 286 0 286 28 -22 c105 -81 161 -102 294 -108 129
-6 212 16 307 79 109 73 189 192 228 339 24 91 24 321 0 410 -57 215 -205 369
-398 415 -88 20 -218 18 -308 -5z m272 -166 c59 -20 135 -88 170 -152 44 -80
60 -163 60 -297 0 -218 -56 -349 -182 -423 -39 -23 -59 -27 -141 -30 -89 -4
-98 -2 -150 25 -100 53 -153 153 -170 321 -17 157 5 323 54 421 29 56 100 123
148 138 51 17 159 15 211 -3z"/>
<path d="M8262 4170 c-271 -71 -416 -311 -399 -660 4 -63 13 -142 22 -175 54
-199 193 -341 382 -390 75 -20 242 -19 318 0 200 52 345 209 390 423 20 95 19
281 -1 380 -45 222 -198 384 -403 428 -92 19 -221 17 -309 -6z m317 -185 c128
-70 191 -209 191 -425 0 -179 -43 -305 -131 -384 -62 -56 -121 -76 -219 -76
-66 0 -86 4 -138 30 -139 70 -197 198 -197 435 0 106 4 143 23 201 28 90 75
160 136 202 66 44 97 52 196 49 72 -3 93 -7 139 -32z"/>
<path d="M10801 4170 c-134 -36 -224 -108 -284 -227 -72 -144 -71 -127 -75
-825 l-3 -628 106 0 105 0 0 286 0 286 28 -22 c105 -81 161 -102 294 -108 129
-6 212 16 307 79 109 73 189 192 228 339 24 91 24 321 0 410 -57 215 -205 369
-398 415 -88 20 -218 18 -308 -5z m272 -166 c59 -20 135 -88 170 -152 44 -80
60 -163 60 -297 0 -218 -56 -349 -182 -423 -39 -23 -59 -27 -141 -30 -89 -4
-98 -2 -150 25 -100 53 -153 153 -170 321 -17 157 5 323 54 421 29 56 100 123
148 138 51 17 159 15 211 -3z"/>
<path d="M11985 4176 c-167 -42 -290 -172 -345 -366 -46 -163 -35 -425 24
-570 58 -143 170 -252 297 -291 93 -28 245 -23 331 10 69 27 149 97 188 164
26 45 28 47 35 26 3 -13 20 -63 37 -111 l30 -88 98 0 c53 0 99 3 103 6 3 3 -1
25 -9 47 -26 72 -73 256 -104 406 l-29 145 39 185 c22 102 55 239 74 304 l34
117 -108 0 -107 0 -29 -96 c-28 -92 -29 -95 -44 -72 -60 93 -163 164 -268 187
-68 14 -183 13 -247 -3z m280 -180 c140 -65 218 -251 201 -477 -13 -167 -53
-267 -142 -348 -59 -54 -106 -71 -195 -71 -80 0 -131 23 -183 80 -68 76 -103
180 -112 335 -14 236 59 420 191 481 70 33 171 33 240 0z"/>
<path d="M15735 4176 c-167 -42 -290 -172 -345 -366 -46 -163 -35 -425 24
-570 58 -143 170 -252 297 -291 93 -28 245 -23 331 10 69 27 149 97 188 164
26 45 28 47 35 26 3 -13 20 -63 37 -111 l30 -88 98 0 c53 0 99 3 103 6 3 3 -1
25 -9 47 -26 72 -73 256 -104 406 l-29 145 39 185 c22 102 55 239 74 304 l34
117 -108 0 -107 0 -29 -96 c-28 -92 -29 -95 -44 -72 -60 93 -163 164 -268 187
-68 14 -183 13 -247 -3z m280 -180 c140 -65 218 -251 201 -477 -13 -167 -53
-267 -142 -348 -59 -54 -106 -71 -195 -71 -80 0 -131 23 -183 80 -68 76 -103
180 -112 335 -14 236 59 420 191 481 70 33 171 33 240 0z"/>
<path d="M17607 4174 c-126 -30 -248 -117 -317 -224 -99 -154 -126 -453 -59
-653 61 -182 196 -311 370 -352 75 -17 226 -20 301 -4 149 31 288 138 353 273
53 110 68 190 68 346 -1 155 -20 247 -75 351 -18 35 -34 67 -36 71 -2 4 56 9
130 10 l133 3 3 83 3 82 -258 0 c-190 0 -277 4 -328 15 -86 18 -211 18 -288
-1z m266 -170 c26 -9 70 -36 97 -61 93 -84 130 -193 130 -388 0 -178 -31 -277
-114 -363 -63 -67 -106 -85 -213 -90 -81 -4 -97 -2 -146 21 -143 65 -210 207
-210 442 0 180 41 295 133 378 28 25 70 52 93 60 57 21 172 21 230 1z"/>
<path d="M18857 4174 c-126 -30 -248 -117 -317 -224 -74 -116 -110 -311 -91
-490 19 -170 70 -289 167 -384 101 -100 224 -146 394 -146 173 0 295 46 399
151 116 116 163 252 164 474 1 231 -43 357 -167 481 -79 79 -149 117 -254 140
-84 17 -219 17 -295 -2z m266 -170 c26 -9 70 -36 97 -61 93 -84 130 -193 130
-388 0 -178 -31 -277 -114 -363 -63 -67 -106 -85 -213 -90 -81 -4 -97 -2 -146
21 -143 65 -210 207 -210 442 0 180 41 295 133 378 28 25 70 52 93 60 57 21
172 21 230 1z"/>
<path d="M9079 4113 c11 -26 121 -297 245 -602 l226 -554 0 -234 0 -233 110 0
110 0 0 238 0 239 236 579 c130 318 239 587 241 597 5 15 -5 17 -110 17 l-115
0 -10 -27 c-62 -171 -345 -910 -351 -916 -4 -4 -88 205 -187 465 l-180 473
-117 3 -117 3 19 -48z"/>
<path d="M12940 3325 l0 -835 105 0 105 0 0 244 0 244 62 -25 c54 -22 73 -25
152 -21 114 5 193 39 283 122 l62 57 14 -33 c40 -95 113 -140 240 -146 l87 -4
0 88 0 89 -42 1 c-32 1 -47 8 -65 28 l-23 27 0 500 0 499 -110 0 -110 0 0
-435 0 -434 -61 -65 c-83 -89 -146 -120 -248 -119 -114 0 -172 29 -215 108
-20 39 -21 52 -24 493 l-3 452 -104 0 -105 0 0 -835z"/>
<path d="M14190 3325 l0 -835 105 0 105 0 0 244 0 244 62 -25 c54 -22 73 -25
152 -21 114 5 193 39 283 122 l62 57 14 -33 c40 -95 113 -140 240 -146 l87 -4
0 88 0 89 -42 1 c-32 1 -47 8 -65 28 l-23 27 0 500 0 499 -110 0 -110 0 0
-435 0 -434 -61 -65 c-83 -89 -146 -120 -248 -119 -114 0 -172 29 -215 108
-20 39 -21 52 -24 493 l-3 452 -104 0 -105 0 0 -835z"/>
<path d="M19763 3748 c5 -447 7 -473 64 -586 30 -60 120 -150 181 -181 100
-51 285 -67 407 -36 161 42 273 157 321 330 14 50 18 127 21 473 l5 412 -110
0 -111 0 -3 -422 c-3 -410 -4 -425 -26 -478 -25 -63 -79 -122 -134 -145 -50
-20 -186 -20 -236 0 -55 23 -109 82 -134 145 -22 53 -23 68 -26 478 l-3 422
-111 0 -110 0 5 -412z"/>
<path d="M12170 25573 c-14 -2 -54 -13 -90 -24 -304 -96 -474 -431 -432 -851
28 -280 144 -478 340 -581 92 -48 175 -67 302 -67 186 0 313 46 430 156 116
110 176 229 206 411 22 132 15 355 -15 468 -82 316 -312 498 -620 494 -53 -1
-107 -4 -121 -6z m293 -241 c102 -50 161 -130 199 -268 18 -67 21 -106 21
-249 0 -143 -3 -182 -21 -249 -37 -135 -104 -226 -200 -273 -52 -25 -67 -28
-167 -28 -136 0 -188 20 -265 101 -94 99 -132 228 -132 449 0 264 57 412 194
502 58 39 121 53 219 50 74 -3 96 -8 152 -35z"/>
<path d="M13798 25564 c-75 -18 -160 -61 -242 -123 l-66 -50 0 74 0 75 -125 0
-125 0 0 -995 0 -995 125 0 125 0 0 303 0 303 68 -33 c166 -81 391 -85 540 -9
153 78 265 225 329 433 26 84 27 98 27 303 0 191 -2 224 -22 295 -47 169 -148
317 -260 378 -101 55 -250 72 -374 41z m217 -244 c128 -62 194 -228 195 -493
0 -267 -74 -433 -228 -509 -65 -32 -70 -33 -192 -33 -119 1 -129 2 -210 35
l-85 35 -3 416 -2 416 57 40 c78 55 152 91 221 108 77 20 189 13 247 -15z"/>
<path d="M15161 25564 c-138 -29 -272 -115 -357 -227 -91 -120 -138 -252 -154
-430 -24 -279 44 -513 194 -662 132 -131 286 -187 521 -188 159 -1 242 15 409
79 l96 37 0 133 c0 74 -3 134 -6 134 -3 0 -25 -14 -50 -31 -125 -86 -292 -139
-438 -139 -152 0 -250 35 -341 121 -80 76 -124 180 -140 337 l-7 62 507 0 508
0 -6 158 c-8 235 -47 349 -162 471 -75 79 -155 124 -260 146 -87 18 -229 18
-314 -1z m304 -213 c59 -26 119 -81 146 -133 23 -45 49 -149 49 -200 l0 -38
-383 0 -384 0 9 58 c24 157 146 294 295 332 65 16 212 6 268 -19z"/>
<path d="M16630 25564 c-69 -19 -167 -72 -247 -135 l-63 -49 0 80 0 80 -120 0
-120 0 0 -725 0 -725 120 0 120 0 0 540 0 540 58 45 c71 56 180 111 251 126
114 24 241 -11 286 -80 55 -82 58 -114 62 -663 l5 -508 119 0 119 0 0 520 c0
434 -3 534 -16 597 -40 194 -145 315 -309 358 -74 19 -192 18 -265 -1z"/>
<path d="M21410 25020 l0 -850 115 0 115 0 0 415 0 415 385 0 385 0 0 -415 0
-415 120 0 120 0 0 850 0 851 -117 -3 -118 -3 -3 -332 -2 -333 -385 0 -385 0
0 335 0 335 -115 0 -115 0 0 -850z"/>
<path d="M21880 23196 c0 -4 -554 -1649 -565 -1678 -7 -17 3 -18 111 -18 l119
0 75 233 76 232 324 0 325 0 75 -232 75 -233 124 0 c113 0 123 1 116 18 -11
28 -565 1674 -565 1678 0 2 -65 4 -145 4 -80 0 -145 -2 -145 -4z m273 -643
l125 -383 -258 0 -258 0 94 288 c52 158 109 333 126 389 18 56 36 99 39 95 4
-4 63 -179 132 -389z"/>
<path d="M21410 19685 l0 -856 108 3 107 3 5 717 5 716 367 -716 367 -717 131
-3 130 -3 0 856 0 855 -110 0 -110 0 -2 -662 -3 -663 -335 660 -335 660 -162
3 -163 2 0 -855z"/>
<path d="M21430 17020 l0 -850 288 0 c327 0 435 12 560 60 260 100 434 326
483 624 19 121 7 341 -25 449 -81 272 -265 456 -526 526 -115 31 -246 41 -525
41 l-255 0 0 -850z m665 623 c220 -60 355 -192 412 -403 25 -92 25 -358 0
-450 -44 -163 -137 -280 -280 -350 -107 -52 -212 -70 -413 -70 l-154 0 0 651
0 652 183 -6 c134 -4 201 -10 252 -24z"/>
<path d="M21600 14350 l0 -850 495 0 495 0 0 105 0 105 -380 0 -380 0 0 745 0
745 -115 0 -115 0 0 -850z"/>
<path d="M21540 11685 l0 -855 533 2 532 3 3 103 3 102 -421 0 -420 0 0 310 0
310 390 0 390 0 0 105 0 105 -390 0 -390 0 0 230 0 230 420 0 421 0 -3 103 -3
102 -532 3 -533 2 0 -855z"/>
<path d="M41630 20930 l0 -760 95 0 95 0 0 410 0 410 43 31 c23 17 71 45 107
62 54 26 77 31 135 31 104 -1 154 -33 182 -118 13 -43 17 -115 21 -438 l4
-388 89 0 89 0 0 389 c0 216 -4 412 -10 441 -34 178 -142 278 -310 288 -113 6
-190 -23 -327 -124 l-23 -16 0 271 0 271 -95 0 -95 0 0 -760z"/>
<path d="M32810 20895 l0 -725 100 0 100 0 0 350 0 350 325 0 325 0 0 85 0 85
-325 0 -325 0 0 205 0 205 335 0 335 0 0 85 0 85 -435 0 -435 0 0 -725z"/>
<path d="M38810 21415 l0 -155 -60 0 -60 0 0 -75 0 -75 59 0 60 0 3 -362 c3
-349 4 -365 26 -419 27 -68 80 -125 141 -152 59 -26 192 -33 281 -15 l65 14 3
82 c2 45 0 82 -4 82 -3 0 -31 -7 -61 -16 -72 -21 -163 -15 -201 12 -15 11 -36
38 -47 60 -18 36 -19 62 -20 374 l0 335 168 3 167 2 0 75 0 75 -167 2 -168 3
-3 153 -3 152 -89 0 -90 0 0 -155z"/>
<path d="M34741 21274 c-123 -33 -233 -126 -290 -247 -91 -191 -78 -511 28
-676 68 -105 174 -179 291 -201 226 -43 435 52 527 241 88 181 86 478 -5 658
-55 111 -176 203 -300 230 -71 15 -185 13 -251 -5z m241 -160 c87 -29 153
-120 179 -243 7 -33 9 -110 7 -190 -6 -159 -26 -228 -90 -297 -58 -63 -124
-87 -220 -82 -95 6 -156 39 -205 112 -47 69 -65 135 -70 262 -11 232 45 371
172 430 60 29 158 32 227 8z"/>
<path d="M36030 21281 c-44 -14 -94 -42 -152 -88 l-58 -44 0 55 0 56 -95 0
-95 0 0 -545 0 -545 95 0 95 0 0 410 0 410 49 39 c78 61 136 85 206 85 81 -1
121 -22 148 -82 21 -45 22 -61 25 -454 l3 -408 95 0 95 0 -2 407 -2 407 43 38
c67 60 142 92 214 92 78 0 119 -23 149 -84 21 -44 22 -54 25 -452 l3 -408 90
0 89 0 0 419 c0 391 -1 423 -20 482 -27 85 -74 147 -141 184 -49 27 -62 30
-149 30 -85 0 -101 -3 -151 -29 -31 -15 -86 -54 -121 -86 l-65 -59 -34 52
c-39 60 -82 91 -152 112 -53 16 -145 19 -187 6z"/>
<path d="M38211 21279 c-105 -18 -204 -75 -252 -145 -63 -92 -72 -217 -23
-321 45 -94 115 -133 327 -183 70 -16 146 -39 168 -50 51 -27 73 -74 66 -144
-6 -67 -50 -109 -133 -126 -125 -26 -270 7 -398 91 -32 22 -60 39 -62 39 -2 0
-4 -47 -4 -103 0 -119 -9 -107 123 -153 194 -66 410 -49 532 44 128 96 167
254 101 399 -41 88 -111 127 -317 173 -152 35 -206 60 -232 110 -22 43 -18
111 10 148 77 104 339 91 489 -23 18 -14 35 -25 38 -25 3 0 6 44 6 99 l0 99
-47 20 c-113 48 -283 71 -392 51z"/>
<path d="M39763 21275 c-135 -37 -246 -130 -306 -257 -51 -108 -62 -165 -61
-318 1 -118 4 -145 28 -217 64 -195 209 -307 432 -333 133 -15 251 5 422 72
l32 12 0 103 0 102 -62 -39 c-96 -60 -204 -92 -307 -92 -100 1 -160 17 -223
60 -80 55 -138 177 -138 289 l0 43 375 0 375 0 0 103 c-1 318 -156 489 -443
486 -40 0 -96 -7 -124 -14z m224 -150 c92 -27 163 -134 163 -247 l0 -38 -286
0 -287 0 7 43 c16 106 103 213 195 241 61 19 146 19 208 1z"/>
<path d="M40858 21271 c-60 -20 -111 -47 -170 -94 l-38 -29 0 56 0 56 -90 0
-90 0 0 -745 0 -745 90 0 90 0 0 225 c0 124 1 225 3 225 2 0 26 -11 55 -25
148 -71 338 -58 457 33 152 115 223 304 212 562 -10 240 -96 406 -246 473 -65
29 -197 33 -273 8z m194 -182 c47 -24 93 -86 114 -153 9 -28 18 -104 21 -168
9 -180 -18 -285 -93 -367 -46 -51 -78 -69 -150 -82 -67 -12 -167 1 -242 32
l-52 22 0 311 0 312 63 40 c60 40 126 69 177 78 43 8 121 -4 162 -25z"/>
<path d="M43091 21274 c-168 -45 -302 -193 -347 -380 -22 -93 -22 -278 0 -364
37 -146 119 -257 235 -319 88 -46 160 -62 291 -62 120 -1 215 19 333 70 l47
20 0 94 c0 52 -3 96 -6 100 -3 3 -24 -7 -46 -23 -58 -42 -174 -87 -253 -98
-244 -33 -407 89 -431 322 l-7 66 383 0 383 0 -6 109 c-8 129 -19 186 -52 256
-51 107 -139 181 -251 210 -72 19 -202 18 -273 -1z m228 -150 c94 -28 148
-104 167 -236 l6 -48 -291 0 -292 0 7 38 c16 93 70 177 140 218 78 46 171 56
263 28z"/>
<path d="M44217 21280 c-49 -13 -88 -33 -165 -86 -35 -24 -65 -44 -67 -44 -3
0 -5 25 -5 55 l0 55 -90 0 -90 0 0 -545 0 -545 90 0 90 0 0 408 1 407 45 33
c84 62 171 96 244 96 91 0 137 -24 170 -90 l25 -49 3 -402 3 -403 95 0 94 0 0
368 c0 384 -6 464 -40 556 -26 68 -93 139 -158 168 -53 24 -182 33 -245 18z"/>
<path d="M46030 21281 c-44 -14 -94 -42 -152 -88 l-58 -44 0 55 0 56 -95 0
-95 0 0 -545 0 -545 95 0 95 0 0 410 0 410 49 39 c78 61 136 85 206 85 81 -1
121 -22 148 -82 21 -45 22 -61 25 -454 l3 -408 95 0 95 0 -2 407 -2 407 43 38
c67 60 142 92 214 92 78 0 119 -23 149 -84 21 -44 22 -54 25 -452 l3 -408 90
0 89 0 0 419 c0 391 -1 423 -20 482 -27 85 -74 147 -141 184 -49 27 -62 30
-149 30 -85 0 -101 -3 -151 -29 -31 -15 -86 -54 -121 -86 l-65 -59 -34 52
c-39 60 -82 91 -152 112 -53 16 -145 19 -187 6z"/>
<path d="M33800 20715 l0 -545 90 0 90 0 0 388 0 388 48 37 c85 64 134 81 247
84 l100 2 0 93 0 93 -75 0 c-91 -1 -151 -26 -252 -104 l-68 -52 0 81 0 80 -90
0 -90 0 0 -545z"/>
<path d="M45020 20310 l0 -140 115 0 115 0 0 140 0 140 -115 0 -115 0 0 -140z"/>
<path d="M47350 20310 l0 -140 120 0 121 0 -3 138 -3 137 -117 3 -118 3 0
-141z"/>
<path d="M48020 20310 l0 -140 115 0 115 0 0 140 0 140 -115 0 -115 0 0 -140z"/>
<path d="M42137 19354 c-4 -4 -7 -346 -7 -761 l0 -753 95 0 95 0 0 408 0 409
43 30 c85 61 147 86 228 91 63 4 82 1 117 -17 89 -45 102 -120 102 -593 l0
-328 90 0 90 0 0 393 c0 427 -5 473 -57 569 -33 60 -70 93 -143 127 -46 21
-69 25 -140 25 -105 -1 -174 -25 -266 -95 l-64 -48 -2 272 -3 272 -85 3 c-47
1 -89 0 -93 -4z"/>
<path d="M32810 18565 l0 -725 100 0 100 0 0 285 0 285 113 0 112 -1 225 -284
225 -285 123 0 c67 0 122 2 122 5 0 3 -112 142 -250 310 -137 168 -250 307
-250 309 0 3 27 19 60 37 82 44 152 115 192 196 32 66 33 71 33 193 0 116 -2
129 -28 181 -53 108 -174 189 -312 209 -38 5 -181 10 -317 10 l-248 0 0 -725z
m600 519 c75 -43 110 -107 110 -203 0 -101 -23 -167 -79 -222 -64 -65 -116
-79 -293 -79 l-138 0 0 271 0 271 173 -4 c171 -3 172 -3 227 -34z"/>
<path d="M39310 18565 l0 -725 100 0 100 0 0 270 0 270 133 0 c211 0 339 39
442 132 104 95 151 217 143 374 -6 113 -35 181 -109 259 -111 117 -217 144
-571 145 l-238 0 0 -725z m520 544 c118 -25 188 -110 198 -237 9 -129 -50
-242 -151 -291 -48 -23 -175 -41 -289 -41 l-78 0 0 290 0 290 135 0 c73 0 157
-5 185 -11z"/>
<path d="M34980 19085 l0 -154 -62 -3 -63 -3 -3 -72 -3 -72 63 -3 63 -3 5
-370 c5 -363 5 -371 29 -423 29 -64 95 -125 158 -146 55 -19 202 -20 278 -2
l50 11 3 83 c2 45 -1 82 -5 82 -4 0 -26 -7 -48 -15 -61 -22 -173 -19 -212 5
-67 40 -68 46 -68 430 l0 345 168 3 167 2 0 75 0 75 -170 0 -170 0 0 155 0
155 -90 0 -90 0 0 -155z"/>
<path d="M41480 19085 l0 -154 -62 -3 -63 -3 -3 -72 -3 -72 63 -3 63 -3 5
-370 c5 -363 5 -371 29 -423 29 -64 95 -125 158 -146 55 -19 202 -20 278 -2
l50 11 3 83 c2 45 -1 82 -5 82 -4 0 -26 -7 -48 -15 -61 -22 -173 -19 -212 5
-67 40 -68 46 -68 430 l0 345 168 3 167 2 0 75 0 75 -170 0 -170 0 0 155 0
155 -90 0 -90 0 0 -155z"/>
<path d="M45218 18782 l-518 -247 0 -61 0 -61 508 -243 c279 -133 515 -245
525 -247 15 -5 17 3 17 75 0 51 -4 83 -12 90 -7 5 -186 92 -398 192 -212 100
-389 185 -393 189 -4 4 173 94 395 199 l403 191 3 86 c1 47 -1 85 -5 85 -4 -1
-241 -112 -525 -248z"/>
<path d="M34300 18950 c-265 -47 -430 -300 -407 -625 11 -160 51 -264 136
-357 150 -164 429 -202 703 -96 l78 29 0 100 c0 54 -2 99 -4 99 -2 0 -30 -16
-62 -35 -198 -120 -418 -124 -552 -11 -63 54 -112 168 -112 264 l0 42 375 0
375 0 0 105 c0 176 -33 277 -121 370 -97 102 -245 144 -409 115z m212 -167
c77 -31 138 -136 138 -240 l0 -43 -285 0 -285 0 0 23 c0 45 30 125 65 170 41
53 104 94 166 107 55 11 150 3 201 -17z"/>
<path d="M37896 18949 c-53 -13 -131 -53 -193 -100 l-53 -40 0 61 0 60 -90 0
-90 0 0 -545 0 -545 90 0 90 0 0 408 0 407 63 43 c94 64 157 85 244 80 111 -5
153 -46 172 -168 6 -37 11 -219 11 -417 l0 -353 90 0 91 0 -3 428 c-3 416 -4
428 -26 483 -63 158 -224 238 -396 198z"/>
<path d="M46555 18946 c-59 -15 -122 -46 -187 -92 l-47 -33 -3 52 -3 52 -93 3
-92 3 2 -748 3 -748 90 0 90 0 3 227 2 227 48 -24 c74 -37 133 -48 240 -43
121 4 189 34 273 118 113 112 163 257 163 470 -1 300 -103 484 -299 535 -69
18 -121 18 -190 1z m150 -185 c90 -40 139 -143 151 -314 15 -214 -47 -373
-171 -440 -60 -33 -216 -31 -300 3 l-60 25 -3 315 -2 315 48 33 c117 79 248
104 337 63z"/>
<path d="M40583 18929 l-103 -21 0 -95 c0 -86 2 -95 18 -90 177 59 186 60 317
61 121 1 133 -1 174 -24 51 -29 76 -72 86 -147 5 -40 4 -54 -7 -57 -7 -2 -74
-9 -149 -15 -141 -12 -257 -36 -334 -70 -63 -28 -139 -102 -165 -162 -48 -112
-33 -269 34 -363 39 -55 70 -80 141 -112 50 -23 66 -25 153 -22 84 3 106 7
164 35 37 17 89 48 115 68 l48 37 3 -56 3 -56 90 0 90 0 -3 428 c-4 493 -4
489 -93 578 -79 79 -134 96 -325 100 -126 3 -174 -1 -257 -17z m495 -671 l3
-146 -43 -36 c-75 -64 -141 -91 -238 -94 -73 -3 -91 0 -130 20 -56 29 -90 89
-90 160 0 140 101 205 358 233 64 7 122 12 127 10 6 -1 11 -61 13 -147z"/>
<path d="M35627 18923 c-11 -10 -8 -666 3 -767 17 -163 70 -257 175 -311 54
-28 67 -30 164 -30 96 0 111 3 164 28 31 16 79 46 107 68 27 21 52 39 55 39 3
0 5 -25 5 -55 l0 -55 90 0 90 0 0 545 0 545 -90 0 -90 0 0 -409 0 -409 -49
-36 c-89 -65 -157 -91 -241 -91 -96 0 -135 21 -170 90 l-25 50 -3 403 -3 402
-88 0 c-48 0 -91 -3 -94 -7z"/>
<path d="M36800 18385 l0 -545 90 0 90 0 0 384 0 384 37 32 c20 18 67 47 103
64 59 28 74 31 162 31 l98 0 0 92 c0 91 -1 93 -25 99 -75 19 -204 -27 -310
-110 l-60 -47 -3 80 -3 81 -89 0 -90 0 0 -545z"/>
<path d="M43407 18923 c-4 -3 -7 -66 -7 -140 l0 -133 120 0 120 0 0 140 0 140
-113 0 c-63 0 -117 -3 -120 -7z"/>
<path d="M38590 18470 l0 -90 273 2 272 3 3 88 3 87 -276 0 -275 0 0 -90z"/>
<path d="M43407 18114 c-4 -4 -7 -67 -7 -141 l0 -133 120 0 121 0 -3 138 -3
137 -111 3 c-60 1 -113 -1 -117 -4z"/>
<path d="M47357 18114 c-4 -4 -7 -67 -7 -141 l0 -133 120 0 121 0 -3 138 -3
137 -111 3 c-60 1 -113 -1 -117 -4z"/>
<path d="M48020 17980 l0 -140 115 0 115 0 0 140 0 140 -115 0 -115 0 0 -140z"/>
<path d="M38417 16966 c-131 -38 -240 -124 -293 -231 -27 -56 -29 -68 -29
-175 0 -112 1 -117 34 -178 67 -124 136 -164 401 -232 199 -51 228 -63 273
-104 39 -37 57 -85 57 -158 0 -157 -113 -243 -320 -241 -142 1 -305 61 -408
149 -22 19 -43 34 -46 34 -3 0 -6 -54 -6 -120 l0 -120 38 -19 c57 -28 187 -70
255 -81 83 -13 263 -13 329 1 139 29 256 116 315 237 37 75 38 78 38 191 0
107 -2 121 -28 173 -57 117 -142 164 -420 236 -212 55 -257 78 -294 152 -30
58 -31 145 -3 199 44 87 142 135 275 135 130 0 253 -40 360 -118 27 -20 53
-36 58 -36 4 0 6 53 5 117 l-3 117 -57 22 c-116 45 -179 56 -333 60 -107 2
-164 -1 -198 -10z"/>
<path d="M32815 16948 c-3 -7 -4 -335 -3 -728 l3 -715 260 1 c203 0 279 4 345
18 258 52 437 221 512 483 33 114 33 343 0 458 -35 122 -86 209 -172 296 -156
157 -311 198 -743 199 -149 0 -199 -3 -202 -12z m531 -173 c200 -38 340 -162
390 -346 8 -30 17 -99 20 -154 19 -306 -108 -511 -357 -581 -33 -9 -120 -18
-221 -21 l-168 -6 0 562 0 561 129 0 c73 0 163 -6 207 -15z"/>
<path d="M42350 16585 c0 -206 1 -375 3 -375 1 0 40 7 87 15 47 8 130 15 186
15 168 0 252 -38 300 -135 24 -49 27 -69 27 -143 -1 -190 -95 -304 -260 -319
-77 -7 -199 23 -311 77 -46 22 -86 40 -88 40 -2 0 -4 -47 -4 -104 l0 -105 53
-19 c71 -27 177 -49 267 -57 215 -19 405 78 488 247 43 90 55 158 50 284 -3
89 -9 119 -30 165 -46 102 -124 170 -239 210 -53 19 -87 22 -201 23 l-138 1 0
193 0 192 305 0 306 0 -3 83 -3 82 -397 3 -398 2 0 -375z"/>
<path d="M44194 16947 c-3 -8 -4 -43 -2 -78 l3 -64 153 -3 152 -3 0 -474 c0
-313 -4 -492 -11 -527 -15 -70 -66 -120 -140 -138 -66 -16 -194 -8 -276 19
l-63 19 0 -93 c0 -109 -15 -98 156 -116 134 -14 230 -2 319 40 83 38 129 82
165 154 47 96 51 164 48 747 l-3 525 -248 3 c-202 2 -248 0 -253 -11z"/>
<path d="M35147 16903 c-4 -3 -7 -75 -7 -160 l0 -153 -60 0 -60 0 0 -75 0 -75
59 0 59 0 4 -352 c5 -387 9 -415 67 -496 64 -87 184 -124 337 -103 124 17 124
17 124 105 0 40 -3 75 -6 79 -3 3 -25 -2 -47 -10 -58 -22 -173 -22 -214 0 -66
35 -68 43 -71 429 l-3 348 168 2 168 3 3 73 3 72 -171 0 -170 0 0 160 0 160
-88 0 c-49 0 -92 -3 -95 -7z"/>
<path d="M40310 16750 l0 -160 -60 0 -60 0 0 -75 0 -75 59 0 60 0 3 -362 c4
-408 6 -419 78 -501 59 -67 123 -91 240 -91 52 0 119 5 148 13 l52 13 0 85 c0
77 -2 84 -17 78 -10 -5 -45 -15 -77 -23 -48 -13 -69 -13 -114 -4 -30 6 -64 20
-75 29 -46 42 -50 69 -55 426 l-5 337 172 0 171 0 0 75 0 75 -167 2 -168 3 -3
158 -3 157 -89 0 -90 0 0 -160z"/>
<path d="M34295 16604 c-44 -8 -93 -18 -110 -22 l-30 -8 -3 -96 -3 -96 65 24
c102 37 230 57 314 50 143 -12 203 -61 210 -171 l4 -62 -133 -12 c-263 -24
-383 -64 -468 -157 -65 -70 -85 -136 -79 -252 8 -146 70 -243 191 -298 54 -25
73 -29 152 -28 109 2 176 24 265 90 33 24 62 44 65 44 3 0 5 -25 5 -55 l0 -55
90 0 90 0 0 424 c0 484 -1 492 -77 576 -78 87 -184 121 -373 119 -52 0 -131
-7 -175 -15z m445 -683 l0 -150 -37 -31 c-21 -17 -67 -45 -103 -63 -57 -28
-74 -32 -145 -32 -143 1 -205 57 -205 185 0 95 31 139 130 184 55 25 212 53
313 55 l47 1 0 -149z"/>
<path d="M36060 16598 c-118 -41 -218 -133 -274 -252 -41 -86 -58 -178 -59
-306 0 -191 43 -311 147 -416 100 -99 222 -144 396 -144 107 0 183 16 300 61
l80 30 0 100 c0 54 -3 99 -6 99 -3 0 -18 -8 -32 -19 -15 -10 -54 -32 -88 -49
-219 -110 -464 -70 -559 91 -26 45 -55 151 -55 205 l0 32 382 0 381 0 -6 113
c-7 121 -25 204 -58 269 -35 68 -113 142 -182 174 -55 25 -75 29 -182 31 -104
3 -129 0 -185 -19z m261 -140 c89 -26 147 -109 164 -235 l7 -53 -291 0 c-244
0 -291 2 -291 14 0 33 40 139 64 171 34 45 86 84 133 101 47 16 163 18 214 2z"/>
<path d="M39465 16604 c-44 -8 -97 -19 -117 -25 l-38 -10 0 -91 c0 -105 -15
-99 135 -53 75 23 110 28 205 29 101 1 121 -2 162 -22 60 -30 88 -75 95 -150
l5 -58 -138 -13 c-227 -21 -336 -50 -426 -116 -93 -68 -143 -211 -118 -338 57
-290 363 -376 628 -176 l52 40 0 -61 0 -60 90 0 91 0 -3 438 c-3 422 -4 439
-24 483 -47 101 -143 168 -271 189 -82 14 -234 11 -328 -6z m445 -684 l0 -149
-46 -35 c-88 -67 -149 -91 -239 -91 -130 0 -195 48 -210 154 -19 137 70 221
265 250 102 15 127 18 183 20 l47 1 0 -150z"/>
<path d="M45140 16605 c-41 -7 -93 -17 -115 -22 l-40 -9 -3 -96 -3 -96 85 29
c123 41 234 55 331 42 84 -12 116 -29 151 -81 22 -33 41 -130 27 -142 -4 -4
-66 -13 -138 -19 -284 -26 -413 -77 -492 -194 -82 -121 -65 -324 36 -440 42
-47 140 -95 211 -103 105 -12 230 27 326 100 26 20 51 36 55 36 5 0 9 -25 9
-55 l0 -55 90 0 90 0 0 392 c0 238 -4 416 -11 454 -21 123 -101 212 -222 250
-71 22 -289 27 -387 9z m440 -684 l0 -149 -47 -35 c-103 -74 -195 -104 -288
-92 -100 12 -155 68 -162 166 -6 87 21 142 94 185 68 41 205 69 356 73 l47 1
0 -149z"/>
<path d="M46353 16602 c-46 -16 -95 -46 -180 -108 l-23 -16 0 56 0 56 -90 0
-90 0 0 -545 0 -545 90 0 90 0 0 410 0 410 43 31 c23 17 69 45 102 62 53 28
70 32 140 32 93 0 132 -16 163 -67 35 -56 42 -146 42 -520 l0 -358 90 0 90 0
0 408 c0 429 -3 460 -48 548 -32 63 -65 97 -124 129 -46 26 -65 30 -148 32
-73 3 -107 -1 -147 -15z"/>
<path d="M36900 16455 l0 -135 120 0 120 0 0 135 0 135 -120 0 -120 0 0 -135z"/>
<path d="M36902 15643 l3 -138 115 0 115 0 3 138 3 137 -121 0 -121 0 3 -137z"/>
<path d="M41075 15768 c-9 -23 -165 -610 -165 -619 0 -5 31 -9 69 -9 l68 0
123 288 c68 158 129 302 137 320 l13 32 -120 0 c-87 0 -122 -3 -125 -12z"/>
<path d="M47850 15640 l0 -141 118 3 117 3 3 138 3 137 -121 0 -120 0 0 -140z"/>
<path d="M48520 15640 l0 -140 115 0 115 0 0 140 0 140 -115 0 -115 0 0 -140z"/>
<path d="M46300 13930 l0 -760 95 0 95 0 0 760 0 760 -95 0 -95 0 0 -760z"/>
<path d="M46800 13930 l0 -760 95 0 95 0 0 760 0 760 -95 0 -95 0 0 -760z"/>
<path d="M42926 14634 c-299 -67 -546 -324 -610 -636 -21 -102 -21 -305 0
-406 63 -306 274 -538 564 -619 53 -15 99 -18 250 -16 119 0 205 6 240 15 l55
13 3 69 3 68 -28 -7 c-139 -36 -350 -45 -467 -20 -217 46 -391 214 -466 450
-17 53 -24 103 -27 211 -7 175 9 259 74 393 60 125 179 249 293 305 193 94
456 86 632 -20 118 -72 217 -216 259 -379 41 -161 33 -433 -18 -571 l-19 -49
-112 -3 -112 -3 0 411 0 410 -80 0 c-73 0 -80 -2 -80 -19 0 -19 -3 -18 -57 7
-50 23 -71 27 -153 27 -83 0 -103 -4 -153 -27 -108 -51 -195 -165 -228 -298
-18 -75 -16 -259 4 -337 31 -117 89 -200 175 -251 37 -21 61 -27 133 -30 105
-5 139 5 219 64 33 24 62 44 63 44 2 0 9 -25 16 -55 l13 -55 206 2 207 3 45
90 c73 146 85 208 84 425 -1 171 -3 192 -27 273 -47 153 -121 274 -224 367
-64 57 -187 121 -278 146 -87 23 -311 28 -399 8z m298 -534 l56 -21 0 -259 0
-258 -48 -30 c-72 -47 -116 -62 -177 -62 -101 0 -156 41 -192 142 -27 80 -25
282 5 358 56 142 191 191 356 130z"/>
<path d="M32670 14535 l0 -85 240 0 240 0 0 -640 0 -640 100 0 100 0 0 640 0
640 243 2 242 3 3 83 3 82 -586 0 -585 0 0 -85z"/>
<path d="M34241 14274 c-123 -33 -233 -126 -290 -247 -91 -191 -78 -511 28
-676 68 -105 174 -179 291 -201 226 -43 435 52 527 241 88 181 86 478 -5 658
-55 111 -176 203 -300 230 -71 15 -185 13 -251 -5z m241 -160 c87 -29 153
-120 179 -243 7 -33 9 -110 7 -190 -6 -159 -26 -228 -90 -297 -58 -63 -124
-87 -220 -82 -95 6 -156 39 -205 112 -47 69 -65 135 -70 262 -11 232 45 371
172 430 60 29 158 32 227 8z"/>
<path d="M36711 14279 c-105 -18 -204 -75 -252 -145 -63 -92 -72 -217 -23
-321 45 -94 115 -133 327 -183 70 -16 146 -39 168 -50 51 -27 73 -74 66 -144
-6 -67 -50 -109 -133 -126 -125 -26 -270 7 -398 91 -32 22 -60 39 -62 39 -2 0
-4 -47 -4 -103 0 -119 -9 -107 123 -153 194 -66 410 -49 532 44 128 96 167
254 101 399 -41 88 -111 127 -317 173 -152 35 -206 60 -232 110 -22 43 -18
111 10 148 77 104 339 91 489 -23 18 -14 35 -25 38 -25 3 0 6 44 6 99 l0 99
-47 20 c-113 48 -283 71 -392 51z"/>
<path d="M37585 14276 c-174 -42 -303 -184 -346 -381 -19 -87 -17 -295 4 -375
64 -242 233 -380 467 -380 233 0 410 143 467 377 23 94 22 306 -1 393 -65 246
-231 382 -466 379 -41 0 -98 -6 -125 -13z m269 -180 c61 -35 101 -92 129 -180
31 -102 31 -300 -1 -402 -42 -137 -123 -205 -254 -212 -149 -9 -248 66 -294
223 -24 80 -25 295 -2 378 45 161 136 230 294 224 67 -3 89 -8 128 -31z"/>
<path d="M40643 14280 c-117 -21 -227 -80 -287 -154 -88 -107 -128 -240 -128
-416 0 -188 40 -312 134 -415 93 -102 202 -145 366 -145 102 0 178 16 272 57
l60 26 0 97 c0 53 -3 99 -6 103 -3 3 -27 -11 -52 -30 -166 -127 -399 -127
-496 0 -70 92 -101 233 -85 384 9 90 18 122 48 181 91 178 309 208 513 72 33
-22 64 -40 69 -40 6 0 8 45 7 102 l-3 103 -65 26 c-121 48 -248 66 -347 49z"/>
<path d="M41591 14274 c-168 -45 -302 -193 -347 -380 -22 -93 -22 -278 0 -364
37 -146 119 -257 235 -319 88 -46 160 -62 291 -62 120 -1 215 19 333 70 l47
20 0 94 c0 52 -3 96 -6 100 -3 3 -24 -7 -46 -23 -58 -42 -174 -87 -253 -98
-244 -33 -407 89 -431 322 l-7 66 383 0 383 0 -6 109 c-8 129 -19 186 -52 256
-51 107 -139 181 -251 210 -72 19 -202 18 -273 -1z m228 -150 c94 -28 148
-104 167 -236 l6 -48 -291 0 -292 0 7 38 c16 93 70 177 140 218 78 46 171 56
263 28z"/>
<path d="M44480 14280 c-117 -19 -200 -61 -276 -142 -97 -102 -144 -242 -144
-428 0 -293 118 -476 349 -544 71 -21 224 -21 305 0 33 8 87 27 119 41 l57 26
0 104 c0 115 4 111 -66 58 -109 -83 -270 -111 -386 -66 -38 15 -105 77 -133
125 -67 115 -74 353 -14 493 24 57 90 127 142 151 115 54 276 25 406 -72 19
-14 39 -26 43 -26 4 0 8 45 8 101 l0 100 -56 25 c-114 50 -248 71 -354 54z"/>
<path d="M45411 14274 c-170 -46 -292 -180 -335 -371 -23 -104 -22 -288 4
-387 60 -237 229 -376 456 -376 242 0 414 138 475 380 9 34 14 109 14 195 0
153 -11 212 -56 313 -33 74 -119 168 -187 205 -102 55 -255 72 -371 41z m255
-168 c108 -50 162 -158 171 -347 12 -220 -45 -371 -162 -432 -63 -32 -177 -35
-243 -7 -65 28 -124 92 -153 169 -28 70 -38 287 -19 384 23 118 90 211 174
241 66 23 172 20 232 -8z"/>
<path d="M35240 14120 l0 -140 115 0 115 0 0 140 0 140 -115 0 -115 0 0 -140z"/>
<path d="M38460 13865 c0 -252 4 -413 11 -447 25 -119 91 -207 188 -251 36
-17 66 -21 141 -22 86 0 101 3 160 31 36 17 86 47 113 67 26 21 49 37 52 37 3
0 5 -25 5 -55 l0 -55 95 0 95 0 0 545 0 545 -95 0 -95 0 -2 -412 -3 -411 -55
-38 c-80 -56 -152 -81 -231 -81 -74 0 -115 17 -148 58 -41 52 -44 84 -48 492
l-4 392 -90 0 -89 0 0 -395z"/>
<path d="M39630 13715 l0 -545 95 0 95 0 0 389 0 390 38 31 c20 17 62 43 92
58 49 23 67 27 157 27 l103 0 0 98 0 97 -60 0 c-34 0 -84 -8 -114 -19 -54 -19
-160 -85 -185 -115 -24 -29 -31 -17 -31 59 l0 75 -95 0 -95 0 0 -545z"/>
<path d="M35240 13310 l0 -140 115 0 115 0 0 140 0 140 -115 0 -115 0 0 -140z"/>
<path d="M47350 13310 l0 -140 120 0 121 0 -3 138 -3 137 -117 3 -118 3 0
-141z"/>
<path d="M48020 13310 l0 -140 115 0 115 0 0 140 0 140 -115 0 -115 0 0 -140z"/>
<path d="M42300 11600 l0 -760 90 0 90 0 0 405 0 404 46 35 c78 60 151 90 225
94 84 5 130 -10 168 -53 46 -53 51 -100 51 -510 l0 -375 95 0 95 0 0 368 c0
202 -5 398 -10 436 -26 180 -131 292 -291 311 -104 13 -197 -17 -316 -102
l-63 -44 0 275 0 276 -90 0 -90 0 0 -760z"/>
<path d="M32810 11565 l0 -725 100 0 100 0 0 350 0 350 325 0 325 0 0 85 0 85
-325 0 -325 0 0 205 0 205 335 0 335 0 0 85 0 85 -435 0 -435 0 0 -725z"/>
<path d="M39480 12085 l0 -154 -62 -3 -63 -3 -3 -72 -3 -72 63 -3 63 -3 5
-370 c5 -363 5 -371 29 -423 29 -64 95 -125 158 -146 55 -19 202 -20 278 -2
l50 11 3 83 c2 45 -1 82 -5 82 -4 0 -26 -7 -48 -15 -61 -22 -173 -19 -212 5
-67 40 -68 46 -68 430 l0 345 168 3 167 2 0 75 0 75 -170 0 -170 0 0 155 0
155 -90 0 -90 0 0 -155z"/>
<path d="M34764 11945 c-165 -36 -281 -145 -340 -321 -36 -107 -44 -282 -20
-404 43 -211 162 -351 336 -396 89 -23 244 -15 323 15 119 47 225 165 268 299
30 92 38 315 15 421 -61 290 -299 448 -582 386z m243 -173 c55 -29 106 -89
134 -158 21 -54 23 -75 24 -229 0 -187 -11 -235 -75 -323 -64 -88 -228 -124
-334 -72 -112 54 -165 163 -173 356 -11 243 57 393 199 440 59 19 174 12 225
-14z"/>
<path d="M36029 11946 c-54 -14 -132 -62 -174 -106 l-30 -32 -5 59 -5 58 -92
3 -93 3 0 -546 0 -545 95 0 95 0 0 408 0 409 40 32 c77 62 146 91 215 91 75 0
120 -25 150 -85 19 -38 20 -63 23 -447 l3 -408 95 0 95 0 -2 407 -2 407 39 33
c143 122 310 126 369 8 19 -38 20 -63 23 -447 l3 -408 90 0 90 0 -3 438 -3
437 -29 63 c-36 78 -105 143 -173 163 -72 21 -178 17 -236 -9 -52 -23 -168
-110 -191 -144 -14 -20 -15 -19 -35 18 -41 79 -89 116 -177 139 -69 18 -112
18 -175 1z"/>
<path d="M40443 11945 c-182 -40 -324 -194 -368 -400 -19 -89 -19 -250 0 -338
39 -187 167 -324 346 -373 147 -39 316 -26 479 38 l80 31 0 99 c0 54 -2 98 -6
98 -3 0 -35 -18 -72 -40 -98 -59 -188 -85 -297 -85 -114 0 -178 21 -244 81
-57 51 -96 125 -106 199 -3 28 -9 62 -11 78 l-6 27 381 0 381 0 0 93 c-1 233
-82 393 -235 463 -95 44 -208 54 -322 29z m245 -167 c72 -34 117 -111 129
-218 l6 -60 -288 0 -288 0 6 49 c15 124 108 225 230 251 59 12 155 2 205 -22z"/>
<path d="M41555 11946 c-59 -15 -122 -46 -187 -92 l-47 -33 -3 52 -3 52 -93 3
-92 3 2 -748 3 -748 90 0 90 0 3 227 2 227 48 -24 c74 -37 133 -48 240 -43
121 4 189 34 273 118 113 112 163 257 163 470 -1 300 -103 484 -299 535 -69
18 -121 18 -190 1z m150 -185 c90 -40 139 -143 151 -314 15 -214 -47 -373
-171 -440 -60 -33 -216 -31 -300 3 l-60 25 -3 315 -2 315 48 33 c117 79 248
104 337 63z"/>
<path d="M43800 11950 c-265 -47 -430 -300 -407 -625 11 -160 51 -264 136
-357 150 -164 429 -202 703 -96 l78 29 0 100 c0 54 -2 99 -4 99 -2 0 -30 -16
-62 -35 -198 -120 -418 -124 -552 -11 -63 54 -112 168 -112 264 l0 42 375 0
375 0 0 105 c0 176 -33 277 -121 370 -97 102 -245 144 -409 115z m212 -167
c77 -31 138 -136 138 -240 l0 -43 -285 0 -285 0 0 23 c0 45 30 125 65 170 41
53 104 94 166 107 55 11 150 3 201 -17z"/>
<path d="M44896 11949 c-53 -13 -131 -53 -193 -100 l-53 -40 0 61 0 60 -90 0
-90 0 0 -545 0 -545 90 0 90 0 0 408 0 407 63 43 c94 64 157 85 244 80 111 -5
153 -46 172 -168 6 -37 11 -219 11 -417 l0 -353 90 0 91 0 -3 428 c-3 416 -4
428 -26 483 -63 158 -224 238 -396 198z"/>
<path d="M38830 11936 c-154 -45 -246 -149 -258 -291 -10 -126 52 -236 161
-289 29 -14 113 -40 187 -57 207 -49 244 -74 244 -175 1 -100 -61 -145 -207
-152 -76 -4 -100 -1 -172 23 -47 15 -113 47 -150 71 l-65 44 0 -105 c0 -122
-8 -113 140 -160 100 -32 245 -43 335 -26 133 25 254 116 289 218 23 68 21
187 -5 243 -45 99 -106 136 -315 185 -80 19 -163 44 -184 55 -53 27 -73 68
-68 138 4 46 10 60 36 83 102 91 306 72 485 -46 l27 -17 0 99 c0 114 7 106
-115 145 -77 25 -298 34 -365 14z"/>
<path d="M33800 11385 l0 -545 90 0 90 0 0 384 0 384 37 32 c20 18 67 47 103
64 59 28 74 31 162 31 l98 0 0 92 c0 91 -1 93 -25 99 -75 19 -204 -27 -310
-110 l-60 -47 -3 80 -3 81 -89 0 -90 0 0 -545z"/>
<path d="M37407 11923 c-4 -3 -7 -66 -7 -140 l0 -133 120 0 120 0 0 140 0 140
-113 0 c-63 0 -117 -3 -120 -7z"/>
<path d="M37407 11114 c-4 -4 -7 -67 -7 -141 l0 -133 120 0 121 0 -3 138 -3
137 -111 3 c-60 1 -113 -1 -117 -4z"/>
<path d="M45690 10980 l0 -140 115 0 116 0 -3 138 -3 137 -112 3 -113 3 0
-141z"/>
<path d="M46357 11114 c-4 -4 -7 -67 -7 -141 l0 -133 120 0 121 0 -3 138 -3
137 -111 3 c-60 1 -113 -1 -117 -4z"/>
<path d="M47020 10980 l0 -140 115 0 115 0 0 140 0 140 -115 0 -115 0 0 -140z"/>
<path d="M35132 9263 l3 -758 85 0 c81 0 85 1 88 23 2 12 5 22 7 22 2 0 31
-13 65 -29 234 -111 484 -22 599 214 50 103 65 181 65 340 0 160 -14 229 -69
342 -66 135 -175 203 -324 203 -101 0 -164 -20 -253 -79 l-73 -49 -3 264 -2
264 -95 0 -95 0 2 -757z m553 176 c97 -27 158 -142 171 -323 13 -184 -32 -348
-114 -416 -81 -67 -232 -79 -357 -29 l-60 24 -3 317 -2 317 32 24 c108 81 233
113 333 86z"/>
<path d="M40830 9070 l0 -950 255 0 255 0 0 70 0 70 -170 0 -170 0 0 810 0
810 168 2 167 3 3 68 3 67 -256 0 -255 0 0 -950z"/>
<path d="M43470 9260 l0 -760 90 0 90 0 0 228 0 228 38 36 37 36 203 -264 204
-264 119 0 c113 0 119 1 107 18 -7 10 -121 153 -254 318 l-241 300 219 227
220 227 -113 0 -114 -1 -210 -225 -210 -226 -3 441 -2 441 -90 0 -90 0 0 -760z"/>
<path d="M45930 9950 l0 -70 170 0 170 0 0 -810 0 -810 -170 0 -170 0 0 -70 0
-70 255 0 255 0 0 950 0 950 -255 0 -255 0 0 -70z"/>
<path d="M33083 9965 c-85 -23 -153 -63 -213 -124 -96 -96 -133 -210 -111
-343 13 -81 38 -133 89 -190 70 -77 137 -107 369 -164 80 -19 166 -45 190 -56
188 -88 154 -363 -52 -424 -78 -22 -210 -22 -295 0 -83 23 -180 70 -251 124
-31 23 -59 42 -63 42 -4 0 -5 -55 -4 -122 l3 -122 95 -37 c144 -57 237 -72
398 -67 111 4 148 9 195 27 88 34 175 98 217 160 59 85 75 141 75 256 0 87 -4
107 -27 156 -34 74 -95 134 -171 169 -34 16 -143 50 -242 76 -99 25 -196 54
-216 65 -112 57 -150 208 -78 314 28 40 89 81 144 97 60 18 200 14 269 -6 73
-22 168 -69 217 -107 20 -16 40 -29 43 -29 3 0 6 52 6 115 l0 114 -29 16 c-16
8 -69 26 -118 41 -73 22 -113 27 -238 30 -112 3 -163 0 -202 -11z"/>
<path d="M36390 9875 l0 -95 105 0 105 0 0 95 0 95 -105 0 -105 0 0 -95z"/>
<path d="M45460 9875 l0 -95 105 0 106 0 -3 93 -3 92 -102 3 -103 3 0 -96z"/>
<path d="M38810 9750 l0 -160 -60 0 -60 0 0 -75 0 -75 59 0 60 0 3 -362 c4
-408 6 -419 78 -501 59 -67 123 -91 240 -91 52 0 119 5 148 13 l52 13 0 85 c0
77 -2 84 -17 78 -10 -5 -45 -15 -77 -23 -48 -13 -69 -13 -114 -4 -30 6 -64 20
-75 29 -46 42 -50 69 -55 426 l-5 337 172 0 171 0 0 75 0 75 -167 2 -168 3 -3
158 -3 157 -89 0 -90 0 0 -160z"/>
<path d="M37060 9598 c-118 -41 -218 -133 -274 -252 -41 -86 -58 -178 -59
-306 0 -191 43 -311 147 -416 100 -99 222 -144 396 -144 107 0 183 16 300 61
l80 30 0 100 c0 54 -3 99 -6 99 -3 0 -18 -8 -32 -19 -15 -10 -54 -32 -88 -49
-219 -110 -464 -70 -559 91 -26 45 -55 151 -55 205 l0 32 382 0 381 0 -6 113
c-7 121 -25 204 -58 269 -35 68 -113 142 -182 174 -55 25 -75 29 -182 31 -104
3 -129 0 -185 -19z m261 -140 c89 -26 147 -109 164 -235 l7 -53 -291 0 c-244
0 -291 2 -291 14 0 33 40 139 64 171 34 45 86 84 133 101 47 16 163 18 214 2z"/>
<path d="M38125 9610 c-229 -49 -366 -213 -395 -472 -24 -213 35 -425 150
-532 150 -140 422 -167 629 -61 l51 25 0 100 c0 55 -3 100 -6 100 -4 0 -28
-16 -54 -35 -26 -19 -74 -47 -106 -63 -52 -24 -71 -27 -159 -27 -117 0 -155
15 -222 87 -74 81 -110 235 -92 396 16 146 72 244 169 297 49 27 64 30 140 30
98 -1 161 -22 259 -85 34 -22 64 -40 67 -40 2 0 3 46 2 102 l-3 103 -30 14
c-84 40 -173 63 -265 66 -52 2 -113 0 -135 -5z"/>
<path d="M41845 9606 c-225 -55 -336 -267 -240 -462 46 -93 107 -128 305 -175
140 -33 173 -44 212 -71 33 -23 52 -84 43 -139 -27 -159 -347 -166 -552 -13
-17 13 -34 24 -37 24 -3 0 -6 -47 -6 -104 l0 -104 88 -32 c112 -41 164 -50
276 -50 153 0 248 35 334 121 57 58 82 128 82 227 0 64 -5 88 -26 130 -47 95
-105 127 -306 173 -161 36 -211 57 -238 101 -26 42 -26 113 -1 154 64 104 305
101 474 -6 26 -16 50 -30 52 -30 3 0 5 44 5 99 l0 99 -57 21 c-132 49 -298 64
-408 37z"/>
<path d="M42640 9605 c-41 -7 -93 -17 -115 -22 l-40 -9 -3 -96 -3 -96 85 29
c123 41 234 55 331 42 84 -12 116 -29 151 -81 22 -33 41 -130 27 -142 -4 -4
-66 -13 -138 -19 -284 -26 -413 -77 -492 -194 -82 -121 -65 -324 36 -440 42
-47 140 -95 211 -103 105 -12 230 27 326 100 26 20 51 36 55 36 5 0 9 -25 9
-55 l0 -55 90 0 90 0 0 392 c0 238 -4 416 -11 454 -21 123 -101 212 -222 250
-71 22 -289 27 -387 9z m440 -684 l0 -149 -47 -35 c-103 -74 -195 -104 -288
-92 -100 12 -155 68 -162 166 -6 87 21 142 94 185 68 41 205 69 356 73 l47 1
0 -149z"/>
<path d="M44640 9605 c-41 -7 -93 -17 -115 -22 l-40 -9 -3 -96 -3 -96 85 29
c123 41 234 55 331 42 84 -12 116 -29 151 -81 22 -33 41 -130 27 -142 -4 -4
-66 -13 -138 -19 -284 -26 -413 -77 -492 -194 -82 -121 -65 -324 36 -440 42
-47 140 -95 211 -103 105 -12 230 27 326 100 26 20 51 36 55 36 5 0 9 -25 9
-55 l0 -55 90 0 90 0 0 392 c0 238 -4 416 -11 454 -21 123 -101 212 -222 250
-71 22 -289 27 -387 9z m440 -684 l0 -149 -47 -35 c-103 -74 -195 -104 -288
-92 -100 12 -155 68 -162 166 -6 87 21 142 94 185 68 41 205 69 356 73 l47 1
0 -149z"/>
<path d="M33962 9168 c3 -416 3 -424 26 -481 36 -89 78 -137 155 -176 61 -31
76 -35 150 -35 105 0 166 20 262 89 l75 54 0 -60 0 -60 93 3 92 3 3 543 2 542
-95 0 -95 0 0 -405 0 -406 -27 -24 c-16 -13 -61 -41 -102 -62 -69 -35 -80 -38
-160 -38 -73 0 -91 3 -117 22 -74 53 -84 117 -84 566 l0 347 -91 0 -90 0 3
-422z"/>
<path d="M36220 9515 l0 -75 95 0 95 0 0 -508 c0 -563 -2 -587 -60 -636 -42
-34 -128 -51 -207 -39 l-63 9 0 -82 0 -83 56 -7 c208 -26 371 54 435 212 l24
59 3 613 3 612 -191 0 -190 0 0 -75z"/>
<path d="M39570 9455 l0 -135 115 0 115 0 0 135 0 135 -115 0 -115 0 0 -135z"/>
<path d="M45470 9045 l0 -545 90 0 90 0 0 545 0 545 -90 0 -90 0 0 -545z"/>
<path d="M39570 8640 l0 -140 115 0 115 0 0 140 0 140 -115 0 -115 0 0 -140z"/>
<path d="M46850 8640 l0 -141 118 3 117 3 3 138 3 137 -121 0 -120 0 0 -140z"/>
<path d="M47520 8640 l0 -140 115 0 115 0 0 140 0 140 -115 0 -115 0 0 -140z"/>
<path d="M48190 8640 l0 -140 115 0 115 0 0 140 0 140 -115 0 -115 0 0 -140z"/>
<path d="M37300 6930 l0 -760 95 0 95 0 0 760 0 760 -95 0 -95 0 0 -760z"/>
<path d="M39970 6930 l0 -760 90 0 90 0 0 409 0 408 60 42 c175 123 334 117
400 -14 l25 -50 3 -397 3 -398 90 0 90 0 -3 428 c-3 423 -3 428 -27 486 -29
73 -89 139 -156 174 -44 23 -62 26 -150 27 -96 0 -104 -2 -175 -37 -41 -20
-94 -53 -117 -73 l-43 -37 0 276 0 276 -90 0 -90 0 0 -760z"/>
<path d="M44671 7563 c-139 -442 -521 -1690 -521 -1700 0 -10 22 -13 80 -13
44 0 80 2 80 5 0 5 530 1719 555 1793 l14 42 -84 0 -84 0 -40 -127z"/>
<path d="M36790 7535 l0 -95 105 0 105 0 0 95 0 95 -105 0 -105 0 0 -95z"/>
<path d="M32810 6894 l0 -726 283 5 c322 6 371 13 505 78 121 58 213 151 276
280 69 141 81 197 81 374 -1 169 -14 233 -70 350 -68 141 -177 245 -318 304
-120 49 -216 61 -503 61 l-254 0 0 -726z m574 541 c138 -38 249 -119 304 -223
54 -102 67 -162 67 -317 0 -107 -5 -154 -19 -200 -56 -187 -179 -300 -369
-339 -48 -10 -128 -16 -217 -16 l-140 0 0 561 0 562 158 -6 c95 -4 180 -13
216 -22z"/>
<path d="M35140 7415 l0 -155 -60 0 -60 0 0 -75 0 -75 60 0 60 0 0 -302 c1
-330 8 -422 41 -498 28 -66 92 -122 165 -145 45 -14 76 -17 153 -12 53 3 113
11 134 17 l37 11 0 79 c0 51 -4 80 -11 80 -6 0 -36 -7 -67 -16 -66 -19 -160
-14 -198 11 -14 9 -34 35 -45 58 -17 39 -19 70 -19 380 l0 337 170 0 170 0 0
75 0 75 -170 0 -170 0 0 155 0 155 -95 0 -95 0 0 -155z"/>
<path d="M41140 7415 l0 -155 -60 0 -60 0 0 -75 0 -75 60 0 60 0 0 -302 c1
-330 8 -422 41 -498 28 -66 92 -122 165 -145 45 -14 76 -17 153 -12 53 3 113
11 134 17 l37 11 0 79 c0 51 -4 80 -11 80 -6 0 -36 -7 -67 -16 -66 -19 -160
-14 -198 11 -14 9 -34 35 -45 58 -17 39 -19 70 -19 380 l0 337 170 0 170 0 0
75 0 75 -170 0 -170 0 0 155 0 155 -95 0 -95 0 0 -155z"/>
<path d="M41810 7415 l0 -155 -60 0 -60 0 0 -75 0 -75 59 0 60 0 3 -362 c3
-349 4 -365 26 -419 27 -68 80 -125 141 -152 59 -26 192 -33 281 -15 l65 14 3
82 c2 45 0 82 -4 82 -3 0 -31 -7 -61 -16 -72 -21 -163 -15 -201 12 -15 11 -36
38 -47 60 -18 36 -19 62 -20 374 l0 335 168 3 167 2 0 75 0 75 -167 2 -168 3
-3 153 -3 152 -89 0 -90 0 0 -155z"/>
<path d="M34435 7277 c-86 -22 -147 -58 -216 -126 -110 -110 -159 -247 -159
-444 0 -297 142 -495 395 -547 139 -29 288 -13 453 48 l72 27 0 103 0 104 -32
-21 c-120 -79 -226 -113 -347 -113 -153 1 -253 57 -310 175 -29 58 -57 190
-45 209 3 4 174 8 380 8 l374 0 0 83 c0 187 -44 311 -141 402 -79 72 -144 97
-274 101 -60 2 -120 -2 -150 -9z m250 -164 c75 -39 119 -111 131 -216 l7 -57
-290 0 -290 0 8 47 c20 107 96 201 191 235 70 25 185 20 243 -9z"/>
<path d="M36020 7279 c-36 -4 -98 -15 -137 -24 l-73 -16 0 -96 c0 -75 3 -94
13 -90 112 43 191 60 297 64 133 6 185 -5 234 -47 34 -31 56 -88 56 -149 0
-33 24 -27 -210 -51 -117 -12 -231 -40 -292 -71 -69 -35 -135 -105 -159 -168
-27 -70 -30 -203 -6 -269 90 -240 378 -296 610 -119 26 21 49 37 52 37 3 0 5
-25 5 -55 l0 -55 90 0 90 0 0 414 c0 391 -1 418 -21 481 -54 174 -253 252
-549 214z m390 -688 l0 -150 -42 -34 c-78 -63 -144 -90 -233 -94 -69 -4 -86
-1 -125 19 -111 57 -132 209 -42 299 47 45 122 74 237 88 50 6 101 13 115 15
14 2 40 4 58 5 l32 1 0 -149z"/>
<path d="M38040 7279 c-130 -22 -251 -116 -286 -221 -22 -67 -16 -187 13 -243
49 -93 127 -137 327 -185 203 -48 236 -71 236 -167 0 -71 -19 -106 -74 -133
-58 -28 -174 -37 -247 -20 -68 16 -164 59 -223 99 -24 17 -47 31 -50 31 -3 0
-6 -47 -6 -104 l0 -104 63 -25 c114 -46 185 -60 302 -60 131 0 199 17 279 71
106 71 153 170 144 301 -6 78 -32 135 -84 180 -50 45 -96 63 -254 100 -213 50
-254 80 -253 182 1 89 65 139 188 147 113 7 223 -26 333 -98 l32 -22 0 101 0
102 -42 18 c-109 46 -290 69 -398 50z"/>
<path d="M42858 7271 c-60 -20 -111 -47 -170 -94 l-38 -29 0 56 0 56 -90 0
-90 0 0 -745 0 -745 90 0 90 0 0 225 c0 124 1 225 3 225 2 0 26 -11 55 -25
148 -71 338 -58 457 33 152 115 223 304 212 562 -10 240 -96 406 -246 473 -65
29 -197 33 -273 8z m194 -182 c47 -24 93 -86 114 -153 9 -28 18 -104 21 -168
9 -180 -18 -285 -93 -367 -46 -51 -78 -69 -150 -82 -67 -12 -167 1 -242 32
l-52 22 0 311 0 312 63 40 c60 40 126 69 177 78 43 8 121 -4 162 -25z"/>
<path d="M36800 6715 l0 -545 95 0 95 0 0 545 0 545 -95 0 -95 0 0 -545z"/>
<path d="M38740 7120 l0 -140 115 0 115 0 0 140 0 140 -115 0 -115 0 0 -140z"/>
<path d="M43740 7120 l0 -140 115 0 115 0 0 140 0 140 -115 0 -115 0 0 -140z"/>
<path d="M38740 6310 l0 -140 115 0 115 0 0 140 0 140 -115 0 -115 0 0 -140z"/>
<path d="M43740 6310 l0 -140 115 0 115 0 0 140 0 140 -115 0 -115 0 0 -140z"/>
<path d="M45190 6310 l0 -140 115 0 115 0 0 140 0 140 -115 0 -115 0 0 -140z"/>
<path d="M45850 6310 l0 -140 120 0 121 0 -3 138 -3 137 -117 3 -118 3 0 -141z"/>
<path d="M46520 6310 l0 -140 115 0 115 0 0 140 0 140 -115 0 -115 0 0 -140z"/>
<path d="M32840 3945 l0 -105 100 0 100 0 0 105 0 105 -100 0 -100 0 0 -105z"/>
<path d="M33380 3945 l0 -105 100 0 100 0 0 105 0 105 -100 0 -100 0 0 -105z"/>
<path d="M33930 3945 l0 -105 100 0 100 0 0 105 0 105 -100 0 -100 0 0 -105z"/>
<path d="M12770 20600 l0 -1010 125 0 125 0 0 1010 0 1010 -125 0 -125 0 0
-1010z"/>
<path d="M12100 21069 c-90 -8 -145 -22 -225 -59 -128 -58 -216 -145 -286
-284 -69 -135 -83 -203 -83 -416 0 -160 3 -196 22 -265 81 -293 263 -451 561
-485 146 -16 303 11 454 80 l67 30 0 135 c0 86 -4 135 -10 135 -6 0 -34 -19
-63 -41 -65 -52 -173 -105 -245 -120 -31 -6 -97 -9 -147 -7 -74 3 -102 9 -148
31 -107 53 -185 159 -224 307 -23 88 -23 309 0 403 36 147 115 255 225 309 54
27 79 33 153 36 75 4 101 0 171 -21 82 -26 221 -100 247 -131 8 -9 20 -16 27
-16 11 0 14 27 14 136 l0 135 -62 29 c-145 65 -295 92 -448 79z"/>
<path d="M13823 21065 c-252 -55 -430 -264 -479 -562 -21 -130 -14 -344 15
-458 34 -133 92 -237 180 -325 123 -123 245 -170 441 -170 195 0 317 47 441
170 117 115 175 246 200 455 15 115 5 295 -21 405 -61 255 -235 437 -465 485
-86 18 -229 18 -312 0z m320 -228 c108 -49 180 -153 214 -308 24 -111 21 -350
-5 -451 -40 -149 -97 -230 -200 -280 -63 -31 -73 -33 -172 -33 -99 0 -109 2
-172 33 -105 51 -166 141 -204 297 -23 94 -24 340 -1 442 39 175 134 287 274
323 69 17 204 6 266 -23z"/>
<path d="M15278 21069 c-134 -17 -247 -75 -331 -169 -116 -129 -129 -348 -31
-498 64 -97 161 -145 409 -201 280 -63 325 -101 313 -263 -4 -57 -7 -64 -49
-103 -37 -35 -58 -45 -117 -59 -179 -40 -370 3 -549 124 -41 28 -76 50 -78 50
-3 0 -5 -63 -5 -139 l0 -139 73 -30 c409 -169 807 -94 939 176 32 65 33 71 33
192 0 117 -2 129 -28 182 -33 67 -97 127 -173 163 -30 14 -140 45 -245 70
-226 53 -282 78 -316 145 -45 87 -21 195 55 245 142 93 410 60 609 -76 23 -16
44 -29 47 -29 3 0 6 58 6 130 l0 130 -39 20 c-63 32 -201 68 -304 79 -107 12
-123 12 -219 0z"/>
<path d="M16510 21064 c-171 -37 -337 -169 -419 -335 -68 -139 -84 -216 -85
-414 -1 -204 14 -283 80 -414 61 -122 145 -206 268 -267 121 -59 208 -77 376
-77 153 0 247 19 404 82 l91 36 3 133 c2 91 -1 132 -8 132 -6 0 -26 -11 -43
-24 -57 -44 -194 -106 -278 -128 -109 -27 -285 -22 -369 10 -163 64 -263 213
-277 415 l-6 77 507 0 506 0 0 58 c0 31 -5 109 -10 172 -33 364 -237 562 -579
559 -53 0 -125 -7 -161 -15z m265 -199 c142 -37 217 -142 240 -332 l6 -53
-386 0 -385 0 0 23 c0 32 28 124 52 170 44 88 143 168 237 193 64 18 166 17
236 -1z"/>
<path d="M16500 16800 c0 -263 -2 -310 -14 -310 -8 0 -17 4 -20 9 -3 5 -45 23
-94 41 -68 25 -109 33 -187 37 -125 7 -192 -6 -297 -59 -257 -129 -397 -454
-360 -835 23 -233 81 -382 192 -493 102 -102 195 -139 351 -140 133 0 249 43
361 134 31 25 59 46 62 46 3 0 6 -31 6 -70 l0 -70 120 0 120 0 0 1010 0 1010
-120 0 -120 0 0 -310z m-150 -464 c30 -8 76 -24 103 -36 l47 -21 -2 -422 -3
-421 -60 -43 c-190 -135 -404 -150 -525 -37 -90 85 -131 223 -132 444 0 221
37 343 133 445 55 58 110 90 180 105 56 12 188 4 259 -14z"/>
<path d="M13370 16564 c-36 -7 -102 -32 -148 -54 -184 -91 -314 -283 -352
-522 -19 -116 -8 -363 20 -458 79 -273 277 -434 582 -471 162 -20 323 5 512
77 l96 37 0 133 c0 74 -3 134 -6 134 -3 0 -26 -14 -50 -31 -69 -47 -201 -105
-281 -123 -91 -20 -231 -21 -308 -1 -194 51 -315 213 -327 440 l-3 60 504 3
503 2 -5 158 c-3 99 -11 179 -21 217 -58 215 -202 358 -401 400 -87 18 -229
18 -315 -1z m311 -216 c62 -28 111 -74 139 -129 27 -52 50 -143 50 -196 l0
-43 -380 0 -380 0 0 29 c0 85 69 221 141 281 83 68 158 90 285 86 71 -2 103
-9 145 -28z"/>
<path d="M14610 16569 c-47 -6 -132 -20 -190 -32 l-105 -22 -3 -128 c-2 -102
0 -128 10 -124 65 27 216 70 291 83 107 19 267 14 334 -10 100 -36 144 -98
151 -217 l4 -76 -108 -7 c-364 -24 -548 -76 -672 -190 -91 -85 -132 -187 -132
-331 0 -194 87 -343 248 -422 72 -36 82 -38 188 -42 163 -5 266 30 408 139
l66 51 0 -76 0 -75 126 0 126 0 -4 553 c-4 483 -7 559 -22 612 -44 155 -148
251 -318 294 -90 23 -284 33 -398 20z m490 -924 l0 -205 -62 -46 c-109 -81
-223 -124 -327 -124 -57 0 -152 28 -188 56 -56 43 -78 96 -78 194 0 102 22
153 88 201 97 72 191 93 555 128 9 1 12 -46 12 -204z"/>
<path d="M12120 15815 l0 -725 120 0 120 0 0 514 0 514 48 41 c62 53 171 107
250 122 38 7 97 10 148 6 l85 -6 -3 127 -3 127 -73 3 c-125 5 -232 -38 -377
-152 l-70 -55 -3 105 -3 104 -119 0 -120 0 0 -725z"/>
<path d="M14860 12410 l0 -130 140 0 140 0 0 130 0 130 -140 0 -140 0 0 -130z"/>
<path d="M15557 12453 c-4 -3 -7 -98 -7 -210 l0 -203 -80 0 -80 0 0 -100 0
-100 79 0 79 0 5 -467 c5 -499 7 -525 58 -625 87 -170 318 -231 602 -157 l37
10 0 109 c0 61 -3 110 -7 110 -5 0 -33 -10 -63 -22 -41 -16 -77 -21 -145 -22
-117 -1 -167 24 -205 99 l-25 50 -3 458 -3 457 226 0 225 0 0 100 0 100 -225
0 -225 0 0 210 0 210 -118 0 c-65 0 -122 -3 -125 -7z"/>
<path d="M16775 12061 c-94 -24 -136 -43 -210 -96 -166 -118 -261 -299 -286
-547 -14 -127 -4 -269 26 -383 46 -175 170 -329 325 -403 117 -55 216 -76 370
-76 145 -1 230 16 393 76 l107 40 0 134 c0 74 -3 134 -6 134 -4 0 -31 -16 -61
-36 -74 -49 -172 -92 -261 -115 -89 -23 -243 -25 -317 -5 -195 52 -310 201
-331 431 l-7 75 508 0 508 0 -6 148 c-9 243 -56 373 -176 493 -74 74 -146 113
-249 135 -91 19 -241 17 -327 -5z m323 -211 c106 -46 170 -151 188 -309 l7
-61 -387 0 -387 0 6 38 c30 175 137 306 285 347 80 22 219 15 288 -15z"/>
<path d="M11740 12033 c-1 -5 82 -331 182 -726 l183 -717 115 2 115 3 170 540
c94 297 173 547 176 555 4 9 13 -8 22 -40 9 -30 88 -280 176 -555 l158 -500
117 -3 c64 -1 116 0 116 3 0 3 81 324 180 714 99 390 180 714 180 720 0 7 -40
11 -119 11 -105 0 -120 -2 -125 -17 -3 -10 -57 -261 -121 -557 -63 -297 -116
-541 -118 -542 -1 -1 -81 248 -177 554 l-175 557 -102 3 -102 3 -30 -98 c-17
-54 -93 -305 -171 -557 -77 -253 -142 -461 -143 -462 -1 -2 -58 243 -127 544
-68 301 -125 553 -128 560 -3 9 -38 12 -128 12 -68 0 -124 -3 -124 -7z"/>
<path d="M13870 11315 l0 -725 125 0 125 0 0 518 0 517 54 43 c116 90 234 128
379 119 l88 -5 -3 127 -3 126 -95 -1 c-86 0 -103 -3 -163 -31 -74 -35 -138
-76 -209 -136 l-48 -39 0 106 0 106 -125 0 -125 0 0 -725z"/>
<path d="M14880 11315 l0 -725 120 0 120 0 0 725 0 725 -120 0 -120 0 0 -725z"/>
</g>
</svg>
