<svg width="832" height="378" xmlns="http://www.w3.org/2000/svg" xmlns:xlink="http://www.w3.org/1999/xlink" overflow="hidden"><defs><clipPath id="clip0"><rect x="0" y="0" width="832" height="378"/></clipPath></defs><g clip-path="url(#clip0)"><rect x="0" y="0" width="832" height="377.773" fill="#FFFFFF"/><path d="M276 99.4402 358.5 47.9711 441 99.4402 358.5 150.909Z" stroke="#000000" stroke-width="2.0012" stroke-miterlimit="8" fill="#FFFFFF" fill-rule="evenodd"/><text font-family="Calibri,Calibri_MSFontService,sans-serif" font-weight="400" font-size="16" transform="matrix(1 0 0 0.999399 327.911 105)">x <tspan font-size="16" x="10.6731" y="0">%2 ==</tspan><tspan font-size="16" x="53.6989" y="0">0</tspan></text><path d="M360.001 22.4865 360.001 40.8175 356.999 40.8175 356.999 22.4865ZM363.003 39.3175 358.5 48.3175 353.997 39.3175Z"/><path d="M360.001 249.33 360.446 282.221 357.444 282.262 356.999 249.37ZM363.427 280.681 359.047 289.741 354.423 280.802Z"/><rect x="435" y="169.898" width="197" height="56.9658" stroke="#000000" stroke-width="2.0012" stroke-miterlimit="8" fill="#FFFFFF"/><text font-family="Calibri,Calibri_MSFontService,sans-serif" font-weight="400" font-size="16" transform="matrix(1 0 0 0.999399 455.465 203)">Print(‘<tspan font-size="16" x="39.8773" y="0">το </tspan><tspan font-size="16" x="58.0949" y="0">x </tspan><tspan font-size="16" x="68.768" y="0">είναι άρτιος’)</tspan></text><path d="M441.5 98.9396 535.129 98.9396 535.129 162.726 532.127 162.726 532.127 100.44 533.628 101.94 441.5 101.94ZM538.131 161.226 533.628 170.226 529.125 161.226Z"/><text font-family="Calibri,Calibri_MSFontService,sans-serif" font-weight="400" font-size="16" transform="matrix(1 0 0 0.999399 465.011 90)">Ναι</text><rect x="89" y="169.898" width="197" height="56.9658" stroke="#000000" stroke-width="2.0012" stroke-miterlimit="8" fill="#FFFFFF"/><text font-family="Calibri,Calibri_MSFontService,sans-serif" font-weight="400" font-size="16" transform="matrix(1 0 0 0.999399 102.712 203)">Print(‘<tspan font-size="16" x="39.8773" y="0">το </tspan><tspan font-size="16" x="58.0949" y="0">x </tspan>είναι περιττός’)</text><path d="M0-1.5 90.5334-1.5 90.5334 62.2866 87.5334 62.2866 87.5334 0 89.0334 1.5 0 1.5ZM93.5334 60.7866 89.0334 69.7866 84.5334 60.7866Z" transform="matrix(-1.0006 1.22465e-16 1.22538e-16 1 276.587 100.44)"/><text font-family="Calibri,Calibri_MSFontService,sans-serif" font-weight="400" font-size="16" transform="matrix(1 0 0 0.999399 219.319 90)">Όχι</text><path d="M187.5 227.363 187.5 251.363 533.543 251.363 533.543 227.363" stroke="#000000" stroke-width="3" stroke-miterlimit="8" fill="none" fill-rule="evenodd"/></g></svg>