<svg width="605" height="378" xmlns="http://www.w3.org/2000/svg" xmlns:xlink="http://www.w3.org/1999/xlink" overflow="hidden"><defs><clipPath id="clip0"><rect x="0" y="0" width="605" height="378"/></clipPath></defs><g clip-path="url(#clip0)"><rect x="0" y="0" width="605" height="377.792" fill="#FFFFFF"/><path d="M76 130.928 169.5 86.952 263 130.928 169.5 174.904Z" stroke="#000000" stroke-width="2.0011" stroke-miterlimit="8" fill="#FFFFFF" fill-rule="evenodd"/><text font-family="Calibri,Calibri_MSFontService,sans-serif" font-weight="400" font-size="19" transform="matrix(1 0 0 0.999449 152.066 136)">x &gt; 0</text><path d="M172.001 52.4711 172.001 79.2567 168.999 79.2568 168.999 52.4711ZM175.003 77.7567 170.5 86.7567 165.998 77.7568Z"/><path d="M1.49993-0.0139756 2.89956 150.201-0.100312 150.229-1.49993 0.0139756ZM5.88545 148.673 1.4695 157.714-3.11416 148.757Z" transform="matrix(-1.00055 0 0 1 169.97 175.403)"/><rect x="278" y="174.904" width="261" height="77.957" stroke="#000000" stroke-width="2.0011" stroke-miterlimit="8" fill="#FFFFFF"/><text font-family="Calibri,Calibri_MSFontService,sans-serif" font-weight="400" font-size="19" transform="matrix(1 0 0 0.999449 318.193 220)">Print(‘<tspan font-size="19" x="46.8525" y="0">το </tspan>x <tspan font-size="19" x="80.2242" y="0">είναι θετικό’)</tspan></text><path d="M263.5 129.928 410.305 129.928 410.305 168.009 407.304 168.009 407.304 131.428 408.805 132.928 263.5 132.928ZM413.307 166.509 408.805 175.509 404.302 166.509Z"/><path d="M410.378 253.36 410.378 282.289 176.004 282.289 176.004 279.289 408.877 279.289 407.376 280.789 407.376 253.36ZM177.505 285.289 168.5 280.789 177.505 276.289Z"/><text font-family="Calibri,Calibri_MSFontService,sans-serif" font-weight="400" font-size="19" transform="matrix(1 0 0 0.999449 319.54 119)">Ναι</text></g></svg>