<svg width="832" height="378" xmlns="http://www.w3.org/2000/svg" xmlns:xlink="http://www.w3.org/1999/xlink" overflow="hidden"><defs><clipPath id="clip0"><rect x="0" y="0" width="832" height="378"/></clipPath></defs><g clip-path="url(#clip0)"><rect x="0" y="0" width="832" height="377.773" fill="#FFFFFF"/><path d="M225 90.9453 301 58.9645 377 90.9453 301 122.926Z" stroke="#000000" stroke-width="2.0012" stroke-miterlimit="8" fill="#FFFFFF" fill-rule="evenodd"/><text font-family="Calibri,Calibri_MSFontService,sans-serif" font-weight="400" font-size="16" transform="matrix(1 0 0 0.999399 282.266 96)">x <tspan font-size="16" x="10.6731" y="0">== </tspan><tspan font-size="16" x="30.3516" y="0">y</tspan></text><path d="M303.001 33.4799 303.001 51.8109 299.999 51.8109 299.999 33.4799ZM306.003 50.3108 301.5 59.3109 296.997 50.3109Z"/><rect x="591" y="171.897" width="198" height="57.9651" stroke="#000000" stroke-width="2.0012" stroke-miterlimit="8" fill="#FFFFFF"/><text font-family="Calibri,Calibri_MSFontService,sans-serif" font-weight="400" font-size="16" transform="matrix(1 0 0 0.999399 626.244 206)">Print<tspan font-size="16" x="31.0386" y="0">(‘</tspan><tspan font-size="16" x="39.8773" y="0">μεγαλύτερο’)</tspan></text><path d="M377.5 89.945 506.077 89.945 506.077 109.391 503.076 109.391 503.076 91.445 504.576 92.945 377.5 92.945ZM509.079 107.891 504.576 116.891 500.074 107.891Z"/><text font-family="Calibri,Calibri_MSFontService,sans-serif" font-weight="400" font-size="16" transform="matrix(1 0 0 0.999399 148.61 86)">Ναι</text><rect x="225" y="172.896" width="197" height="57.9651" stroke="#000000" stroke-width="2.0012" stroke-miterlimit="8" fill="#FFFFFF"/><text font-family="Calibri,Calibri_MSFontService,sans-serif" font-weight="400" font-size="16" transform="matrix(1 0 0 0.999399 265.29 207)">Print<tspan font-size="16" x="31.0386" y="0">(‘</tspan><tspan font-size="16" x="39.8773" y="0">μικρότερο’)</tspan></text><path d="M581.5 146.911 692.03 146.911 692.03 165.14 689.028 165.14 689.028 148.411 690.529 149.911 581.5 149.911ZM695.032 163.64 690.529 172.64 686.026 163.64Z"/><text font-family="Calibri,Calibri_MSFontService,sans-serif" font-weight="400" font-size="16" transform="matrix(1 0 0 0.999399 409.542 86)">Όχι</text><path d="M428 147.911 504.5 115.93 581 147.911 504.5 179.892Z" stroke="#000000" stroke-width="2.0012" stroke-miterlimit="8" fill="#FFFFFF" fill-rule="evenodd"/><text font-family="Calibri,Calibri_MSFontService,sans-serif" font-weight="400" font-size="16" transform="matrix(1 0 0 0.999399 489.722 153)">x <tspan font-size="16" x="10.6731" y="0">&lt; </tspan><tspan font-size="16" x="22.3468" y="0">y</tspan></text><path d="M303.001 282.33 303.001 299.586 299.999 299.586 299.999 282.33ZM306.003 298.086 301.5 307.086 296.997 298.086Z"/><path d="M0-1.5 106.266-1.5 106.266 17.765 103.266 17.765 103.266 0 104.766 1.5 0 1.5ZM109.266 16.265 104.766 25.265 100.266 16.265Z" transform="matrix(-1.0006 1.22465e-16 1.22538e-16 1 428.329 148.411)"/><text font-family="Calibri,Calibri_MSFontService,sans-serif" font-weight="400" font-size="16" transform="matrix(1 0 0 0.999399 375.296 140)">Ναι</text><rect x="16" y="118.929" width="152" height="57.9651" stroke="#000000" stroke-width="2.0012" stroke-miterlimit="8" fill="#FFFFFF"/><text font-family="Calibri,Calibri_MSFontService,sans-serif" font-weight="400" font-size="16" transform="matrix(1 0 0 0.999399 56.8396 153)">Print<tspan font-size="16" x="31.0387" y="0">(‘</tspan>ίσο’)</text><path d="M504.5 256.346 504.5 281.804" stroke="#000000" stroke-width="3.0018" stroke-miterlimit="8" fill="none" fill-rule="evenodd"/><text font-family="Calibri,Calibri_MSFontService,sans-serif" font-weight="400" font-size="16" transform="matrix(1 0 0 0.999399 621.701 139)">Όχι</text><path d="M0-1.5 134.201-1.5 134.201 21.2003 131.201 21.2003 131.201 0 132.701 1.5 0 1.5ZM137.201 19.7003 132.701 28.7003 128.201 19.7003Z" transform="matrix(-1.0006 1.22465e-16 1.22538e-16 1 225.281 91.445)"/><path d="M323.5 231.397 323.5 255.397 690.111 255.397 690.111 230.362" stroke="#000000" stroke-width="3" stroke-miterlimit="8" fill="none" fill-rule="evenodd"/><path d="M0 0 104.677 0 104.677 413.48" stroke="#000000" stroke-width="3" stroke-miterlimit="8" fill="none" fill-rule="evenodd" transform="matrix(1.83807e-16 1 1.0006 -1.83697e-16 92.5 177.393)"/></g></svg>