<svg width="1323" height="756" xmlns="http://www.w3.org/2000/svg" xmlns:xlink="http://www.w3.org/1999/xlink" overflow="hidden"><defs><clipPath id="clip0"><rect x="0" y="0" width="1323" height="756"/></clipPath></defs><g clip-path="url(#clip0)"><rect x="0" y="0" width="1323" height="756.071" fill="#FFFFFF"/><path d="M63.5 161.185C63.5 101.163 112.153 52.505 172.17 52.505L1163.83 52.505C1223.85 52.505 1272.5 101.163 1272.5 161.185L1272.5 595.894C1272.5 655.917 1223.85 704.574 1163.83 704.574L172.17 704.574C112.153 704.574 63.5 655.917 63.5 595.894Z" stroke="#000000" stroke-width="3.00038" stroke-miterlimit="8" fill="#FFFFFF" fill-rule="evenodd"/><path d="M151.5 179.184C151.5 161.141 166.126 146.514 184.167 146.514L339.833 146.514C357.874 146.514 372.5 161.141 372.5 179.184L372.5 309.862C372.5 327.905 357.874 342.532 339.833 342.532L184.167 342.532C166.126 342.532 151.5 327.905 151.5 309.862Z" stroke="#000000" stroke-width="3.00038" stroke-miterlimit="8" fill="#FFFFFF" fill-rule="evenodd"/><text font-family="Calibri,Calibri_MSFontService,sans-serif" font-weight="400" font-size="48" transform="matrix(1 0 0 1.00009 179.472 260)">Μετά<tspan font-size="48" x="119.282" y="0">τί</tspan>;</text><path d="M473.5 179.184C473.5 161.141 488.126 146.514 506.167 146.514L660.833 146.514C678.874 146.514 693.5 161.141 693.5 179.184L693.5 309.862C693.5 327.905 678.874 342.532 660.833 342.532L506.167 342.532C488.126 342.532 473.5 327.905 473.5 309.862Z" stroke="#000000" stroke-width="3.00038" stroke-miterlimit="8" fill="#FFFFFF" fill-rule="evenodd"/><text font-family="Calibri,Calibri_MSFontService,sans-serif" font-weight="400" font-size="48" transform="matrix(1 0 0 1.00009 500.967 260)">Μετά<tspan font-size="48" x="119.282" y="0">τί</tspan>;</text><path d="M794.5 170.184C794.5 152.14 809.126 137.513 827.167 137.513L982.833 137.513C1000.87 137.513 1015.5 152.14 1015.5 170.184L1015.5 300.861C1015.5 318.905 1000.87 333.532 982.833 333.532L827.167 333.532C809.126 333.532 794.5 318.905 794.5 300.861Z" stroke="#000000" stroke-width="3.00038" stroke-miterlimit="8" fill="#FFFFFF" fill-rule="evenodd"/><text font-family="Calibri,Calibri_MSFontService,sans-serif" font-weight="400" font-size="48" transform="matrix(1 0 0 1.00009 822.463 251)">Μετά<tspan font-size="48" x="119.282" y="0">τί</tspan>;</text><path d="M151.5 456.21C151.5 438.167 166.126 423.54 184.167 423.54L339.833 423.54C357.874 423.54 372.5 438.167 372.5 456.21L372.5 586.888C372.5 604.931 357.874 619.559 339.833 619.559L184.167 619.559C166.126 619.559 151.5 604.931 151.5 586.888Z" stroke="#000000" stroke-width="3.00038" stroke-miterlimit="8" fill="#FFFFFF" fill-rule="evenodd"/><text font-family="Calibri,Calibri_MSFontService,sans-serif" font-weight="400" font-size="48" transform="matrix(1 0 0 1.00009 179.472 538)">Μετά<tspan font-size="48" x="119.282" y="0">τί</tspan>;</text><path d="M473.5 456.21C473.5 438.167 488.126 423.54 506.167 423.54L660.833 423.54C678.874 423.54 693.5 438.167 693.5 456.21L693.5 586.888C693.5 604.932 678.874 619.559 660.833 619.559L506.167 619.559C488.126 619.559 473.5 604.932 473.5 586.888Z" stroke="#000000" stroke-width="3.00038" stroke-miterlimit="8" fill="#FFFFFF" fill-rule="evenodd"/><text font-family="Calibri,Calibri_MSFontService,sans-serif" font-weight="400" font-size="48" transform="matrix(1 0 0 1.00009 500.967 538)">Μετά<tspan font-size="48" x="119.282" y="0">τί</tspan>;</text><path d="M794.5 447.21C794.5 429.166 809.126 414.539 827.167 414.539L982.833 414.539C1000.87 414.539 1015.5 429.166 1015.5 447.21L1015.5 577.887C1015.5 595.931 1000.87 610.558 982.833 610.558L827.167 610.558C809.126 610.558 794.5 595.931 794.5 577.887Z" stroke="#000000" stroke-width="3.00038" stroke-miterlimit="8" fill="#FFFFFF" fill-rule="evenodd"/><text font-family="Calibri,Calibri_MSFontService,sans-serif" font-weight="400" font-size="48" transform="matrix(1 0 0 1.00009 822.463 528)">Μετά<tspan font-size="48" x="119.282" y="0">τί</tspan>;</text><path d="M1101.5 378.536C1101.5 342.082 1131.05 312.53 1167.5 312.53 1203.95 312.53 1233.5 342.082 1233.5 378.536 1233.5 414.99 1203.95 444.542 1167.5 444.542 1131.05 444.542 1101.5 414.99 1101.5 378.536Z" stroke="#000000" stroke-width="3.00038" stroke-miterlimit="8" fill="#FFFFFF" fill-rule="evenodd"/><path d="M1137.5 378.536C1137.5 361.966 1150.93 348.533 1167.5 348.533 1184.07 348.533 1197.5 361.966 1197.5 378.536 1197.5 395.106 1184.07 408.539 1167.5 408.539 1150.93 408.539 1137.5 395.106 1137.5 378.536Z" stroke="#000000" stroke-width="3.00038" stroke-miterlimit="8" fill-rule="evenodd"/></g></svg>