<?xml version="1.0" standalone="no"?>
<!DOCTYPE svg PUBLIC "-//W3C//DTD SVG 20010904//EN"
 "http://www.w3.org/TR/2001/REC-SVG-20010904/DTD/svg10.dtd">
<svg version="1.0" xmlns="http://www.w3.org/2000/svg"
 width="5334.000000pt" height="1717.000000pt" viewBox="0 0 5334.000000 1717.000000"
 preserveAspectRatio="xMidYMid meet">

<g transform="translate(0.000000,1717.000000) scale(0.100000,-0.100000)"
fill="#000000" stroke="none">
<path d="M15113 16896 l-28 -24 0 -8286 0 -8285 23 -23 23 -23 10535 0 10536
0 24 28 24 28 0 3945 0 3944 73 0 c39 0 740 -23 1557 -50 817 -28 1518 -50
1559 -50 l74 0 -7 -271 c-8 -261 -7 -272 11 -265 27 11 1585 536 1589 536 2 0
4 11 4 24 0 20 -11 28 -62 50 -308 129 -1504 622 -1506 621 -1 -1 -7 -121 -13
-266 -5 -145 -11 -264 -12 -265 -1 -1 -720 22 -1597 52 -877 29 -1612 54
-1632 54 l-38 0 0 4249 0 4248 -26 27 -27 26 -10528 0 -10528 0 -28 -24z
m20967 -8311 l0 -8165 -10415 0 -10415 0 0 8165 0 8165 10415 0 10415 0 0
-8165z"/>
<path d="M19685 15764 c-47 -97 -85 -180 -85 -185 0 -5 42 -9 93 -9 l92 0 135
172 c74 94 139 177 143 185 7 11 -19 13 -143 13 l-151 0 -84 -176z"/>
<path d="M15880 14955 l0 -955 125 0 125 0 0 840 0 840 495 0 495 0 0 -840 0
-840 130 0 130 0 0 955 0 955 -750 0 -750 0 0 -955z"/>
<path d="M18215 15396 c-180 -42 -291 -127 -364 -279 -83 -174 -91 -266 -91
-1044 l0 -603 125 0 125 0 0 326 0 326 50 -40 c102 -81 196 -112 345 -112 171
0 292 48 405 160 141 141 200 305 200 557 0 346 -152 596 -421 690 -91 32
-277 41 -374 19z m298 -209 c68 -31 146 -106 180 -174 48 -93 61 -165 61 -328
0 -113 -4 -166 -18 -214 -37 -136 -107 -230 -205 -278 -50 -25 -67 -28 -156
-28 -89 0 -106 3 -157 28 -93 45 -152 130 -185 264 -25 103 -22 362 5 465 44
164 110 242 237 285 62 20 170 11 238 -20z"/>
<path d="M19585 15395 c-137 -30 -261 -103 -337 -198 -56 -71 -114 -196 -134
-292 -25 -121 -23 -334 5 -450 32 -134 82 -227 166 -310 123 -123 259 -175
458 -175 69 0 136 6 176 16 208 52 375 214 434 424 42 148 47 353 12 510 -55
249 -230 426 -467 474 -92 19 -230 19 -313 1z m320 -214 c68 -34 132 -97 167
-164 82 -161 81 -494 -2 -658 -33 -63 -106 -135 -169 -166 -49 -24 -68 -27
-156 -28 -94 0 -105 2 -167 33 -157 77 -227 229 -228 490 0 201 41 334 130
423 82 82 159 110 284 105 62 -3 91 -10 141 -35z"/>
<path d="M22465 15396 c-180 -42 -291 -127 -364 -279 -83 -174 -91 -266 -91
-1044 l0 -603 125 0 125 0 0 326 0 326 50 -40 c102 -81 196 -112 345 -112 171
0 292 48 405 160 141 141 200 305 200 557 0 346 -152 596 -421 690 -91 32
-277 41 -374 19z m298 -209 c68 -31 146 -106 180 -174 48 -93 61 -165 61 -328
0 -113 -4 -166 -18 -214 -37 -136 -107 -230 -205 -278 -50 -25 -67 -28 -156
-28 -89 0 -106 3 -157 28 -93 45 -152 130 -185 264 -25 103 -22 362 5 465 44
164 110 242 237 285 62 20 170 11 238 -20z"/>
<path d="M23795 15400 c-188 -39 -326 -166 -399 -369 -44 -123 -62 -299 -47
-452 22 -208 80 -348 191 -459 109 -110 212 -150 381 -150 191 0 334 78 422
230 17 28 28 39 30 30 3 -8 22 -63 42 -122 l37 -108 119 0 c65 0 119 2 119 3
0 2 -9 30 -20 63 -44 127 -141 543 -141 608 -1 70 81 435 142 635 10 35 19 65
19 67 0 3 -55 3 -122 2 l-122 -3 -36 -114 -36 -115 -14 34 c-38 92 -187 196
-314 219 -68 13 -192 13 -251 1z m301 -211 c100 -47 181 -162 210 -298 19 -91
18 -294 -2 -384 -33 -147 -115 -266 -219 -317 -70 -35 -209 -36 -272 -3 -95
51 -168 167 -199 318 -24 114 -15 343 16 440 47 149 124 232 245 266 52 14
167 3 221 -22z"/>
<path d="M28045 15400 c-188 -39 -326 -166 -399 -369 -44 -123 -62 -299 -47
-452 22 -208 80 -348 191 -459 109 -110 212 -150 381 -150 191 0 334 78 422
230 17 28 28 39 30 30 3 -8 22 -63 42 -122 l37 -108 119 0 c65 0 119 2 119 3
0 2 -9 30 -20 63 -44 127 -141 543 -141 608 -1 70 81 435 142 635 10 35 19 65
19 67 0 3 -55 3 -122 2 l-122 -3 -36 -114 -36 -115 -14 34 c-38 92 -187 196
-314 219 -68 13 -192 13 -251 1z m301 -211 c100 -47 181 -162 210 -298 19 -91
18 -294 -2 -384 -33 -147 -115 -266 -219 -317 -70 -35 -209 -36 -272 -3 -95
51 -168 167 -199 318 -24 114 -15 343 16 440 47 149 124 232 245 266 52 14
167 3 221 -22z"/>
<path d="M20453 15373 c3 -5 129 -313 281 -686 l276 -678 0 -269 0 -270 125 0
125 0 0 265 0 265 276 678 c152 372 278 683 281 690 4 9 -26 12 -129 12 l-133
0 -185 -487 c-101 -269 -195 -517 -209 -552 l-24 -64 -42 109 c-23 60 -117
308 -210 552 l-168 442 -134 0 c-74 0 -132 -3 -130 -7z"/>
<path d="M24850 14425 l0 -955 120 0 120 0 0 275 c0 151 1 275 3 275 1 0 34
-11 72 -25 175 -62 362 -15 506 125 l59 58 18 -42 c27 -60 68 -104 126 -133
42 -22 68 -28 149 -31 l97 -4 0 101 0 101 -35 0 c-49 0 -82 18 -100 55 -13 29
-15 108 -15 594 l0 561 -125 0 -125 0 0 -500 0 -501 -78 -79 c-106 -107 -146
-125 -277 -125 -88 0 -107 3 -150 26 -62 31 -102 92 -115 174 -5 33 -10 273
-10 533 l0 472 -120 0 -120 0 0 -955z"/>
<path d="M26260 14425 l0 -955 125 0 125 0 0 276 c0 259 1 276 18 269 100 -41
129 -47 227 -43 91 3 107 7 178 41 55 26 99 57 147 103 l68 65 12 -37 c7 -21
36 -62 65 -90 63 -63 122 -84 237 -84 l78 0 0 100 0 100 -44 0 c-60 0 -91 27
-105 91 -7 32 -11 239 -11 584 l0 535 -120 0 -120 0 0 -499 0 -498 -72 -75
c-43 -45 -96 -87 -128 -104 -49 -26 -65 -28 -155 -29 -82 0 -108 4 -147 22
-57 26 -103 86 -117 154 -7 32 -11 229 -11 539 l0 490 -125 0 -125 0 0 -955z"/>
<path d="M31272 12659 c-658 -63 -1268 -579 -1456 -1232 -79 -271 -79 -562 -1
-832 124 -430 426 -802 841 -1039 l79 -46 -292 0 c-272 0 -296 -1 -350 -21
-56 -20 -104 -67 -1134 -1098 -867 -867 -1081 -1086 -1100 -1126 -20 -42 -24
-65 -24 -150 0 -85 4 -106 23 -143 32 -60 97 -122 157 -152 71 -35 207 -35
280 -1 40 19 206 180 823 795 l772 771 0 -2802 0 -2802 -347 -3 -348 -3 -64
-35 c-119 -64 -176 -168 -169 -308 6 -128 71 -227 186 -280 l57 -27 550 0 550
0 56 28 c66 32 132 99 162 165 l22 47 3 1378 2 1377 860 0 860 0 0 -1353 c0
-1206 2 -1359 16 -1407 29 -98 92 -172 183 -214 45 -21 58 -21 596 -21 l550 0
56 26 c73 34 134 96 167 167 20 45 26 72 26 133 0 67 -5 86 -33 143 -35 71
-85 121 -160 158 -45 22 -54 23 -393 26 l-348 3 0 2802 0 2802 768 -767 c616
-616 778 -772 822 -794 48 -25 66 -29 145 -29 78 0 97 4 147 28 175 86 237
315 129 478 -17 24 -508 522 -1093 1105 -1017 1015 -1066 1063 -1121 1083 -54
20 -77 21 -349 21 l-292 0 89 51 c136 78 237 153 358 269 584 558 698 1350
289 2008 -75 120 -133 194 -241 306 -295 303 -649 478 -1048 516 -119 11 -140
11 -261 -1z m389 -679 c295 -64 534 -250 650 -506 127 -280 127 -648 0 -928
-94 -208 -288 -386 -507 -465 -129 -47 -240 -65 -399 -64 -384 1 -681 158
-854 451 -134 228 -174 557 -100 838 76 291 271 516 540 623 199 79 452 99
670 51z"/>
<path d="M2204 9393 c-68 -142 -104 -222 -104 -229 0 -2 42 -4 93 -4 l94 0
139 177 c76 97 141 181 142 185 2 4 -64 8 -148 8 l-151 0 -65 -137z"/>
<path d="M402 8538 l3 -953 708 -3 707 -2 0 115 0 115 -585 0 -585 0 0 325 0
325 530 0 530 0 0 110 0 110 -527 2 -528 3 -3 293 -2 292 565 0 565 0 0 110 0
110 -690 0 -690 0 2 -952z"/>
<path d="M5580 9405 l0 -85 220 -176 c121 -97 220 -180 220 -185 0 -5 -12 -9
-26 -9 -46 0 -145 -30 -218 -67 -151 -76 -273 -249 -312 -442 -20 -104 -15
-333 11 -426 60 -220 222 -383 435 -441 45 -12 102 -17 185 -17 83 0 140 5
185 17 215 58 375 222 436 446 26 95 26 367 0 465 -52 199 -106 261 -491 568
l-304 242 349 3 350 2 0 95 0 95 -520 0 -520 0 0 -85z m657 -667 c65 -24 150
-100 185 -165 47 -87 62 -163 62 -323 -1 -130 -4 -153 -27 -225 -31 -93 -78
-161 -145 -210 -62 -46 -128 -65 -223 -65 -103 0 -172 26 -244 91 -105 97
-152 248 -142 459 8 167 41 261 120 347 105 114 261 148 414 91z"/>
<path d="M41335 9438 c10 -96 35 -409 35 -434 0 -24 1 -24 93 -24 l93 0 18
233 c9 127 19 242 22 255 4 22 4 22 -131 22 l-135 0 5 -52z"/>
<path d="M41792 8538 l3 -953 708 -3 707 -2 0 115 0 115 -585 0 -585 0 2 323
3 322 528 3 527 2 0 110 0 110 -527 2 -528 3 0 290 0 290 563 3 562 2 0 110 0
110 -690 0 -690 0 2 -952z"/>
<path d="M43480 9395 l0 -95 81 0 82 0 -40 -43 c-89 -97 -112 -249 -56 -368
55 -116 135 -178 293 -226 9 -2 -14 -19 -55 -41 -100 -53 -156 -94 -208 -152
-94 -105 -144 -257 -133 -407 14 -196 93 -326 243 -402 81 -40 147 -58 291
-76 68 -9 148 -25 177 -36 60 -22 109 -71 120 -117 10 -47 -11 -106 -49 -140
-41 -36 -83 -51 -168 -60 l-63 -7 -3 -97 -3 -98 64 0 c196 0 373 103 428 249
30 80 24 214 -13 286 -66 128 -199 197 -433 225 -119 14 -182 33 -232 69 -158
114 -139 421 35 583 102 94 230 143 405 155 l97 6 0 98 0 97 -177 4 c-205 5
-263 20 -339 90 -53 49 -68 92 -61 174 6 81 38 140 99 181 66 43 123 53 318
53 l170 0 0 95 0 95 -435 0 -435 0 0 -95z"/>
<path d="M46240 9406 l0 -84 226 -181 c124 -99 220 -183 213 -185 -8 -2 -43
-9 -79 -15 -36 -6 -103 -30 -149 -53 -152 -74 -260 -209 -313 -393 -19 -69
-23 -103 -23 -240 0 -185 12 -243 76 -374 73 -149 212 -262 379 -307 89 -24
281 -24 370 0 100 27 185 73 258 141 78 73 132 158 169 270 25 75 27 92 27
260 1 204 -9 258 -71 385 -51 104 -148 197 -475 455 l-267 210 350 3 349 2 0
95 0 95 -520 0 -520 0 0 -84z m585 -647 c79 -15 140 -47 196 -106 84 -86 118
-182 126 -353 13 -272 -79 -464 -255 -530 -78 -30 -224 -26 -294 8 -163 80
-248 268 -234 522 9 178 51 286 141 369 52 48 115 79 184 91 67 11 71 11 136
-1z"/>
<path d="M3125 8985 c-355 -65 -550 -382 -505 -819 20 -200 82 -338 202 -451
118 -112 248 -159 438 -159 135 0 196 12 305 64 236 112 360 372 342 715 -8
140 -35 246 -91 351 l-45 84 155 0 154 0 0 100 0 100 -307 0 c-224 0 -330 4
-388 15 -97 17 -167 17 -260 0z m268 -201 c99 -35 186 -132 227 -253 40 -121
45 -352 9 -485 -30 -113 -110 -215 -204 -264 -72 -37 -215 -43 -297 -12 -120
45 -211 163 -243 315 -19 90 -19 290 0 378 38 181 155 311 304 337 56 10 152
2 204 -16z"/>
<path d="M4565 8991 c-124 -21 -232 -69 -317 -141 -167 -143 -248 -429 -207
-727 33 -238 151 -416 334 -503 109 -52 170 -64 305 -64 200 0 326 48 451 173
118 118 168 237 190 447 11 110 1 255 -26 359 -55 217 -221 386 -430 440 -72
19 -231 27 -300 16z m180 -192 c82 -15 142 -48 198 -108 88 -94 127 -223 127
-417 0 -264 -91 -441 -258 -504 -83 -32 -225 -25 -300 13 -103 54 -168 140
-203 273 -28 104 -31 326 -5 424 46 178 151 291 297 319 62 12 78 12 144 0z"/>
<path d="M7375 8986 c-182 -35 -319 -129 -410 -281 -135 -226 -134 -634 2
-864 49 -82 154 -180 235 -220 99 -48 178 -65 308 -65 135 0 196 12 305 64
221 105 345 341 345 655 0 364 -171 625 -459 700 -87 22 -241 28 -326 11z
m268 -202 c99 -35 186 -132 227 -253 40 -121 45 -352 9 -485 -30 -113 -110
-215 -204 -264 -72 -37 -215 -43 -297 -12 -120 45 -211 163 -243 315 -19 90
-19 290 0 378 38 181 155 311 304 337 56 10 152 2 204 -16z"/>
<path d="M8832 8990 c-203 -32 -372 -148 -465 -318 -14 -26 -38 -88 -53 -137
-24 -80 -27 -106 -28 -245 0 -121 4 -169 18 -220 48 -173 157 -305 317 -384
110 -54 206 -80 382 -101 228 -27 306 -80 295 -197 -9 -92 -79 -144 -206 -155
l-72 -6 0 -98 0 -99 63 0 c177 0 349 95 414 228 24 48 27 69 28 147 0 82 -3
96 -33 157 -66 135 -195 202 -437 228 -55 6 -129 18 -164 26 -261 59 -386 257
-352 554 24 218 112 349 275 413 67 26 209 27 281 2 106 -37 169 -101 183
-187 l8 -43 127 -3 128 -3 -7 38 c-9 53 -43 141 -69 183 -59 93 -198 182 -325
209 -73 16 -242 22 -308 11z"/>
<path d="M45250 8994 c-221 -33 -377 -137 -468 -312 -64 -122 -86 -226 -86
-407 0 -180 22 -285 84 -404 111 -214 351 -339 611 -317 169 14 284 63 396
169 61 59 82 87 118 161 62 129 80 219 79 396 0 114 -5 164 -22 234 -52 209
-185 370 -361 437 -101 38 -254 57 -351 43z m245 -223 c159 -74 235 -234 235
-496 0 -211 -44 -341 -145 -434 -80 -72 -144 -94 -265 -89 -111 5 -168 29
-239 99 -91 92 -133 224 -133 424 0 202 41 333 134 426 108 108 271 135 413
70z"/>
<path d="M48035 8986 c-245 -48 -412 -206 -482 -456 -26 -94 -26 -416 0 -510
64 -228 222 -389 438 -447 88 -23 281 -23 369 1 167 45 308 160 379 309 63
133 76 196 76 392 0 196 -13 259 -77 394 -70 148 -213 263 -376 306 -88 22
-241 28 -327 11z m265 -201 c146 -49 237 -191 261 -405 26 -235 -37 -464 -154
-552 -73 -56 -117 -72 -217 -76 -80 -3 -104 0 -152 18 -78 29 -156 102 -196
182 -80 163 -84 468 -8 634 30 64 106 148 161 177 89 47 205 55 305 22z"/>
<path d="M49465 8985 c-169 -31 -333 -141 -418 -281 -123 -204 -140 -532 -38
-749 60 -127 175 -232 326 -294 92 -39 167 -56 326 -75 226 -28 299 -74 299
-189 0 -92 -78 -153 -209 -164 l-71 -6 0 -98 0 -99 63 0 c309 1 507 228 428
490 -48 157 -190 241 -456 270 -55 6 -128 18 -163 26 -181 41 -304 156 -343
320 -16 69 -13 247 5 327 55 238 242 372 470 337 140 -21 223 -83 253 -190
l16 -60 125 0 124 0 -6 34 c-38 204 -171 342 -378 391 -95 23 -259 27 -353 10z"/>
<path d="M2122 8368 l3 -603 24 -53 c52 -116 192 -178 355 -157 l56 6 0 100 0
99 -64 0 c-78 0 -112 23 -126 85 -5 22 -10 284 -10 583 l0 542 -120 0 -121 0
3 -602z"/>
<path d="M13334 8673 c4 -104 9 -222 12 -264 l6 -76 -119 -7 c-65 -3 -971 -38
-2013 -77 -1744 -64 -1897 -71 -1920 -88 -51 -37 -50 -101 2 -135 21 -13 232
-7 1988 60 1081 41 1988 73 2015 72 l50 -3 9 -263 c8 -250 9 -262 27 -257 10
4 377 156 815 340 l796 333 -829 276 c-455 152 -832 276 -837 276 -4 0 -5 -84
-2 -187z"/>
</g>
</svg>
