<svg width="643" height="212" xmlns="http://www.w3.org/2000/svg" xmlns:xlink="http://www.w3.org/1999/xlink" overflow="hidden"><defs><clipPath id="clip0"><rect x="0" y="0" width="643" height="212"/></clipPath><clipPath id="clip1"><rect x="8" y="5" width="636" height="208"/></clipPath><clipPath id="clip2"><rect x="8" y="5" width="636" height="208"/></clipPath><clipPath id="clip3"><rect x="8" y="5" width="636" height="208"/></clipPath></defs><g clip-path="url(#clip0)"><rect x="0" y="0" width="643" height="212.169" fill="#FFFFFF"/><g clip-path="url(#clip1)"><g clip-path="url(#clip2)"><g clip-path="url(#clip3)"><path d="M0 0 728.334 0 728.334 578.498 0 578.498Z" fill="#FFFFFF" transform="matrix(1.00902 0 0 1 -1.35307 -2.81356)"/><path d="M70.3578 46.9052 304.884 46.9052 304.884 211.074 70.3578 211.074Z" fill="#FFFFFF" transform="matrix(1.00902 0 0 1 -1.35307 -2.81356)"/><path d="M70.3578 46.9052 304.884 46.9052 304.884 211.074 70.3578 211.074Z" stroke="#000000" stroke-width="3.90877" stroke-linecap="round" stroke-linejoin="round" fill="none" transform="matrix(1.00902 0 0 1 -1.35307 -2.81356)"/><path d="M70.3578 128.989 304.884 128.989 304.884 164.168 70.3578 164.168Z" stroke="#000000" stroke-width="1.30292" stroke-linecap="round" stroke-linejoin="round" fill="none" transform="matrix(1.00902 0 0 1 -1.35307 -2.81356)"/><path d="M222.8 46.9052 257.979 46.9052 257.979 211.074 222.8 211.074Z" stroke="#000000" stroke-width="1.30292" stroke-linecap="round" stroke-linejoin="round" fill="none" transform="matrix(1.00902 0 0 1 -1.35307 -2.81356)"/><text font-family="Arial,Arial_MSFontService,sans-serif" font-weight="400" font-size="14" transform="matrix(1.31467 0 0 1.30292 229.727 149)">2<tspan font-size="14" x="8" y="0">.</tspan>3<tspan font-size="16" x="-107.586" y="-59.8654">T</tspan><tspan font-size="16" x="-100.178" y="-59.8654">able</tspan><tspan font-size="16" x="-161.883" y="0.767505">r</tspan><tspan font-size="16" x="-156.844" y="0.767505">ow</tspan><tspan font-size="16" x="-12.654" y="-89.7981">column</tspan></text><path d="M399.265 46.9052 633.791 46.9052 633.791 211.074 399.265 211.074Z" fill="#FFFFFF" transform="matrix(1.00902 0 0 1 -1.35307 -2.81356)"/><path d="M399.265 46.9052 633.791 46.9052 633.791 211.074 399.265 211.074Z" stroke="#000000" stroke-width="3.90877" stroke-linecap="round" stroke-linejoin="round" fill="none" transform="matrix(1.00902 0 0 1 -1.35307 -2.81356)"/><path d="M399.265 128.989 633.791 128.989 633.791 164.168 399.265 164.168Z" stroke="#000000" stroke-width="1.30292" stroke-linecap="round" stroke-linejoin="round" fill="none" transform="matrix(1.00902 0 0 1 -1.35307 -2.81356)"/><path d="M551.707 46.9052 586.885 46.9052 586.885 211.074 551.707 211.074Z" stroke="#000000" stroke-width="1.30292" stroke-linecap="round" stroke-linejoin="round" fill="none" transform="matrix(1.00902 0 0 1 -1.35307 -2.81356)"/><text font-family="Arial,Arial_MSFontService,sans-serif" font-weight="400" font-size="14" transform="matrix(1.31467 0 0 1.30292 561.599 149)">2<tspan font-size="14" x="7.99997" y="0">.</tspan><tspan font-size="14" x="12" y="0">3</tspan><tspan font-size="16" x="-111.423" y="-59.8654">Relation</tspan><tspan font-size="16" x="-166.492" y="0.767505">tuple</tspan><tspan font-size="16" x="-16.054" y="-89.7981">attribute</tspan></text></g></g></g><rect x="207" y="6.00482" width="73" height="36.0286" fill="#FFFFFF"/><text font-family="Calibri,Calibri_MSFontService,sans-serif" font-weight="400" font-size="21" transform="matrix(1 0 0 1.0008 216.899 31)">στήλη</text><rect x="0" y="125.099" width="68" height="35.0279" fill="#FFFFFF"/><text font-family="Calibri,Calibri_MSFontService,sans-serif" font-weight="400" font-size="21" transform="matrix(1 0 0 1.0008 0 149)">γραμμή</text><rect x="80" y="47.0374" width="100" height="39.031" fill="#FFFFFF"/><text font-family="Calibri,Calibri_MSFontService,sans-serif" font-weight="400" font-size="24" transform="matrix(1 0 0 1.0008 89.9322 74)">Πίνακας</text><rect x="414" y="47.0374" width="83" height="39.031" fill="#FFFFFF"/><text font-family="Calibri,Calibri_MSFontService,sans-serif" font-weight="400" font-size="24" transform="matrix(1 0 0 1.0008 423.307 74)">Σχέση</text><rect x="482" y="6.00482" width="157" height="36.0286" fill="#FFFFFF"/><text font-family="Calibri,Calibri_MSFontService,sans-serif" font-weight="400" font-size="21" transform="matrix(1 0 0 1.0008 491.556 31)">χαρακτηριστικό</text><rect x="321" y="125.099" width="78.0001" height="36.0287" fill="#FFFFFF"/><text font-family="Calibri,Calibri_MSFontService,sans-serif" font-weight="400" font-size="21" transform="matrix(1 0 0 1.0008 321.5 151)">εγγραφή</text></g></svg>