<?xml version="1.0" standalone="no"?>
<!DOCTYPE svg PUBLIC "-//W3C//DTD SVG 20010904//EN"
 "http://www.w3.org/TR/2001/REC-SVG-20010904/DTD/svg10.dtd">
<svg version="1.0" xmlns="http://www.w3.org/2000/svg"
 width="6517.000000pt" height="3367.000000pt" viewBox="0 0 6517.000000 3367.000000"
 preserveAspectRatio="xMidYMid meet">

<g transform="translate(0.000000,3367.000000) scale(0.100000,-0.100000)"
fill="#000000" stroke="none">
<path d="M276 33394 l-26 -27 0 -15028 0 -15028 24 -28 24 -28 11286 0 11285
0 23 23 23 23 3 1474 2 1475 725 2 724 3 23 23 23 23 3 3724 2 3725 4569 0
4570 0 -127 -180 c-285 -403 -554 -869 -740 -1280 -320 -708 -493 -1331 -579
-2090 -25 -222 -25 -934 0 -1165 112 -1022 441 -1943 1013 -2830 745 -1156
1864 -2138 3169 -2780 912 -448 1812 -706 2795 -801 227 -22 777 -30 1015 -15
1022 64 1935 340 2777 838 342 201 753 509 1024 766 53 50 85 74 88 66 2 -8
18 -75 36 -149 202 -839 682 -1562 1395 -2097 1315 -986 3425 -1327 5553 -897
949 192 1842 538 2547 987 909 578 1482 1307 1649 2096 13 62 26 114 28 116 2
3 65 -16 139 -41 1378 -465 2928 15 4414 1366 194 177 571 562 748 763 1436
1642 2513 3880 2891 6008 147 827 186 1657 110 2369 -100 952 -391 1771 -859
2425 -427 597 -1023 1072 -1734 1383 l-74 32 100 103 c1316 1344 1883 3203
1577 5177 -242 1566 -1019 3147 -2151 4375 -129 140 -448 458 -578 575 -273
247 -635 527 -950 735 -967 640 -1974 1009 -3040 1115 -179 18 -679 24 -870
11 -1149 -80 -2216 -489 -3216 -1232 -81 -60 -149 -109 -151 -109 -3 0 -8 39
-11 88 -13 178 -66 418 -132 599 -52 141 -182 401 -263 523 -38 58 -105 152
-151 210 -1265 1619 -4578 2358 -7306 1630 -817 -218 -1512 -555 -2089 -1011
-159 -126 -469 -433 -590 -584 -330 -413 -579 -928 -686 -1421 -11 -54 -23
-100 -24 -102 -2 -2 -85 17 -185 42 -665 167 -1283 236 -1926 215 -1456 -48
-2782 -637 -3860 -1715 -1167 -1165 -2013 -2849 -2400 -4779 -120 -596 -184
-1121 -216 -1755 -13 -266 -7 -956 10 -1195 42 -558 125 -1114 236 -1563 19
-79 35 -145 35 -148 0 -2 -1705 -4 -3790 -4 l-3790 0 -2 2976 -3 2976 -28 24
-28 24 -720 0 -719 0 -2 4476 -3 4476 -28 24 -28 24 -11278 0 -11278 0 -27
-26z m22474 -4559 l0 -4415 -7474 0 -7473 0 -27 -26 -26 -27 0 -9028 0 -9028
24 -28 24 -28 7476 -3 7476 -2 0 -1415 0 -1415 -11165 0 -11165 0 0 14915 0
14915 11165 0 11165 0 0 -4415z m23895 3691 c625 -55 1152 -147 1670 -292
1467 -412 2503 -1159 2895 -2088 113 -267 180 -583 180 -851 0 -100 13 -146
45 -159 41 -15 72 -4 140 51 594 478 1270 861 1924 1090 2027 708 4248 173
6111 -1472 177 -156 545 -523 701 -700 1391 -1568 2170 -3533 2126 -5360 -22
-892 -214 -1685 -593 -2445 -275 -551 -616 -1024 -1086 -1506 -133 -136 -148
-155 -148 -186 0 -49 25 -68 175 -129 151 -61 429 -200 565 -283 852 -518
1432 -1259 1755 -2242 281 -852 352 -1864 210 -2983 -126 -989 -421 -2045
-860 -3081 -890 -2096 -2263 -3877 -3725 -4833 -648 -423 -1300 -676 -1945
-753 -187 -22 -553 -23 -731 -1 -277 34 -550 102 -779 192 -181 72 -214 61
-235 -80 -66 -450 -254 -868 -566 -1260 -118 -149 -419 -447 -584 -579 -923
-736 -2234 -1229 -3725 -1401 -559 -64 -1238 -72 -1778 -20 -673 65 -1247 198
-1817 422 -190 75 -582 271 -740 371 -761 479 -1274 1109 -1541 1892 -63 182
-102 330 -139 516 -32 165 -43 184 -102 184 -36 0 -48 -8 -146 -103 -730 -702
-1558 -1183 -2498 -1451 -1078 -307 -2273 -310 -3459 -6 -2570 658 -4745 2627
-5446 4930 -124 405 -197 781 -241 1235 -19 195 -16 788 5 995 79 770 273
1449 625 2191 180 381 500 908 782 1289 l92 125 2054 5 2053 5 23 23 23 23 0
2285 0 2286 -28 24 -28 24 -2849 0 -2848 0 -37 153 c-175 726 -255 1427 -255
2233 -1 2264 707 4562 1897 6159 509 683 1098 1238 1738 1637 870 542 1849
818 2900 818 564 0 1118 -75 1743 -235 117 -30 223 -55 236 -55 46 0 65 38 96
191 268 1319 1256 2307 2837 2838 624 210 1310 336 2098 385 163 10 1060 -3
1230 -18z m-26895 -10441 l0 -2165 -5915 0 -5915 0 0 2165 0 2165 5915 0 5915
0 0 -2165z m4500 -6750 l0 -8915 -2165 0 -2165 0 0 8915 0 8915 2165 0 2165 0
0 -8915z m-4500 2250 l0 -2165 -5915 0 -5915 0 0 2165 0 2165 5915 0 5915 0 0
-2165z m18000 -1500 l0 -2165 -6665 0 -6665 0 0 2165 0 2165 6665 0 6665 0 0
-2165z m-18000 -3000 l0 -2165 -5915 0 -5915 0 0 2165 0 2165 5915 0 5915 0 0
-2165z m0 -4500 l0 -2165 -5915 0 -5915 0 0 2165 0 2165 5915 0 5915 0 0
-2165z"/>
<path d="M8795 31014 c-41 -86 -75 -158 -75 -160 0 -2 37 -4 83 -4 l82 0 115
147 c63 80 119 152 123 160 7 11 -16 13 -123 13 l-131 0 -74 -156z"/>
<path d="M16295 31014 c-41 -86 -75 -158 -75 -160 0 -2 37 -4 83 -4 l82 0 115
147 c63 80 119 152 123 160 7 11 -16 13 -123 13 l-131 0 -74 -156z"/>
<path d="M2170 31050 l0 -100 270 0 270 0 2 -737 3 -738 110 0 110 0 3 738 2
737 275 0 276 0 -3 98 -3 97 -657 3 -658 2 0 -100z"/>
<path d="M5555 31138 c-3 -7 -4 -384 -3 -838 l3 -825 108 -3 107 -3 0 741 0
740 435 0 435 0 2 -737 3 -738 108 -3 107 -3 0 841 0 840 -650 0 c-511 0 -652
-3 -655 -12z"/>
<path d="M4027 30694 c-126 -30 -248 -117 -317 -224 -99 -154 -126 -453 -59
-653 61 -182 196 -311 370 -352 75 -17 226 -20 301 -4 149 31 288 138 353 273
53 110 68 190 68 346 0 228 -45 354 -167 475 -80 79 -152 119 -254 141 -84 17
-219 17 -295 -2z m266 -170 c26 -9 70 -36 97 -61 93 -84 130 -193 130 -388 0
-178 -31 -277 -114 -363 -63 -67 -106 -85 -213 -90 -81 -4 -97 -2 -146 21
-143 65 -210 207 -210 442 0 180 41 295 133 378 28 25 70 52 93 60 57 21 172
21 230 1z"/>
<path d="M7471 30690 c-134 -36 -224 -108 -284 -227 -72 -144 -71 -127 -75
-825 l-3 -628 106 0 105 0 0 286 0 286 28 -22 c105 -81 161 -102 294 -108 129
-6 212 16 307 79 109 73 189 192 228 339 24 91 24 321 0 410 -57 215 -205 369
-398 415 -88 20 -218 18 -308 -5z m272 -166 c59 -20 135 -88 170 -152 44 -80
60 -163 60 -297 0 -218 -56 -349 -182 -423 -39 -23 -59 -27 -141 -30 -89 -4
-98 -2 -150 25 -100 53 -153 153 -170 321 -17 157 5 323 54 421 29 56 100 123
148 138 51 17 159 15 211 -3z"/>
<path d="M8682 30690 c-271 -71 -416 -311 -399 -660 4 -63 13 -142 22 -175 54
-199 193 -341 382 -390 75 -20 242 -19 318 0 200 52 345 209 390 423 20 95 19
281 -1 380 -45 222 -198 384 -403 428 -92 19 -221 17 -309 -6z m317 -185 c128
-70 191 -209 191 -425 0 -179 -43 -305 -131 -384 -62 -56 -121 -76 -219 -76
-66 0 -86 4 -138 30 -139 70 -197 198 -197 435 0 106 4 143 23 201 28 90 75
160 136 202 66 44 97 52 196 49 72 -3 93 -7 139 -32z"/>
<path d="M11221 30690 c-134 -36 -224 -108 -284 -227 -72 -144 -71 -127 -75
-825 l-3 -628 106 0 105 0 0 286 0 286 28 -22 c105 -81 161 -102 294 -108 129
-6 212 16 307 79 109 73 189 192 228 339 24 91 24 321 0 410 -57 215 -205 369
-398 415 -88 20 -218 18 -308 -5z m272 -166 c59 -20 135 -88 170 -152 44 -80
60 -163 60 -297 0 -218 -56 -349 -182 -423 -39 -23 -59 -27 -141 -30 -89 -4
-98 -2 -150 25 -100 53 -153 153 -170 321 -17 157 5 323 54 421 29 56 100 123
148 138 51 17 159 15 211 -3z"/>
<path d="M12405 30696 c-167 -42 -290 -172 -345 -366 -46 -163 -35 -425 24
-570 58 -143 170 -252 297 -291 93 -28 245 -23 331 10 69 27 149 97 188 164
26 45 28 47 35 26 3 -13 20 -63 37 -111 l30 -88 98 0 c53 0 99 3 103 6 3 3 -1
25 -9 47 -26 72 -73 256 -104 406 l-29 145 39 185 c22 102 55 239 74 304 l34
117 -108 0 -107 0 -29 -96 c-28 -92 -29 -95 -44 -72 -60 93 -163 164 -268 187
-68 14 -183 13 -247 -3z m280 -180 c140 -65 218 -251 201 -477 -13 -167 -53
-267 -142 -348 -59 -54 -106 -71 -195 -71 -80 0 -131 23 -183 80 -68 76 -103
180 -112 335 -14 236 59 420 191 481 70 33 171 33 240 0z"/>
<path d="M16155 30696 c-167 -42 -290 -172 -345 -366 -46 -163 -35 -425 24
-570 58 -143 170 -252 297 -291 93 -28 245 -23 331 10 69 27 149 97 188 164
26 45 28 47 35 26 3 -13 20 -63 37 -111 l30 -88 98 0 c53 0 99 3 103 6 3 3 -1
25 -9 47 -26 72 -73 256 -104 406 l-29 145 39 185 c22 102 55 239 74 304 l34
117 -108 0 -107 0 -29 -96 c-28 -92 -29 -95 -44 -72 -60 93 -163 164 -268 187
-68 14 -183 13 -247 -3z m280 -180 c140 -65 218 -251 201 -477 -13 -167 -53
-267 -142 -348 -59 -54 -106 -71 -195 -71 -80 0 -131 23 -183 80 -68 76 -103
180 -112 335 -14 236 59 420 191 481 70 33 171 33 240 0z"/>
<path d="M18027 30694 c-126 -30 -248 -117 -317 -224 -99 -154 -126 -453 -59
-653 61 -182 196 -311 370 -352 75 -17 226 -20 301 -4 149 31 288 138 353 273
53 110 68 190 68 346 -1 155 -20 247 -75 351 -18 35 -34 67 -36 71 -2 4 56 9
130 10 l133 3 3 83 3 82 -258 0 c-190 0 -277 4 -328 15 -86 18 -211 18 -288
-1z m266 -170 c26 -9 70 -36 97 -61 93 -84 130 -193 130 -388 0 -178 -31 -277
-114 -363 -63 -67 -106 -85 -213 -90 -81 -4 -97 -2 -146 21 -143 65 -210 207
-210 442 0 180 41 295 133 378 28 25 70 52 93 60 57 21 172 21 230 1z"/>
<path d="M19277 30694 c-126 -30 -248 -117 -317 -224 -99 -154 -126 -453 -59
-653 61 -182 196 -311 370 -352 75 -17 226 -20 301 -4 149 31 288 138 353 273
53 110 68 190 68 346 0 228 -45 354 -167 475 -80 79 -152 119 -254 141 -84 17
-219 17 -295 -2z m266 -170 c26 -9 70 -36 97 -61 93 -84 130 -193 130 -388 0
-178 -31 -277 -114 -363 -63 -67 -106 -85 -213 -90 -81 -4 -97 -2 -146 21
-143 65 -210 207 -210 442 0 180 41 295 133 378 28 25 70 52 93 60 57 21 172
21 230 1z"/>
<path d="M9499 30633 c11 -26 121 -297 245 -602 l226 -554 0 -234 0 -233 110
0 110 0 0 238 0 239 236 579 c130 318 239 587 241 597 5 15 -5 17 -110 17
l-115 0 -10 -27 c-62 -171 -345 -910 -351 -916 -4 -4 -88 205 -187 465 l-180
473 -117 3 -117 3 19 -48z"/>
<path d="M13360 29845 l0 -835 105 0 105 0 0 244 0 244 62 -25 c54 -22 73 -25
152 -21 114 5 193 39 283 122 l62 57 14 -33 c40 -95 113 -140 240 -146 l87 -4
0 88 0 89 -42 1 c-32 1 -47 8 -65 28 l-23 27 0 500 0 499 -110 0 -110 0 0
-435 0 -434 -61 -65 c-83 -89 -146 -120 -248 -119 -114 0 -172 29 -215 108
-20 39 -21 52 -24 493 l-3 452 -104 0 -105 0 0 -835z"/>
<path d="M14610 29845 l0 -835 105 0 105 0 0 244 0 244 62 -25 c54 -22 73 -25
152 -21 114 5 193 39 283 122 l62 57 14 -33 c40 -95 113 -140 240 -146 l87 -4
0 88 0 89 -42 1 c-32 1 -47 8 -65 28 l-23 27 0 500 0 499 -110 0 -110 0 0
-435 0 -434 -61 -65 c-83 -89 -146 -120 -248 -119 -114 0 -172 29 -215 108
-20 39 -21 52 -24 493 l-3 452 -104 0 -105 0 0 -835z"/>
<path d="M20183 30268 c5 -447 7 -473 64 -586 30 -60 120 -150 181 -181 100
-51 285 -67 407 -36 161 42 273 157 321 330 14 50 18 127 21 473 l5 412 -110
0 -111 0 -3 -422 c-3 -410 -4 -425 -26 -478 -25 -63 -79 -122 -134 -145 -23
-9 -68 -15 -118 -15 -50 0 -95 6 -118 15 -55 23 -109 82 -134 145 -22 53 -23
68 -26 478 l-3 422 -111 0 -110 0 5 -412z"/>
<path d="M48420 25549 l-435 -501 0 -137 0 -136 428 -3 427 -2 0 -330 0 -330
125 0 125 0 0 330 0 330 115 0 115 0 0 105 0 105 -115 0 -115 0 0 535 0 535
-117 0 -118 0 -435 -501z m417 -566 c-2 -2 -149 -2 -325 -1 l-322 3 323 374
322 373 3 -372 c1 -205 1 -375 -1 -377z"/>
<path d="M45833 25586 c-72 -18 -172 -69 -249 -127 l-64 -48 0 74 0 75 -120 0
-120 0 0 -995 0 -995 120 0 120 0 0 304 0 304 69 -34 c90 -44 176 -64 285 -64
204 0 367 88 482 261 109 164 158 399 135 643 -14 146 -34 224 -86 331 -91
189 -243 286 -445 284 -41 0 -99 -6 -127 -13z m203 -241 c92 -38 158 -139 188
-287 20 -99 21 -318 1 -412 -27 -130 -94 -240 -176 -291 -114 -73 -310 -73
-473 -1 l-56 25 0 413 1 413 42 32 c68 50 168 101 232 118 73 18 185 13 241
-10z"/>
<path d="M50020 25585 c-173 -39 -338 -171 -419 -336 -70 -143 -85 -215 -85
-424 0 -152 4 -192 22 -256 53 -196 161 -332 327 -415 119 -59 206 -77 375
-77 152 -1 230 15 403 81 l97 37 0 132 c0 73 -4 133 -9 133 -5 0 -36 -18 -68
-40 -74 -49 -181 -95 -270 -116 -96 -22 -277 -15 -353 14 -163 64 -263 213
-277 415 l-6 77 507 0 506 0 0 63 c0 128 -20 281 -49 362 -59 174 -159 276
-331 337 -74 27 -277 34 -370 13z m265 -200 c142 -37 217 -142 240 -332 l6
-53 -386 0 c-438 0 -397 -11 -370 95 39 150 155 268 288 295 69 13 159 11 222
-5z"/>
<path d="M52280 25589 c-244 -20 -429 -150 -529 -371 -57 -125 -65 -175 -66
-388 0 -174 2 -204 23 -275 72 -252 222 -402 457 -460 97 -24 268 -25 365 -1
41 10 114 35 162 55 l88 36 0 138 c0 75 -2 137 -5 137 -3 0 -33 -21 -67 -46
-125 -93 -240 -129 -384 -122 -191 9 -314 118 -371 330 -22 81 -25 327 -4 408
53 212 187 337 372 348 128 7 236 -26 369 -113 46 -30 85 -55 87 -55 2 0 3 62
3 139 l0 139 -77 30 c-160 63 -276 83 -423 71z"/>
<path d="M53335 25585 c-182 -39 -336 -167 -417 -343 -65 -141 -92 -367 -68
-558 25 -198 83 -327 200 -444 122 -123 245 -170 440 -170 195 0 317 47 441
170 116 116 174 245 199 445 16 123 7 300 -20 415 -62 256 -235 437 -465 485
-85 18 -229 18 -310 0z m318 -228 c104 -47 169 -136 209 -285 29 -111 29 -364
0 -474 -40 -150 -98 -230 -200 -280 -63 -31 -73 -33 -172 -33 -93 0 -112 3
-161 26 -142 67 -218 215 -235 456 -7 103 7 254 30 334 44 147 138 247 263
279 69 17 204 6 266 -23z"/>
<path d="M54970 25586 c-67 -19 -121 -49 -202 -115 l-73 -59 -3 74 -3 74 -124
0 -125 0 0 -725 0 -725 125 0 125 0 0 544 0 544 58 46 c31 26 91 63 132 84 67
34 81 37 155 37 90 -1 127 -15 169 -65 57 -69 59 -87 64 -662 l4 -528 119 0
119 0 0 540 0 541 37 32 c112 99 202 140 308 141 93 1 146 -20 182 -74 46 -67
47 -78 50 -642 l4 -538 125 0 125 0 -4 558 c-3 495 -5 564 -21 616 -27 91 -63
154 -120 211 -67 67 -140 96 -258 103 -151 8 -264 -42 -405 -181 -34 -33 -64
-59 -66 -56 -2 2 -16 25 -31 52 -52 91 -124 145 -231 173 -61 17 -175 16 -235
0z"/>
<path d="M38390 25556 c0 -5 358 -1404 366 -1428 5 -16 19 -18 118 -18 l113 0
174 554 c96 305 177 552 180 548 5 -5 168 -516 342 -1070 l11 -33 114 3 115 3
177 700 c97 385 180 710 184 723 l7 22 -124 0 -124 0 -41 -187 c-22 -104 -76
-353 -119 -555 -43 -203 -80 -368 -83 -368 -3 0 -33 89 -67 198 -34 108 -112
358 -174 555 l-112 357 -102 0 -101 0 -169 -554 c-94 -305 -172 -552 -175
-550 -3 3 -61 251 -130 552 l-125 547 -128 3 c-70 1 -127 1 -127 -2z"/>
<path d="M40390 25556 c0 -5 358 -1404 366 -1428 5 -16 19 -18 118 -18 l113 0
174 554 c96 305 177 552 180 548 5 -5 168 -516 342 -1070 l11 -33 114 3 115 3
177 700 c97 385 180 710 184 723 l7 22 -124 0 -124 0 -41 -187 c-22 -104 -76
-353 -119 -555 -43 -203 -80 -368 -83 -368 -3 0 -33 89 -67 198 -34 108 -112
358 -174 555 l-112 357 -102 0 -101 0 -169 -554 c-94 -305 -172 -552 -175
-550 -3 3 -61 251 -130 552 l-125 547 -128 3 c-70 1 -127 1 -127 -2z"/>
<path d="M42390 25556 c0 -5 358 -1404 366 -1428 5 -16 19 -18 118 -18 l113 0
174 554 c96 305 177 552 180 548 5 -5 168 -516 342 -1070 l11 -33 114 3 115 3
177 700 c97 385 180 710 184 723 l7 22 -124 0 -124 0 -41 -187 c-22 -104 -76
-353 -119 -555 -43 -203 -80 -368 -83 -368 -3 0 -33 89 -67 198 -34 108 -112
358 -174 555 l-112 357 -102 0 -101 0 -169 -554 c-94 -305 -172 -552 -175
-550 -3 3 -61 251 -130 552 l-125 547 -128 3 c-70 1 -127 1 -127 -2z"/>
<path d="M46610 25556 c0 -2 117 -310 260 -684 143 -375 260 -687 260 -694 0
-8 -54 -139 -120 -293 -66 -153 -123 -287 -126 -297 -5 -17 4 -18 124 -18
l129 0 378 963 c208 529 384 977 392 995 l13 32 -128 0 -128 0 -194 -527
c-106 -291 -196 -531 -199 -535 -3 -4 -94 233 -202 525 l-196 532 -131 3 c-73
1 -132 1 -132 -2z"/>
<path d="M44510 24295 l0 -185 155 0 155 0 0 185 0 185 -155 0 -155 0 0 -185z"/>
<path d="M51010 24295 l0 -185 155 0 155 0 0 185 0 185 -155 0 -155 0 0 -185z"/>
<path d="M48825 19596 c-5 -3 -27 -7 -47 -11 l-38 -6 0 -123 0 -124 85 6 c64
4 95 1 128 -12 80 -30 167 -137 226 -280 l30 -73 -136 -349 c-172 -442 -451
-1197 -446 -1206 2 -5 69 -8 148 -8 l143 0 87 263 c131 391 316 931 324 939 3
4 94 -252 201 -568 107 -317 200 -589 207 -605 l12 -29 146 0 c80 0 145 2 145
5 0 6 -579 1536 -630 1665 -84 211 -143 321 -213 393 -87 91 -149 119 -271
123 -50 2 -95 2 -101 0z"/>
<path d="M50336 19528 c-19 -40 -61 -131 -95 -202 -33 -71 -61 -130 -61 -132
0 -2 48 -4 108 -4 l107 0 150 191 c83 105 154 198 158 205 7 12 -20 14 -163
14 l-171 0 -33 -72z"/>
<path d="M40190 18485 l0 -1076 143 3 142 3 3 1073 2 1072 -145 0 -145 0 0
-1075z"/>
<path d="M50840 19462 l0 -98 250 -200 c188 -150 245 -201 232 -205 -9 -4 -46
-12 -82 -19 -252 -46 -443 -231 -522 -505 -20 -71 -23 -101 -23 -265 0 -216
11 -272 82 -419 112 -235 347 -371 638 -371 290 0 522 134 639 370 69 140 89
249 83 455 -4 136 -8 173 -31 248 -33 109 -63 169 -122 244 -64 81 -99 111
-456 396 l-318 252 400 3 400 2 0 105 0 105 -585 0 -585 0 0 -98z m753 -755
c74 -34 165 -124 200 -199 46 -98 61 -178 61 -338 0 -170 -16 -247 -71 -352
-42 -80 -113 -149 -193 -187 -50 -23 -67 -26 -175 -26 -110 0 -125 2 -178 27
-116 54 -207 175 -244 325 -24 96 -24 343 1 433 47 171 137 279 279 331 79 29
241 22 320 -14z"/>
<path d="M41315 18985 c-138 -30 -270 -106 -360 -207 -53 -61 -128 -207 -150
-292 -42 -168 -44 -404 -5 -566 51 -209 178 -378 350 -465 107 -54 185 -70
345 -70 111 0 167 5 215 18 206 55 380 211 454 408 44 118 59 211 59 379 1
217 -40 383 -121 504 -18 26 -32 49 -32 52 0 2 79 4 175 4 l175 0 0 110 0 110
-342 0 c-259 1 -359 4 -408 15 -81 18 -274 18 -355 0z m325 -220 c209 -74 310
-286 297 -620 -6 -148 -21 -223 -64 -312 -37 -79 -113 -157 -191 -195 -64 -32
-71 -33 -187 -33 -111 0 -124 2 -176 28 -107 52 -195 164 -233 297 -26 91 -37
252 -26 369 28 269 137 426 335 478 62 16 184 10 245 -12z"/>
<path d="M44462 18981 c-244 -60 -422 -243 -494 -506 -19 -70 -22 -105 -22
-285 0 -180 3 -215 22 -284 72 -260 240 -434 483 -503 91 -25 337 -25 429 1
241 66 411 243 482 501 20 71 22 104 22 290 0 201 -1 214 -28 300 -42 139 -89
218 -181 311 -137 139 -287 195 -517 193 -82 0 -147 -6 -196 -18z m312 -206
c153 -40 257 -156 308 -343 28 -103 31 -361 5 -467 -38 -156 -124 -273 -242
-331 -56 -27 -67 -29 -180 -29 -110 0 -125 2 -178 27 -115 54 -206 177 -244
333 -24 99 -24 364 0 455 38 143 117 260 212 315 88 52 213 67 319 40z"/>
<path d="M46065 18985 c-138 -30 -270 -106 -360 -207 -53 -61 -128 -207 -150
-292 -42 -168 -44 -404 -5 -566 51 -209 178 -378 350 -465 107 -54 185 -70
345 -70 111 0 167 5 215 18 206 55 380 211 454 408 44 118 59 211 59 379 1
217 -40 383 -121 504 -18 26 -32 49 -32 52 0 2 79 4 175 4 l175 0 0 110 0 110
-342 0 c-259 1 -359 4 -408 15 -81 18 -274 18 -355 0z m325 -220 c209 -74 310
-286 297 -620 -6 -148 -21 -223 -64 -312 -37 -79 -113 -157 -191 -195 -64 -32
-71 -33 -187 -33 -111 0 -124 2 -176 28 -107 52 -195 164 -233 297 -26 91 -37
252 -26 369 28 269 137 426 335 478 62 16 184 10 245 -12z"/>
<path d="M47730 18986 c-139 -29 -237 -82 -319 -172 -69 -76 -95 -145 -95
-259 0 -79 3 -96 27 -143 33 -63 90 -121 160 -161 l50 -29 -50 -26 c-80 -40
-165 -125 -199 -198 -26 -56 -29 -74 -29 -158 0 -86 3 -102 31 -161 60 -126
194 -226 361 -270 98 -26 326 -37 432 -20 269 42 477 202 507 390 l7 41 -140
0 -140 0 -12 -39 c-15 -51 -94 -123 -169 -153 -51 -21 -73 -23 -212 -23 -139
1 -161 3 -214 24 -85 34 -150 101 -165 170 -19 89 8 171 78 234 58 53 120 68
299 74 l152 6 0 103 0 104 -102 0 c-213 1 -317 38 -365 129 -46 88 -22 220 51
275 127 96 471 81 560 -25 14 -16 27 -42 31 -59 l7 -30 144 0 144 0 -6 43
c-21 145 -156 267 -359 323 -82 23 -374 29 -465 10z"/>
<path d="M52730 18986 c-139 -29 -237 -82 -319 -172 -69 -76 -95 -145 -95
-259 0 -79 3 -96 27 -143 33 -63 90 -121 160 -161 l50 -29 -50 -26 c-80 -40
-165 -125 -199 -198 -26 -56 -29 -74 -29 -158 0 -86 3 -102 31 -161 60 -126
194 -226 361 -270 98 -26 326 -37 432 -20 269 42 477 202 507 390 l7 41 -140
0 -140 0 -12 -39 c-15 -51 -94 -123 -169 -153 -51 -21 -73 -23 -212 -23 -139
1 -161 3 -214 24 -85 34 -150 101 -165 170 -19 89 8 171 78 234 58 53 120 68
299 74 l152 6 0 103 0 104 -102 0 c-213 1 -317 38 -365 129 -46 88 -22 220 51
275 127 96 471 81 560 -25 14 -16 27 -42 31 -59 l7 -30 144 0 144 0 -6 43
c-21 145 -156 267 -359 323 -82 23 -374 29 -465 10z"/>
<path d="M54271 18990 c-218 -46 -398 -178 -489 -360 -71 -142 -86 -215 -86
-425 -1 -203 9 -255 72 -385 55 -113 176 -231 302 -293 115 -57 240 -90 420
-111 185 -21 273 -54 318 -117 23 -33 31 -84 20 -133 -18 -84 -100 -134 -250
-151 l-58 -6 0 -113 0 -112 90 8 c346 27 539 248 465 533 -50 191 -220 292
-546 325 -400 40 -578 234 -555 605 11 183 59 309 153 404 68 68 144 106 242
123 133 23 286 -17 369 -96 42 -39 59 -71 73 -136 l11 -50 139 0 c158 0 149
-7 123 93 -48 187 -174 312 -379 377 -58 19 -98 23 -230 26 -88 2 -180 -1
-204 -6z"/>
<path d="M42460 18860 l0 -110 275 0 275 0 0 -523 c0 -335 4 -545 11 -582 22
-118 90 -206 188 -240 49 -18 232 -32 276 -21 l26 7 -3 111 -3 112 -68 -3
c-50 -2 -75 2 -94 14 -52 35 -53 42 -53 605 l0 520 288 2 287 3 3 108 3 107
-706 0 -705 0 0 -110z"/>
<path d="M50200 18337 c0 -414 4 -654 11 -692 22 -118 90 -206 188 -240 49
-18 232 -32 275 -21 l26 6 0 113 0 113 -70 -4 c-54 -3 -76 0 -96 13 -54 35
-54 32 -54 715 l0 630 -140 0 -140 0 0 -633z"/>
<path d="M47460 15145 l0 -185 155 0 155 0 0 185 0 185 -155 0 -155 0 0 -185z"/>
<path d="M47460 12065 l0 -185 155 0 155 0 0 185 0 185 -155 0 -155 0 0 -185z"/>
<path d="M47460 8995 l0 -185 155 0 155 0 0 185 0 185 -155 0 -155 0 0 -185z"/>
<path d="M13870 22135 l0 -1015 120 0 120 0 0 303 0 303 50 49 c32 31 53 46
58 39 4 -6 126 -165 272 -352 l264 -342 158 0 c87 0 158 2 158 4 0 2 -149 190
-332 418 -182 227 -331 418 -332 425 -1 6 131 146 292 312 l294 301 -154 -1
-153 0 -285 -306 -285 -306 -3 592 -2 591 -120 0 -120 0 0 -1015z"/>
<path d="M16550 22790 l0 -210 -85 0 -85 0 0 -100 0 -100 85 0 85 0 0 -442 c0
-260 4 -470 11 -508 22 -138 98 -244 213 -296 53 -24 77 -29 174 -32 81 -3
139 1 203 13 l89 17 0 113 0 113 -77 -25 c-97 -31 -204 -29 -270 5 -93 48
-105 132 -101 682 l3 355 223 3 222 2 0 100 0 100 -225 0 -225 0 0 210 0 210
-120 0 -120 0 0 -210z"/>
<path d="M11645 22613 c-220 -29 -411 -188 -491 -409 -73 -199 -72 -516 1
-710 75 -200 223 -339 415 -390 88 -23 263 -23 350 -1 162 43 307 157 382 302
127 245 127 648 0 890 -56 106 -156 206 -256 255 -117 58 -264 81 -401 63z
m267 -240 c156 -70 227 -232 228 -520 0 -231 -41 -366 -139 -462 -69 -67 -139
-93 -251 -93 -145 0 -259 63 -322 179 -55 100 -72 191 -72 373 0 234 35 358
127 453 103 105 284 135 429 70z"/>
<path d="M15626 22604 c-38 -7 -101 -29 -140 -47 -235 -112 -366 -337 -383
-658 -14 -260 54 -475 192 -613 105 -104 229 -163 390 -185 198 -28 336 -7
588 89 l57 21 0 135 c0 74 -3 134 -6 134 -3 0 -26 -14 -50 -31 -68 -46 -202
-106 -280 -125 -84 -20 -230 -23 -304 -5 -125 30 -230 113 -285 224 -29 61
-55 171 -55 240 l0 47 507 0 506 0 -6 143 c-7 162 -29 263 -79 365 -43 87
-134 179 -219 221 -116 57 -285 75 -433 45z m230 -197 c156 -33 236 -136 259
-334 l7 -63 -387 0 -387 0 7 48 c38 255 248 402 501 349z"/>
<path d="M10302 22590 c-203 -55 -335 -199 -349 -382 -10 -128 27 -239 105
-316 64 -65 162 -106 357 -151 190 -44 248 -65 287 -107 32 -34 51 -108 42
-165 -18 -111 -122 -169 -304 -169 -138 0 -288 50 -418 139 -39 27 -73 46 -76
43 -3 -3 -6 -65 -6 -137 l0 -132 68 -30 c160 -72 298 -99 470 -90 179 9 295
53 394 150 125 123 160 334 82 494 -54 111 -148 164 -399 222 -250 58 -303 82
-336 155 -10 23 -19 60 -19 83 -1 227 353 282 653 101 44 -26 82 -48 84 -48 1
0 3 59 3 131 l0 130 -47 21 c-112 50 -211 70 -368 74 -127 4 -161 1 -223 -16z"/>
<path d="M13110 22595 c-179 -40 -337 -163 -418 -325 -71 -144 -85 -216 -85
-425 0 -153 3 -192 21 -260 35 -129 94 -238 171 -314 122 -122 263 -174 471
-175 142 -1 239 20 367 79 l73 34 0 135 c0 75 -3 136 -7 136 -3 0 -29 -17 -57
-39 -127 -96 -229 -133 -366 -134 -107 0 -175 20 -247 73 -55 41 -118 136
-143 218 -61 196 -39 476 48 613 142 223 413 249 686 65 38 -25 73 -46 77 -46
5 0 9 61 9 136 l0 135 -53 23 c-132 59 -216 78 -352 82 -89 3 -150 -1 -195
-11z"/>
<path d="M21882 23089 c-132 -20 -264 -88 -343 -177 -162 -182 -153 -476 19
-633 79 -73 145 -100 390 -164 117 -30 229 -63 250 -74 153 -78 178 -305 46
-420 -51 -46 -110 -68 -208 -81 -177 -24 -375 35 -541 160 -36 27 -70 50 -76
50 -5 0 -9 -60 -9 -144 l0 -143 73 -30 c184 -77 281 -97 472 -97 223 0 333 37
461 156 163 153 202 410 91 597 -68 114 -162 163 -446 236 -113 29 -222 59
-242 68 -168 71 -208 298 -73 416 65 58 116 74 244 79 169 6 295 -33 435 -133
35 -25 66 -45 70 -45 3 0 4 64 3 142 l-3 142 -80 29 c-160 58 -393 87 -533 66z"/>
<path d="M21865 20356 c-265 -51 -456 -226 -544 -501 -42 -130 -55 -247 -48
-432 4 -124 11 -179 31 -257 70 -271 231 -456 463 -532 83 -27 97 -29 258 -29
160 0 175 2 250 28 271 95 437 317 485 648 18 123 8 399 -18 504 -74 294 -258
493 -517 560 -83 22 -273 28 -360 11z m266 -200 c190 -41 323 -187 376 -415
26 -110 26 -415 -1 -521 -67 -270 -238 -420 -480 -420 -249 0 -414 138 -488
407 -19 67 -21 104 -21 273 0 221 13 294 79 428 98 201 305 296 535 248z"/>
<path d="M21895 17614 c-172 -37 -336 -152 -435 -302 -217 -330 -195 -904 45
-1195 143 -173 350 -255 614 -244 147 6 252 33 399 102 l92 44 0 130 c0 75 -4
132 -10 136 -5 3 -40 -18 -77 -48 -132 -106 -252 -154 -408 -164 -306 -19
-516 194 -556 563 -27 253 37 507 162 639 104 110 209 155 363 155 159 0 293
-50 432 -162 48 -39 79 -57 85 -51 5 5 8 65 7 139 l-3 129 -95 47 c-140 69
-226 90 -400 94 -105 3 -164 -1 -215 -12z"/>
<path d="M21470 14020 l0 -850 120 0 120 0 0 341 0 340 43 50 c23 27 44 49 47
49 3 0 143 -175 310 -390 l305 -390 148 0 c81 0 147 2 147 5 0 2 -162 209
-360 460 -199 250 -363 461 -366 468 -2 7 151 180 341 385 190 205 345 374
345 377 0 3 -62 5 -137 5 l-138 0 -340 -382 -340 -382 -3 382 -2 382 -120 0
-120 0 0 -850z"/>
<path d="M21540 11290 l0 -850 535 0 535 0 0 100 0 100 -420 0 -420 0 0 315 0
315 390 0 390 0 0 100 0 100 -390 0 -390 0 0 230 0 230 418 2 417 3 0 100 0
100 -532 3 -533 2 0 -850z"/>
<path d="M21410 9305 l0 -105 285 0 285 0 0 -750 0 -750 115 0 115 0 0 750 0
750 285 0 285 0 0 105 0 105 -685 0 -685 0 0 -105z"/>
<path d="M17377 18493 c-4 -3 -7 -98 -7 -210 l0 -203 -80 0 -80 0 0 -100 0
-100 80 0 80 0 0 -392 c1 -216 5 -438 10 -494 15 -165 63 -263 162 -328 85
-56 150 -69 297 -63 69 3 149 12 176 19 l50 14 3 112 c1 62 1 112 0 112 -2 0
-28 -10 -58 -22 -77 -30 -227 -32 -285 -3 -49 24 -80 70 -94 136 -7 31 -11
211 -11 479 l0 430 225 0 225 0 0 100 0 100 -225 0 -225 0 0 210 0 210 -118 0
c-65 0 -122 -3 -125 -7z"/>
<path d="M10783 18109 c-194 -32 -357 -159 -443 -344 -58 -124 -71 -189 -77
-375 -4 -140 -2 -180 15 -260 27 -127 54 -197 113 -285 116 -173 284 -257 514
-258 196 -1 323 48 447 173 122 124 177 259 199 488 11 121 1 268 -27 382 -60
246 -246 431 -477 475 -85 16 -182 18 -264 4z m293 -239 c154 -75 224 -239
224 -521 0 -332 -108 -513 -327 -548 -235 -37 -402 101 -449 371 -20 113 -14
331 11 423 58 218 193 323 400 310 62 -4 94 -11 141 -35z"/>
<path d="M12426 18104 c-72 -17 -170 -69 -256 -133 l-65 -49 -3 79 -3 79 -119
0 -120 0 0 -730 0 -730 120 0 120 0 0 545 0 544 54 41 c141 104 274 149 384
131 93 -15 128 -36 168 -97 43 -64 47 -116 51 -651 l5 -513 119 0 119 0 0 524
c0 577 -4 623 -59 739 -88 185 -296 274 -515 221z"/>
<path d="M13926 18104 c-72 -17 -170 -69 -256 -133 l-65 -49 -3 79 -3 79 -119
0 -120 0 0 -730 0 -730 120 0 120 0 0 545 0 544 54 41 c141 104 274 149 384
131 93 -15 128 -36 168 -97 43 -64 47 -116 51 -651 l5 -513 119 0 119 0 0 524
c0 577 -4 623 -59 739 -88 185 -296 274 -515 221z"/>
<path d="M15285 18105 c-113 -23 -227 -86 -309 -169 -84 -85 -128 -156 -167
-268 -33 -99 -49 -206 -49 -332 0 -321 129 -559 363 -670 119 -56 191 -70 367
-70 172 0 222 10 403 79 l97 38 0 133 c0 74 -3 134 -6 134 -3 0 -24 -13 -47
-29 -319 -218 -722 -186 -860 68 -35 63 -67 188 -67 258 l0 53 506 0 507 0 -7
138 c-9 176 -26 257 -77 361 -68 138 -175 227 -320 267 -80 22 -250 26 -334 9z
m231 -198 c155 -33 246 -152 256 -337 l3 -55 -382 -3 -383 -2 0 23 c0 12 7 50
16 82 39 151 149 260 294 291 73 16 122 16 196 1z"/>
<path d="M9592 18091 c-242 -61 -403 -230 -473 -496 -28 -106 -31 -361 -6
-475 52 -232 182 -402 365 -475 196 -79 424 -69 648 27 l74 32 0 138 c0 76 -2
138 -5 138 -3 0 -33 -21 -67 -46 -126 -93 -225 -127 -363 -127 -118 0 -185 25
-263 98 -104 96 -152 235 -152 439 0 67 7 152 15 190 57 270 257 408 510 351
82 -18 205 -76 267 -125 20 -17 42 -30 47 -30 7 0 11 47 11 136 l0 135 -53 23
c-131 59 -216 78 -352 82 -103 3 -145 0 -203 -15z"/>
<path d="M16592 18091 c-242 -61 -403 -230 -473 -496 -28 -106 -31 -361 -6
-475 52 -232 182 -402 365 -475 196 -79 424 -69 648 27 l74 32 0 138 c0 76 -2
138 -5 138 -3 0 -33 -21 -67 -46 -126 -93 -225 -127 -363 -127 -118 0 -185 25
-263 98 -104 96 -152 235 -152 439 0 67 7 152 15 190 57 270 257 408 510 351
82 -18 205 -76 267 -125 20 -17 42 -30 47 -30 7 0 11 47 11 136 l0 135 -53 23
c-131 59 -216 78 -352 82 -103 3 -145 0 -203 -15z"/>
<path d="M34540 17094 c-158 -34 -311 -147 -375 -278 -43 -87 -59 -169 -51
-261 7 -88 26 -145 73 -213 31 -46 129 -132 188 -168 16 -9 12 -14 -31 -39
-68 -40 -150 -119 -196 -189 -55 -85 -80 -172 -81 -281 -2 -266 139 -465 390
-552 102 -35 299 -44 408 -19 218 52 397 219 450 423 17 65 19 217 4 282 -27
119 -137 250 -267 319 l-63 34 58 37 c273 178 319 550 94 764 -137 131 -382
189 -601 141z m323 -217 c66 -33 120 -91 141 -155 32 -93 14 -270 -36 -351
-36 -59 -119 -141 -142 -141 -39 0 -302 136 -351 181 -73 67 -90 107 -90 214
0 99 12 133 69 193 62 67 139 93 262 89 75 -2 100 -7 147 -30z m-173 -843
c202 -84 309 -161 346 -249 9 -22 19 -77 22 -121 10 -161 -58 -288 -186 -351
-52 -26 -67 -28 -167 -28 -101 0 -114 2 -163 28 -105 55 -173 147 -198 268
-37 174 24 357 155 470 25 21 48 39 51 39 3 0 66 -25 140 -56z"/>
<path d="M36116 17099 c-234 -26 -388 -166 -469 -424 -52 -168 -62 -255 -62
-580 0 -325 10 -412 62 -580 95 -305 298 -452 598 -432 151 10 257 56 352 153
101 103 169 271 205 504 18 114 18 586 0 700 -74 484 -302 703 -686 659z m235
-251 c152 -89 207 -328 196 -843 -7 -325 -34 -471 -106 -580 -59 -89 -164
-134 -280 -121 -181 21 -273 163 -302 466 -7 72 -10 221 -6 400 7 362 28 481
108 597 59 86 126 115 254 110 77 -2 98 -7 136 -29z"/>
<path d="M28500 16095 l0 -975 130 0 130 0 0 360 0 360 124 0 c338 0 521 56
671 205 65 65 122 162 151 260 27 90 25 268 -4 361 -42 137 -143 253 -277 318
-139 69 -275 86 -667 86 l-258 0 0 -975z m616 734 c156 -22 257 -85 305 -192
21 -45 24 -67 24 -172 0 -111 -2 -124 -28 -177 -58 -117 -162 -187 -310 -207
-43 -6 -139 -11 -213 -11 l-134 0 0 385 0 385 139 0 c77 0 174 -5 217 -11z"/>
<path d="M32490 16790 l0 -210 -80 0 -80 0 0 -105 0 -105 80 0 80 0 0 -408 c0
-426 7 -537 41 -628 41 -108 125 -187 238 -222 76 -23 259 -21 356 5 l70 18 3
113 c1 61 -1 112 -6 112 -5 0 -35 -9 -68 -21 -69 -24 -199 -30 -255 -11 -47
16 -84 57 -104 111 -13 37 -15 113 -15 487 l0 444 223 2 222 3 3 103 3 102
-225 0 -226 0 -2 208 -3 207 -127 3 -128 3 0 -211z"/>
<path d="M30352 16600 c-240 -63 -405 -256 -457 -535 -13 -70 -16 -126 -12
-255 5 -192 19 -253 84 -389 83 -174 228 -287 415 -325 302 -62 583 64 707
315 72 146 85 214 85 439 0 169 -3 206 -22 275 -69 252 -226 418 -448 475
-102 26 -252 26 -352 0z m350 -233 c94 -46 157 -132 194 -268 26 -92 27 -396
1 -489 -38 -141 -105 -231 -207 -279 -48 -23 -68 -26 -160 -26 -93 0 -112 3
-162 27 -107 50 -182 158 -213 306 -20 99 -20 329 1 430 35 170 117 276 247
318 27 9 78 13 142 11 86 -2 108 -6 157 -30z"/>
<path d="M31480 15850 l0 -730 125 0 125 0 0 520 0 520 52 41 c114 90 212 122
366 118 l107 -3 0 130 0 129 -82 3 c-129 4 -234 -39 -380 -157 l-63 -51 0 105
0 105 -125 0 -125 0 0 -730z"/>
<path d="M15970 13835 l0 -315 -48 24 c-136 69 -291 91 -425 62 -118 -27 -190
-67 -284 -161 -67 -68 -89 -99 -127 -176 -79 -164 -106 -333 -87 -543 37 -412
228 -640 536 -640 141 0 242 37 365 132 l65 51 3 -74 3 -75 119 0 120 0 0
1015 0 1015 -120 0 -120 0 0 -315z m-156 -460 c32 -8 80 -25 107 -36 l49 -21
0 -419 0 -418 -42 -34 c-56 -45 -148 -94 -216 -113 -86 -25 -213 -16 -280 21
-124 67 -182 224 -182 488 0 158 17 246 65 344 42 85 112 153 188 182 66 25
225 28 311 6z"/>
<path d="M12685 13604 c-151 -29 -302 -131 -389 -263 -99 -148 -130 -268 -130
-501 0 -141 3 -177 22 -250 89 -327 335 -500 712 -500 126 0 239 26 433 100
l57 21 0 135 c0 74 -3 134 -6 134 -3 0 -26 -14 -50 -31 -68 -46 -202 -106
-280 -125 -84 -20 -230 -23 -304 -5 -125 30 -230 113 -285 224 -29 61 -55 171
-55 240 l0 47 507 0 506 0 -6 143 c-7 161 -29 264 -79 364 -43 87 -135 180
-220 222 -114 56 -286 74 -433 45z m221 -195 c160 -29 246 -137 269 -336 l7
-63 -387 0 -387 0 7 48 c37 252 240 397 491 351z"/>
<path d="M14200 13613 c-93 -15 -198 -67 -297 -144 l-63 -49 0 80 0 80 -125 0
-125 0 2 -727 3 -728 123 -3 122 -3 0 548 1 548 57 41 c135 96 220 129 334
127 93 -2 154 -26 192 -76 59 -77 59 -85 65 -657 l6 -525 120 0 120 0 0 535
c0 522 -1 537 -22 619 -26 94 -57 155 -116 218 -84 91 -252 140 -397 116z"/>
<path d="M11362 13590 c-203 -55 -335 -199 -349 -382 -10 -128 27 -239 105
-316 64 -65 162 -106 357 -151 190 -44 248 -65 287 -107 32 -34 51 -108 42
-165 -19 -120 -138 -177 -341 -166 -140 7 -258 51 -390 142 -34 24 -64 41 -67
37 -3 -3 -6 -65 -6 -137 l0 -132 68 -30 c160 -72 298 -99 470 -90 179 9 295
53 394 150 125 123 160 334 82 494 -54 111 -148 164 -399 222 -192 45 -243 61
-287 92 -38 27 -67 91 -68 146 -1 227 353 282 653 101 44 -26 82 -48 84 -48 1
0 3 59 3 131 l0 130 -42 19 c-117 51 -218 72 -373 76 -127 4 -161 1 -223 -16z"/>
<path d="M12755 9104 c-247 -48 -436 -248 -501 -529 -26 -111 -26 -348 -1
-460 77 -338 330 -524 713 -525 129 0 241 25 437 100 l57 21 0 135 c0 74 -3
134 -6 134 -3 0 -24 -13 -47 -29 -134 -91 -287 -142 -437 -144 -161 -2 -282
43 -365 135 -76 84 -124 217 -125 341 l0 47 507 0 506 0 -6 143 c-7 162 -30
268 -80 367 -42 85 -134 178 -218 219 -117 57 -285 75 -434 45z m231 -197
c156 -33 237 -138 260 -336 l7 -61 -388 0 -387 0 7 48 c38 255 248 402 501
349z"/>
<path d="M14060 9089 c-202 -53 -331 -160 -419 -350 -63 -135 -90 -318 -72
-497 15 -144 32 -209 86 -318 36 -74 58 -104 117 -160 128 -121 257 -167 468
-168 137 -1 211 15 355 75 l75 32 0 138 c0 77 -3 139 -6 139 -3 0 -24 -15 -47
-34 -113 -92 -246 -140 -382 -139 -115 1 -184 26 -258 93 -101 93 -146 210
-154 405 -12 283 70 471 242 556 147 72 360 35 540 -95 27 -20 53 -36 57 -36
5 0 8 61 8 135 l0 135 -37 18 c-171 86 -406 115 -573 71z"/>
<path d="M11490 8350 l0 -730 120 0 120 0 0 516 0 515 36 33 c49 45 128 92
200 118 48 18 80 22 177 22 l117 0 0 122 0 123 -36 7 c-120 22 -283 -40 -435
-167 -26 -22 -50 -39 -53 -39 -3 0 -6 47 -6 105 l0 105 -120 0 -120 0 0 -730z"/>
<path d="M14671 9053 c5 -16 128 -343 272 -728 l262 -700 107 -3 c94 -2 108
-1 116 15 12 22 542 1429 542 1437 0 4 -57 5 -126 4 l-126 -3 -196 -557 c-108
-307 -199 -552 -203 -545 -3 6 -93 258 -200 560 l-194 547 -132 0 -132 0 10
-27z"/>
</g>
</svg>
