<?xml version="1.0" standalone="no"?>
<!DOCTYPE svg PUBLIC "-//W3C//DTD SVG 20010904//EN"
 "http://www.w3.org/TR/2001/REC-SVG-20010904/DTD/svg10.dtd">
<svg version="1.0" xmlns="http://www.w3.org/2000/svg"
 width="6067.000000pt" height="2617.000000pt" viewBox="0 0 6067.000000 2617.000000"
 preserveAspectRatio="xMidYMid meet">

<g transform="translate(0.000000,2617.000000) scale(0.100000,-0.100000)"
fill="#000000" stroke="none">
<path d="M29755 25909 c-2659 -99 -4849 -853 -5381 -1853 -347 -652 37 -1318
1071 -1857 527 -275 1238 -509 2040 -673 225 -46 565 -104 735 -127 52 -7 98
-15 102 -18 4 -4 -4445 -1194 -9888 -2645 -5480 -1461 -9899 -2635 -9904
-2630 -4 5 -45 150 -90 322 -46 171 -86 312 -89 312 -3 -1 -422 -298 -931
-660 l-924 -660 -221 0 c-391 0 -969 -28 -1370 -65 -2296 -216 -4062 -917
-4531 -1799 -347 -652 37 -1318 1071 -1857 895 -467 2256 -795 3745 -903 246
-18 631 -36 830 -39 l145 -2 0 -1050 0 -1050 -332 -3 c-183 -1 -333 -6 -333
-11 0 -4 186 -505 414 -1112 l414 -1104 -2271 -5 -2272 -6 -121 -26 c-243 -55
-480 -159 -674 -296 -122 -86 -326 -290 -412 -412 -137 -194 -242 -432 -295
-674 l-27 -121 -3 -1489 c-4 -1621 -4 -1603 52 -1821 128 -493 480 -921 940
-1146 128 -62 311 -123 456 -151 l114 -22 4425 -4 c3015 -2 4466 0 4554 8 310
25 589 124 856 303 144 97 360 313 457 457 179 267 278 545 304 856 7 86 9
607 6 1554 -3 1418 -3 1426 -25 1539 -146 758 -754 1337 -1509 1436 -98 13
-418 15 -2329 15 -1217 0 -2214 2 -2214 5 0 3 187 503 415 1112 228 608 415
1108 415 1110 0 1 -151 3 -335 3 l-335 0 2 1053 3 1052 145 2 c224 3 599 22
885 44 2222 170 4027 809 4650 1646 172 231 253 497 225 736 -31 270 -166 516
-416 757 -232 225 -501 403 -899 596 -575 278 -1339 512 -2143 656 -129 23
-186 37 -192 48 -9 18 -140 507 -140 524 0 6 4185 1127 10128 2711 5570 1485
10145 2709 10167 2720 28 14 47 33 62 64 12 24 24 45 26 47 1 2 88 -3 193 -11
104 -7 302 -19 439 -25 138 -6 256 -12 264 -13 7 -1 -1503 -1013 -3358 -2249
l-3371 -2248 -187 281 c-169 253 -188 279 -201 262 -7 -10 -315 -438 -685
-950 l-671 -933 -185 0 c-358 0 -950 -29 -1336 -65 -2296 -216 -4062 -917
-4531 -1799 -347 -652 37 -1318 1071 -1857 895 -467 2256 -795 3745 -903 246
-18 631 -36 830 -39 l145 -2 0 -1050 0 -1050 -332 -3 c-183 -1 -333 -6 -333
-11 0 -4 186 -505 414 -1112 l414 -1104 -2271 -5 -2272 -6 -121 -26 c-243 -55
-480 -159 -674 -296 -122 -86 -326 -290 -412 -412 -137 -194 -242 -432 -295
-674 l-27 -121 -3 -1489 c-3 -1289 -2 -1505 12 -1606 98 -757 674 -1364 1436
-1512 l114 -22 4425 -4 c3015 -2 4466 0 4554 8 310 25 589 124 856 303 144 97
360 313 457 457 179 267 278 545 304 856 7 86 9 607 6 1554 -3 1418 -3 1426
-25 1539 -146 758 -754 1337 -1509 1436 -98 13 -418 15 -2329 15 -1217 0
-2214 2 -2214 5 0 3 187 503 415 1112 228 608 415 1108 415 1110 0 1 -151 3
-335 3 l-335 0 2 1053 3 1052 145 2 c794 11 1795 116 2504 263 54 11 99 20
100 20 0 0 1 -89 2 -197 0 -167 4 -215 23 -303 151 -703 715 -1212 1420 -1280
140 -14 9138 -13 9272 1 553 56 1031 384 1278 877 222 442 222 953 1 1394
-221 442 -614 745 -1115 860 l-100 23 -3932 5 -3932 5 45 65 c148 212 220 469
194 693 -31 270 -166 516 -416 757 -232 225 -501 403 -899 596 -1036 502
-2529 811 -4219 874 -148 6 -271 11 -272 13 -2 2 472 114 1052 249 581 136
1059 249 1062 252 3 3 -77 130 -178 281 -108 163 -180 279 -174 284 24 22
6980 4654 6990 4654 13 0 12747 -5092 12756 -5101 3 -4 -49 -145 -117 -314
l-122 -306 81 -6 c65 -4 874 -22 1226 -27 51 -1 -4 -9 -170 -24 -611 -57
-1093 -127 -1590 -231 -1700 -356 -2867 -1007 -3116 -1735 -207 -610 192
-1205 1141 -1700 745 -388 1831 -687 3035 -834 632 -77 1149 -107 1845 -108
504 0 759 9 1210 44 551 42 1162 124 1619 219 54 11 99 20 100 20 0 0 1 -89 2
-197 0 -167 4 -215 23 -303 151 -703 715 -1212 1420 -1280 140 -14 9138 -13
9272 1 553 56 1031 384 1278 877 222 442 222 953 1 1394 -221 442 -614 745
-1115 860 l-100 23 -3932 5 -3932 5 45 65 c148 212 220 469 194 693 -31 270
-166 516 -416 757 -451 436 -1203 799 -2217 1069 -958 256 -2228 411 -3368
411 l-206 0 -847 773 c-466 424 -851 773 -855 775 -5 2 -64 -135 -131 -303
-67 -168 -127 -305 -134 -305 -6 0 -2769 1104 -6141 2452 l-6130 2453 145 7
c2416 123 4410 781 5075 1675 172 231 253 497 225 736 -31 270 -166 516 -416
757 -232 225 -501 403 -899 596 -1275 618 -3302 949 -5340 873z m1225 -169
c299 -13 630 -36 885 -61 2335 -230 4061 -961 4343 -1839 66 -204 51 -413 -44
-618 -188 -408 -718 -801 -1489 -1105 -1012 -399 -2304 -633 -3805 -687 l-295
-11 -75 31 c-137 56 -157 61 -202 49 -22 -6 -63 -26 -90 -45 -59 -40 -31 -38
-428 -24 -305 11 -695 36 -810 51 -41 6 -131 14 -200 18 -275 19 -881 107
-1270 186 -1076 217 -1942 548 -2473 946 -324 243 -510 482 -585 751 -13 48
-17 100 -16 213 0 136 3 158 28 235 126 383 499 731 1111 1038 998 498 2480
807 4200 875 195 8 1010 6 1215 -3z m-24000 -10500 c299 -13 630 -36 885 -61
2335 -230 4061 -961 4343 -1839 66 -204 51 -413 -44 -618 -188 -408 -718 -801
-1489 -1105 -1022 -403 -2319 -636 -3843 -688 l-343 -12 -32 30 c-45 43 -69
53 -122 53 -53 0 -77 -10 -122 -53 l-32 -30 -348 12 c-1812 61 -3357 391
-4381 936 -563 299 -907 646 -1010 1017 -13 48 -17 100 -16 213 0 136 3 158
28 235 126 383 499 731 1111 1038 998 498 2480 807 4200 875 195 8 1010 6
1215 -3z m15000 0 c299 -13 630 -36 885 -61 2335 -230 4061 -961 4343 -1839
49 -152 53 -320 12 -470 -29 -105 -108 -260 -185 -362 l-66 -87 -662 -3 c-642
-4 -665 -4 -770 -26 -569 -120 -1036 -534 -1209 -1075 -18 -56 -33 -103 -33
-104 -4 -10 -489 -97 -761 -137 -572 -83 -1050 -125 -1702 -147 l-343 -12 -32
30 c-45 43 -69 53 -122 53 -53 0 -77 -10 -122 -53 l-32 -30 -348 12 c-1812 61
-3357 391 -4381 936 -563 299 -907 646 -1010 1017 -13 48 -17 100 -16 213 0
136 3 158 28 235 126 383 499 731 1111 1038 998 498 2480 807 4200 875 195 8
1010 6 1215 -3z m24000 0 c299 -13 630 -36 885 -61 2335 -230 4061 -961 4343
-1839 49 -152 53 -320 12 -470 -29 -105 -108 -260 -185 -362 l-66 -87 -662 -3
c-642 -4 -665 -4 -770 -26 -569 -120 -1036 -534 -1209 -1075 -18 -56 -33 -103
-33 -104 -4 -10 -488 -97 -761 -137 -2723 -398 -5816 -10 -7305 917 -429 267
-699 571 -787 889 -13 48 -17 100 -16 213 0 136 3 158 28 235 126 383 499 731
1111 1038 998 498 2480 807 4200 875 195 8 1010 6 1215 -3z m-15634 -2980 c6
-6 836 -11 2359 -13 l2350 -3 86 -21 c188 -47 354 -119 495 -214 556 -375 765
-1106 498 -1740 -160 -381 -521 -695 -917 -798 -201 -52 85 -49 -5087 -56
l-4805 -7 -85 87 c-48 49 -122 111 -170 142 -329 215 -541 523 -626 913 -27
121 -27 448 -1 570 41 191 113 362 219 522 83 125 245 285 373 370 60 40 138
106 195 163 l95 95 2505 0 c1630 0 2509 -3 2516 -10z m28448 2 c3 -5 63 -12
133 -15 253 -13 496 -94 709 -238 556 -375 765 -1106 498 -1740 -134 -319
-414 -599 -733 -733 -115 -49 -214 -77 -361 -103 -88 -16 -431 -17 -4734 -20
-2929 -2 -4643 0 -4650 6 -6 5 -57 19 -113 30 -558 114 -975 532 -1099 1101
-27 121 -27 448 -1 570 61 286 187 521 387 720 200 201 444 331 720 385 47 10
92 23 100 31 12 12 688 14 4577 14 2509 0 4564 -4 4567 -8z m-47889 -6027
c350 -53 637 -197 885 -445 256 -256 411 -581 450 -946 8 -79 10 -507 8 -1574
l-3 -1465 -23 -108 c-33 -157 -74 -276 -142 -412 -217 -435 -608 -731 -1107
-837 l-108 -23 -4465 -3 c-3333 -2 -4493 0 -4574 8 -270 29 -532 127 -753 283
-101 71 -277 243 -343 335 -167 231 -267 483 -300 752 -8 69 -10 504 -8 1600
4 1497 4 1505 25 1595 37 157 73 256 138 390 229 466 692 792 1220 858 17 2
2048 5 4515 5 3948 2 4497 0 4585 -13z m15000 0 c350 -53 637 -197 885 -445
256 -256 411 -581 450 -946 8 -79 10 -507 8 -1574 l-3 -1465 -23 -108 c-33
-157 -74 -276 -142 -412 -217 -435 -608 -731 -1107 -837 l-108 -23 -4465 -3
c-3333 -2 -4493 0 -4574 8 -270 29 -532 127 -753 283 -101 71 -277 243 -343
335 -167 231 -267 483 -300 752 -8 69 -10 504 -8 1600 4 1497 4 1505 25 1595
37 157 73 256 138 390 229 466 692 792 1220 858 17 2 2048 5 4515 5 3948 2
4497 0 4585 -13z"/>
<path d="M28608 24323 c-22 -49 -46 -100 -54 -115 l-15 -28 63 0 63 1 70 90
c39 50 78 101 88 115 l19 24 -97 0 -96 0 -41 -87z"/>
<path d="M28511 24070 c-67 -14 -125 -47 -169 -95 -79 -85 -112 -187 -112
-350 0 -212 67 -348 207 -417 58 -28 75 -32 147 -32 62 0 93 6 131 23 55 24
109 71 131 114 15 27 34 29 34 2 0 -8 9 -39 21 -70 l20 -55 76 0 c67 0 74 2
68 18 -18 46 -55 188 -76 288 -22 104 -22 118 -10 190 12 75 71 318 86 357 7
16 1 18 -71 15 l-78 -3 -21 -67 -21 -67 -44 51 c-27 31 -63 60 -94 74 -58 26
-160 37 -225 24z m209 -148 c35 -22 53 -43 80 -96 34 -67 35 -72 35 -185 0
-130 -15 -191 -65 -260 -82 -113 -250 -114 -322 -2 -43 68 -60 139 -60 249 1
222 90 342 242 326 25 -2 65 -17 90 -32z"/>
<path d="M30200 24067 c-73 -17 -153 -61 -197 -110 -145 -161 -145 -503 1
-664 139 -154 434 -158 580 -9 81 84 116 186 116 341 0 219 -83 364 -245 424
-69 26 -185 34 -255 18z m218 -143 c52 -31 97 -97 113 -168 18 -80 8 -261 -17
-316 -25 -55 -76 -108 -124 -128 -53 -23 -146 -20 -197 6 -99 51 -138 141
-137 312 1 125 14 177 60 237 70 92 200 117 302 57z"/>
<path d="M32048 24070 c-116 -20 -223 -100 -271 -203 -33 -70 -47 -141 -47
-242 0 -152 36 -259 116 -340 140 -145 409 -149 564 -9 93 85 143 262 121 432
-19 151 -87 261 -198 320 -88 46 -179 60 -285 42z m192 -140 c105 -54 161
-222 131 -395 -28 -158 -107 -238 -236 -239 -114 0 -197 65 -231 182 -19 64
-21 219 -4 283 26 97 91 169 172 190 46 11 124 1 168 -21z"/>
<path d="M29110 24000 l0 -59 153 -3 152 -3 5 -325 c4 -230 9 -331 17 -346 35
-61 141 -104 219 -89 l34 6 0 63 c0 62 -1 63 -25 58 -39 -7 -71 5 -83 33 -8
18 -12 116 -12 315 l0 290 160 0 160 0 0 60 0 60 -390 0 -390 0 0 -60z"/>
<path d="M30865 24048 c-3 -7 -4 -276 -3 -598 l3 -585 78 -3 77 -3 0 175 0
175 38 -16 c95 -41 235 -9 317 74 l39 40 19 -39 c27 -54 89 -88 164 -91 l58
-2 3 63 c3 60 2 62 -21 62 -14 0 -35 9 -48 19 l-24 19 -3 361 -3 361 -75 0
-74 0 0 -311 0 -312 -35 -43 c-20 -25 -58 -54 -90 -70 -48 -23 -64 -26 -117
-21 -70 6 -105 27 -130 78 -16 30 -18 69 -18 357 l0 322 -75 0 c-51 0 -77 -4
-80 -12z"/>
<path d="M4580 13490 c-16 -33 -41 -84 -54 -115 l-25 -55 59 0 59 0 77 98 c42
53 84 105 92 115 14 16 10 17 -81 17 l-97 0 -30 -60z"/>
<path d="M4485 13206 c-197 -48 -295 -196 -295 -441 0 -161 35 -260 122 -347
78 -78 213 -116 344 -97 216 30 334 183 336 434 1 118 -13 189 -55 268 -80
152 -268 228 -452 183z m211 -134 c77 -39 119 -111 135 -230 21 -159 -23 -305
-109 -367 -41 -28 -50 -30 -132 -30 -83 0 -91 2 -132 31 -136 98 -156 419 -34
552 63 70 184 89 272 44z"/>
<path d="M6160 13209 c-116 -23 -229 -118 -270 -226 -71 -189 -39 -426 75
-552 100 -110 314 -148 469 -82 60 26 142 103 172 163 52 102 69 264 43 390
-48 228 -249 354 -489 307z m213 -142 c45 -27 84 -76 108 -137 9 -24 14 -77
14 -165 0 -115 -3 -136 -23 -180 -46 -100 -113 -145 -214 -145 -151 1 -232 96
-245 287 -13 182 47 314 162 358 57 21 144 13 198 -18z"/>
<path d="M7957 13210 c-123 -31 -214 -131 -252 -277 -18 -68 -20 -239 -4 -315
27 -126 94 -220 194 -269 54 -26 76 -31 137 -31 40 -1 91 4 114 11 57 15 120
63 153 117 28 43 29 44 35 19 4 -14 16 -50 27 -80 l20 -55 70 0 c38 0 69 3 69
8 0 4 -20 88 -45 187 -25 99 -46 200 -47 225 0 45 44 254 81 383 l20 68 -77
-3 -77 -3 -19 -60 c-11 -33 -21 -62 -22 -64 -2 -2 -24 19 -48 46 -28 31 -65
59 -97 73 -59 25 -173 35 -232 20z m217 -144 c171 -100 165 -500 -9 -601 -59
-35 -142 -35 -201 0 -143 84 -162 460 -30 584 60 56 161 63 240 17z"/>
<path d="M5070 13193 c0 -13 313 -838 323 -850 6 -8 33 -13 67 -13 34 0 62 5
67 13 10 12 323 837 323 850 0 4 -37 7 -81 5 l-82 -3 -110 -327 c-61 -181
-113 -328 -116 -328 -4 0 -56 147 -117 328 l-112 327 -81 3 c-44 2 -81 0 -81
-5z"/>
<path d="M6822 12603 l3 -598 78 -3 77 -3 0 175 0 175 38 -16 c22 -9 65 -15
105 -15 82 0 152 30 211 91 l39 40 19 -39 c24 -47 68 -77 135 -89 82 -16 93
-9 93 60 0 56 -1 59 -24 59 -13 0 -34 9 -47 19 l-24 19 -3 361 -3 361 -74 0
-75 0 0 -313 0 -314 -58 -56 c-65 -61 -118 -82 -188 -74 -53 6 -92 26 -118 60
-20 27 -21 42 -24 363 l-3 334 -79 0 -80 0 2 -597z"/>
<path d="M19903 13543 c-21 -4 -23 -10 -23 -72 l0 -68 58 1 c79 1 118 -29 167
-127 l36 -73 -94 -245 c-115 -297 -227 -601 -227 -617 0 -17 144 -16 157 1 6
6 59 157 118 335 60 177 111 320 114 316 3 -3 56 -152 117 -332 l111 -327 82
-3 c44 -2 81 0 81 4 0 20 -358 952 -396 1030 -73 154 -160 204 -301 177z"/>
<path d="M20924 13443 c-27 -58 -50 -110 -52 -115 -2 -4 23 -8 56 -8 l59 0 86
110 c48 60 87 112 87 115 0 3 -42 5 -93 5 l-94 0 -49 -107z"/>
<path d="M19327 13210 c-55 -14 -93 -36 -143 -82 l-44 -41 0 57 0 56 -75 0
-75 0 0 -435 0 -435 75 0 75 0 0 314 0 314 50 45 c67 60 124 87 186 87 62 0
113 -25 139 -70 19 -34 20 -53 23 -527 l3 -493 74 0 75 0 0 487 c0 418 -2 495
-16 544 -20 70 -67 129 -127 158 -49 24 -164 35 -220 21z"/>
<path d="M20869 13211 c-126 -24 -218 -98 -240 -194 -19 -89 18 -174 95 -214
29 -15 29 -17 12 -27 -44 -25 -100 -84 -117 -121 -40 -87 -15 -181 65 -252 78
-69 212 -99 364 -82 140 16 265 102 290 199 l10 40 -77 0 -76 0 -20 -37 c-30
-55 -82 -77 -188 -82 -104 -4 -162 14 -202 60 -48 58 -24 158 47 195 23 12 64
19 131 22 l97 4 0 58 0 58 -92 4 c-112 5 -153 23 -175 76 -49 117 65 203 232
175 75 -13 112 -33 125 -69 9 -22 14 -24 85 -24 l75 0 0 28 c0 62 -79 139
-174 168 -61 18 -204 26 -267 15z"/>
<path d="M21582 13201 c-96 -33 -175 -119 -207 -224 -23 -75 -30 -214 -16
-289 24 -122 95 -235 187 -299 50 -34 143 -69 186 -69 l28 0 0 -160 0 -160 75
0 74 0 3 157 3 156 55 11 c61 13 124 42 176 84 36 28 108 124 123 164 9 23 9
23 16 -7 40 -156 140 -247 273 -247 109 -1 177 47 213 151 l12 34 18 -48 c36
-95 103 -139 209 -138 77 1 132 27 185 85 126 140 139 422 32 688 l-43 105
-77 3 -76 3 30 -73 c56 -130 81 -249 82 -383 1 -146 -18 -222 -68 -272 -28
-28 -40 -33 -82 -33 -57 0 -80 19 -110 85 -14 33 -18 78 -21 248 l-4 207 -73
0 -72 0 -6 -197 c-5 -220 -19 -287 -64 -322 -41 -33 -104 -28 -147 9 -56 49
-71 110 -70 275 1 153 15 224 73 370 17 42 31 78 31 81 0 2 -31 4 -70 4 l-70
0 -21 -42 c-12 -24 -34 -76 -49 -117 l-27 -74 -26 56 c-56 124 -154 190 -282
191 -83 1 -133 -20 -172 -70 -49 -65 -52 -88 -53 -405 l0 -296 -25 5 c-49 9
-130 66 -163 116 -51 77 -65 142 -60 271 8 162 46 239 131 260 25 7 27 10 27
66 0 68 -3 69 -88 40z m469 -124 c69 -47 119 -208 103 -337 -15 -123 -82 -232
-169 -271 -80 -37 -75 -52 -75 244 1 144 5 282 9 307 15 77 68 100 132 57z"/>
<path d="M24413 13210 c-110 -23 -211 -98 -260 -194 -50 -99 -66 -257 -39
-387 37 -172 154 -285 323 -309 183 -26 352 56 422 204 68 143 67 356 -3 493
-34 67 -122 146 -193 173 -64 24 -187 34 -250 20z m161 -121 c52 -14 119 -79
147 -142 20 -45 24 -68 24 -172 0 -137 -11 -185 -58 -247 -83 -110 -255 -121
-349 -21 -93 97 -106 368 -25 488 59 87 158 123 261 94z"/>
<path d="M18150 13140 l0 -60 155 0 154 0 3 -329 c3 -315 4 -331 24 -357 11
-15 31 -36 45 -46 30 -22 116 -39 163 -31 l36 6 0 63 0 63 -34 -6 c-28 -4 -39
-1 -60 20 l-26 26 0 296 0 295 160 0 160 0 0 60 0 60 -390 0 -390 0 0 -60z"/>
<path d="M23320 13190 c0 -5 63 -177 141 -382 78 -205 150 -397 161 -425 l19
-53 64 0 c51 0 66 4 74 18 10 19 321 840 321 848 0 3 -37 4 -82 2 l-83 -3
-107 -315 c-58 -173 -109 -324 -113 -335 -4 -14 -17 12 -45 95 -22 63 -74 215
-116 338 l-76 222 -79 0 c-44 0 -79 -4 -79 -10z"/>
<path d="M46790 13055 l0 -635 75 0 75 0 0 635 0 635 -75 0 -75 0 0 -635z"/>
<path d="M46440 13560 l0 -80 90 0 90 0 0 80 0 80 -90 0 -90 0 0 -80z"/>
<path d="M43679 13335 c-144 -53 -237 -161 -274 -317 -19 -81 -19 -215 0 -296
49 -206 208 -322 441 -322 82 0 219 31 285 65 28 15 29 17 29 95 0 44 -3 80
-7 80 -5 0 -28 -14 -53 -30 -107 -71 -279 -97 -382 -57 -92 36 -157 132 -172
260 l-6 47 316 0 316 0 -4 113 c-6 143 -29 208 -102 282 -70 72 -135 95 -259
94 -51 0 -108 -6 -128 -14z m196 -116 c85 -24 132 -85 142 -185 l6 -54 -241 0
-240 0 9 41 c35 156 173 240 324 198z"/>
<path d="M44574 13329 c-23 -11 -60 -36 -82 -55 -22 -19 -43 -34 -46 -34 -3 0
-6 20 -6 45 l0 46 -77 -3 -78 -3 -3 -452 -2 -453 80 0 80 0 0 343 1 342 42 32
c99 74 194 91 256 46 54 -41 56 -50 59 -420 l3 -343 75 0 74 0 0 340 0 340 59
43 c123 91 246 86 289 -11 13 -31 17 -93 20 -374 l4 -338 75 0 74 0 -3 358
c-3 301 -6 364 -20 400 -45 118 -121 172 -242 172 -88 0 -148 -26 -226 -97
l-56 -51 -22 38 c-25 44 -72 82 -121 99 -55 18 -160 13 -207 -10z"/>
<path d="M45744 13336 c-122 -23 -114 -16 -114 -105 l0 -77 69 23 c97 32 198
45 275 34 71 -10 110 -31 131 -70 18 -35 30 -121 17 -121 -33 0 -226 -22 -272
-31 -201 -40 -295 -140 -293 -310 1 -88 31 -157 93 -212 57 -52 112 -70 201
-69 79 1 149 26 218 76 27 20 51 36 55 36 3 0 6 -20 6 -45 l0 -45 76 0 75 0
-4 358 c-2 275 -6 366 -17 397 -20 56 -95 128 -155 149 -67 24 -265 30 -361
12z m386 -566 c0 -117 0 -120 -27 -145 -16 -14 -55 -39 -87 -55 -49 -25 -71
-30 -130 -30 -117 0 -170 47 -171 151 0 43 5 65 21 86 28 38 78 71 128 84 48
13 247 38 259 32 4 -2 7 -58 7 -123z"/>
<path d="M46457 13323 c-4 -3 -7 -208 -7 -455 l0 -448 80 0 80 0 0 455 0 455
-73 0 c-41 0 -77 -3 -80 -7z"/>
<path d="M26802 11523 c-29 -60 -52 -111 -52 -115 0 -5 26 -8 58 -8 l57 0 80
102 c44 56 84 108 88 115 6 10 -11 13 -86 13 l-93 0 -52 -107z"/>
<path d="M28593 11289 c-148 -29 -259 -134 -298 -284 -19 -74 -20 -242 -1
-312 45 -169 154 -268 321 -294 130 -21 283 28 360 112 156 173 145 542 -21
687 -95 84 -228 118 -361 91z m195 -138 c107 -55 163 -222 133 -396 -23 -133
-88 -212 -192 -234 -126 -27 -237 45 -276 179 -19 65 -21 215 -3 280 44 166
197 243 338 171z"/>
<path d="M29522 11289 c-124 -21 -249 -121 -291 -235 -71 -190 -39 -397 78
-507 83 -78 156 -107 329 -132 143 -20 192 -51 192 -118 0 -60 -38 -91 -129
-103 l-52 -7 3 -61 3 -61 50 3 c163 10 265 101 265 236 0 144 -94 214 -327
244 -140 19 -230 74 -268 165 -34 83 -28 241 12 322 36 72 111 126 190 140
104 17 224 -44 239 -121 l6 -34 80 0 80 0 -7 31 c-40 181 -221 276 -453 238z"/>
<path d="M25660 11220 l0 -59 153 -3 152 -3 5 -325 c4 -230 9 -331 17 -346 35
-61 141 -104 219 -89 l34 6 0 62 0 63 -39 -4 c-32 -3 -42 1 -60 23 -20 27 -21
36 -21 321 l0 294 160 0 160 0 0 60 0 60 -390 0 -390 0 0 -60z"/>
<path d="M26497 11273 c-11 -10 -8 -500 3 -576 15 -100 44 -159 106 -216 81
-74 194 -103 314 -81 122 22 197 78 247 185 l28 60 3 318 3 317 -75 0 -76 0 0
-274 c0 -150 -5 -297 -10 -327 -21 -110 -85 -163 -196 -162 -70 1 -113 19
-148 65 -41 56 -46 96 -46 406 l0 292 -73 0 c-41 0 -77 -3 -80 -7z"/>
<path d="M27415 11267 c-3 -6 -4 -201 -3 -432 l3 -420 75 0 75 0 3 373 2 372
195 0 195 0 0 -375 0 -375 75 0 75 0 0 435 0 435 -345 0 c-267 0 -347 -3 -350
-13z"/>
<path d="M32311 11244 c-81 -17 -147 -57 -185 -112 -25 -35 -31 -55 -34 -110
-4 -83 15 -124 80 -168 l45 -31 -34 -19 c-79 -42 -134 -149 -118 -226 26 -121
128 -197 289 -218 195 -25 370 41 430 162 39 77 38 78 -54 78 -63 0 -80 -3
-80 -14 0 -25 -49 -73 -92 -91 -49 -19 -164 -22 -225 -6 -49 13 -99 57 -109
95 -17 69 30 145 102 165 21 6 74 11 117 11 l77 0 0 59 0 59 -95 4 c-108 4
-137 19 -168 81 -17 33 -17 42 -5 79 17 54 61 84 133 93 107 14 202 -16 227
-70 11 -24 16 -25 91 -25 77 0 79 1 73 23 -3 12 -6 28 -6 34 0 21 -71 93 -113
114 -89 46 -228 59 -346 33z"/>
<path d="M33123 11250 c-97 -20 -189 -82 -239 -162 -88 -139 -94 -387 -13
-538 76 -143 232 -215 414 -189 88 12 158 46 216 104 82 82 119 187 119 340 0
106 -14 174 -51 249 -16 33 -29 61 -29 63 0 1 43 3 95 3 l95 0 0 59 0 59 -227
6 c-126 3 -253 8 -283 10 -30 3 -74 1 -97 -4z m213 -145 c93 -55 130 -154 122
-331 -6 -127 -26 -182 -89 -239 -51 -45 -79 -56 -151 -56 -106 -1 -188 60
-225 166 -27 77 -24 261 6 337 26 66 91 130 149 147 58 16 137 6 188 -24z"/>
<path d="M33819 11173 c-51 -114 -80 -228 -86 -343 -15 -291 96 -472 292 -472
102 0 169 45 204 136 l18 48 17 -46 c37 -97 99 -139 207 -139 123 0 212 73
261 213 20 57 23 85 23 215 0 168 -16 243 -80 381 l-34 74 -72 0 c-63 0 -71
-2 -66 -17 3 -10 22 -59 41 -109 62 -161 81 -337 51 -479 -22 -103 -70 -157
-140 -157 -51 0 -86 29 -109 88 -15 40 -20 85 -24 252 l-5 202 -72 0 -73 0 -4
-207 c-3 -184 -6 -213 -24 -253 -29 -63 -54 -82 -105 -82 -82 1 -130 69 -150
207 -20 141 5 299 74 471 l34 84 -74 0 -74 0 -30 -67z"/>
<path d="M34780 11180 l0 -60 155 0 154 0 3 -329 c3 -315 4 -331 24 -357 11
-15 31 -36 45 -46 30 -22 122 -40 166 -32 l33 6 0 62 0 62 -39 -4 c-32 -3 -42
1 -60 23 -20 27 -21 36 -21 321 l0 294 160 0 160 0 0 60 0 60 -390 0 -390 0 0
-60z"/>
<path d="M30600 11010 l0 -80 540 0 540 0 0 80 0 80 -540 0 -540 0 0 -80z"/>
<path d="M30600 10600 l0 -80 540 0 540 0 0 80 0 80 -540 0 -540 0 0 -80z"/>
<path d="M54216 11438 l-54 -113 57 -3 c64 -4 59 -7 179 147 l63 81 -96 0 -96
0 -53 -112z"/>
<path d="M51434 11210 c-104 -22 -195 -94 -236 -187 -41 -93 -47 -175 -48
-611 l0 -413 78 3 77 3 3 202 2 203 44 -34 c60 -45 118 -59 223 -54 69 3 99
10 138 30 64 33 139 113 171 182 64 140 58 358 -13 489 -37 68 -120 141 -191
167 -64 24 -183 34 -248 20z m160 -121 c52 -14 119 -79 147 -142 34 -77 39
-240 10 -335 -35 -116 -107 -172 -221 -172 -146 0 -210 84 -218 289 -8 206 37
318 145 356 47 17 86 18 137 4z"/>
<path d="M53185 11211 c-120 -30 -210 -134 -241 -280 -57 -268 61 -515 283
-592 31 -10 69 -19 85 -19 l28 0 0 -160 0 -160 75 0 74 0 3 157 3 157 43 8
c55 9 144 50 185 84 41 34 106 119 125 164 l14 35 17 -40 c29 -71 48 -100 100
-149 84 -77 124 -91 271 -91 115 0 130 2 182 27 104 48 178 144 209 268 21 86
16 252 -10 328 -56 163 -168 252 -339 268 -172 16 -330 -66 -397 -208 l-22
-47 -23 57 c-15 37 -44 77 -79 113 -48 47 -66 58 -123 74 -142 38 -250 -11
-294 -132 -10 -28 -13 -113 -14 -334 l0 -296 -25 5 c-49 9 -130 66 -163 116
-51 77 -65 142 -60 271 8 162 46 239 131 260 25 7 27 10 27 66 0 64 -1 65 -65
50z m446 -134 c69 -46 118 -203 103 -332 -14 -128 -77 -230 -168 -275 -81 -39
-76 -53 -76 243 1 144 5 282 9 307 15 77 68 100 132 57z m693 11 c60 -18 131
-92 150 -159 55 -183 12 -385 -96 -456 -53 -36 -165 -45 -221 -18 -58 27 -114
95 -133 161 -35 120 -16 304 38 384 57 83 161 118 262 88z"/>
<path d="M57537 11210 c-121 -31 -205 -116 -249 -253 -28 -85 -30 -276 -4
-362 38 -126 96 -202 191 -247 51 -24 73 -28 141 -28 129 0 204 36 260 124
l28 44 24 -74 25 -74 75 0 c66 0 74 2 69 18 -25 85 -60 224 -77 304 l-20 96
20 99 c11 54 32 143 46 198 15 55 29 110 31 123 5 21 3 22 -69 22 l-75 0 -18
-62 c-18 -61 -35 -95 -35 -70 0 25 -82 100 -132 122 -58 25 -172 35 -231 20z
m188 -129 c49 -23 99 -74 119 -123 43 -102 40 -272 -5 -378 -27 -62 -95 -126
-144 -136 -57 -10 -129 1 -164 25 -125 90 -148 423 -38 557 58 69 152 92 232
55z"/>
<path d="M50400 10770 l0 -430 80 0 80 0 0 173 0 173 45 44 c24 24 46 42 49
39 2 -2 61 -94 131 -204 70 -110 133 -206 139 -213 9 -9 38 -12 99 -10 l87 3
-175 262 c-96 145 -175 266 -175 270 -1 5 73 79 162 165 l163 157 -100 0 -100
0 -160 -169 -160 -168 -5 167 -5 166 -77 3 -78 3 0 -431z"/>
<path d="M52067 11193 c-11 -10 -8 -500 3 -577 18 -125 77 -213 174 -264 43
-22 67 -27 156 -30 89 -3 114 -1 161 17 78 30 132 79 171 159 l33 67 3 317 3
318 -75 0 -74 0 -4 -308 c-3 -307 -3 -308 -29 -357 -37 -74 -82 -97 -181 -93
-90 4 -119 20 -158 89 -25 44 -25 44 -28 357 l-3 312 -73 0 c-40 0 -76 -3 -79
-7z"/>
<path d="M56480 11195 c0 -4 279 -745 315 -838 6 -15 18 -17 78 -15 l71 3 153
405 c84 223 156 415 159 428 6 21 4 22 -74 22 l-80 0 -40 -112 c-21 -62 -72
-213 -113 -335 -40 -122 -76 -220 -78 -217 -3 3 -55 152 -116 332 l-111 327
-82 3 c-45 2 -82 0 -82 -3z"/>
<path d="M58237 11193 c-11 -10 -8 -665 3 -724 11 -58 31 -91 74 -123 21 -16
46 -22 112 -25 l84 -3 0 65 0 66 -33 -6 c-23 -3 -39 1 -60 17 l-27 21 0 360 0
359 -73 0 c-41 0 -77 -3 -80 -7z"/>
<path d="M55210 11105 l0 -65 395 0 395 0 0 65 0 65 -395 0 -395 0 0 -65z"/>
<path d="M55212 10743 l3 -68 393 -3 392 -2 0 70 0 70 -395 0 -396 0 3 -67z"/>
<path d="M4800 3430 l0 -760 90 0 90 0 0 409 0 409 69 46 c108 72 188 94 275
76 38 -8 61 -20 83 -43 56 -59 57 -68 61 -499 l3 -398 90 0 89 0 0 408 c0 428
-3 460 -48 547 -25 50 -97 118 -149 141 -27 13 -66 18 -138 18 -117 1 -168
-17 -272 -96 l-63 -47 0 274 0 275 -90 0 -90 0 0 -760z"/>
<path d="M8130 3430 l0 -760 90 0 90 0 0 228 0 228 34 33 c19 18 39 30 45 27
6 -4 99 -121 207 -261 l197 -255 120 0 c94 0 117 3 110 13 -6 6 -119 149 -252
316 l-243 303 33 37 c19 20 119 123 224 229 l190 192 -116 0 -115 0 -209 -225
c-116 -123 -213 -225 -217 -225 -5 0 -8 198 -8 440 l0 440 -90 0 -90 0 0 -760z"/>
<path d="M4060 4134 c-171 -36 -329 -162 -409 -324 -66 -137 -83 -218 -85
-405 -1 -123 3 -178 18 -239 52 -224 164 -378 331 -457 101 -48 177 -63 310
-62 135 1 227 23 368 87 l77 35 0 110 c0 60 -4 112 -8 115 -5 3 -30 -13 -57
-35 -104 -86 -223 -136 -344 -146 -235 -18 -415 126 -477 383 -25 102 -23 314
5 417 57 213 184 340 365 366 159 23 315 -30 468 -159 47 -40 50 -35 46 101
l-3 104 -50 27 c-61 34 -179 73 -259 87 -81 15 -217 12 -296 -5z"/>
<path d="M7478 3780 c-213 -38 -354 -174 -404 -386 -20 -88 -20 -280 0 -368
21 -90 68 -179 128 -243 86 -90 200 -133 357 -133 101 0 177 16 271 57 l60 26
0 97 c0 53 -3 99 -6 103 -3 3 -27 -11 -52 -30 -65 -50 -137 -81 -211 -91 -69
-10 -158 1 -202 23 -73 38 -136 132 -159 236 -20 88 -9 279 20 354 29 76 105
157 169 182 101 39 253 11 366 -68 31 -21 60 -39 65 -39 6 0 10 43 10 101 l0
100 -54 24 c-111 49 -263 72 -358 55z"/>
<path d="M5962 3333 c3 -425 3 -428 27 -487 30 -76 96 -147 164 -177 43 -20
69 -24 147 -24 112 0 165 20 268 97 l62 47 0 -59 0 -60 90 0 90 0 0 545 0 545
-90 0 -90 0 0 -408 0 -409 -42 -30 c-151 -108 -308 -128 -385 -51 -58 59 -63
103 -63 525 l0 373 -90 0 -91 0 3 -427z"/>
<path d="M23101 5305 c-74 -17 -155 -42 -193 -62 -28 -13 -28 -14 -28 -113 0
-55 4 -100 9 -100 5 0 34 16 66 35 99 59 175 80 295 80 96 0 109 -2 151 -27
81 -48 112 -125 90 -225 -11 -47 -22 -67 -60 -104 -55 -56 -121 -79 -223 -79
l-68 0 0 -84 0 -84 108 -3 c130 -5 188 -29 237 -97 27 -39 30 -51 33 -143 5
-117 -10 -169 -66 -231 -56 -62 -103 -81 -207 -86 -112 -5 -187 12 -304 71
-47 23 -89 44 -93 45 -4 2 -8 -44 -8 -101 l0 -105 73 -26 c39 -15 104 -33 142
-41 88 -18 264 -19 330 -1 154 41 264 144 315 297 30 87 25 238 -9 316 -38 86
-133 162 -233 187 -40 9 -35 19 24 40 73 26 168 122 192 193 18 53 23 157 10
209 -28 118 -146 216 -293 244 -74 14 -213 11 -290 -5z"/>
<path d="M20267 5294 c-4 -4 -7 -18 -7 -31 0 -29 -24 -79 -53 -111 -23 -25
-93 -47 -179 -58 l-58 -6 0 -64 0 -64 130 0 130 0 0 -485 0 -485 -130 0 -130
0 0 -75 0 -75 350 0 350 0 0 75 0 75 -125 0 -125 0 -2 653 -3 652 -70 3 c-39
1 -74 0 -78 -4z"/>
<path d="M21670 5205 l0 -85 375 0 c206 0 375 -3 375 -6 0 -4 -144 -284 -319
-623 -176 -339 -323 -624 -327 -634 -6 -16 1 -18 96 -15 l103 3 313 615 314
615 0 108 0 107 -465 0 -465 0 0 -85z"/>
<path d="M24276 4918 l-325 -373 0 -102 -1 -103 320 0 320 0 0 -250 0 -250 95
0 95 0 0 250 0 250 85 0 85 0 0 75 0 75 -85 0 -85 0 0 400 0 400 -90 0 -89 0
-325 -372z m314 -148 l0 -280 -241 0 c-134 0 -239 4 -237 9 4 10 470 551 475
551 1 0 3 -126 3 -280z"/>
<path d="M18890 4795 l0 -245 -245 0 -245 0 0 -75 0 -75 245 0 245 0 0 -250 0
-250 80 0 80 0 2 248 3 247 248 3 247 2 0 75 0 75 -250 0 -250 0 0 245 0 245
-80 0 -80 0 0 -245z"/>
<path d="M17541 2975 c-85 -16 -203 -52 -226 -69 -13 -9 -15 -30 -13 -113 l3
-101 64 38 c98 59 189 85 296 85 156 -1 235 -58 243 -176 6 -87 -4 -125 -49
-174 -53 -57 -120 -85 -225 -92 l-84 -6 0 -77 0 -77 108 -5 c127 -7 179 -25
226 -79 41 -48 56 -97 56 -181 0 -101 -23 -162 -83 -223 -62 -61 -116 -80
-228 -80 -90 1 -219 39 -305 91 -31 19 -58 34 -61 34 -2 0 -2 -48 -1 -107 l3
-108 65 -23 c167 -60 376 -74 497 -35 205 67 325 252 310 474 -10 155 -96 268
-232 309 -22 6 -47 14 -55 17 -9 3 11 16 50 34 126 58 199 159 208 285 11 171
-81 298 -253 350 -72 22 -226 26 -314 9z"/>
<path d="M18782 2979 c-249 -42 -372 -288 -372 -749 0 -395 91 -632 275 -719
66 -31 178 -45 259 -33 257 40 374 238 392 667 15 338 -48 608 -171 730 -92
93 -229 130 -383 104z m184 -170 c68 -21 122 -107 151 -240 26 -122 26 -556 0
-678 -33 -155 -90 -230 -189 -250 -128 -27 -233 38 -276 169 -33 99 -42 186
-42 405 0 319 26 459 102 540 63 69 147 87 254 54z"/>
<path d="M19890 2979 c-36 -5 -108 -24 -160 -42 l-95 -32 -3 -108 c-1 -59 -1
-107 1 -107 3 0 31 16 63 35 196 118 415 124 507 15 75 -89 51 -244 -48 -311
-51 -35 -101 -49 -192 -56 l-73 -6 0 -77 0 -77 103 -5 c206 -11 276 -78 277
-264 0 -82 -3 -97 -31 -153 -84 -168 -293 -196 -539 -74 -52 26 -98 49 -102
51 -5 2 -8 -43 -8 -101 l0 -105 50 -21 c135 -58 367 -83 490 -52 156 39 274
149 321 302 23 75 25 205 4 277 -29 96 -107 173 -215 211 -30 11 -54 23 -52
28 2 4 19 14 39 21 92 31 185 133 207 227 13 50 8 155 -9 206 -30 91 -121 169
-235 203 -69 21 -215 28 -300 15z"/>
<path d="M25395 2966 c-74 -18 -173 -67 -228 -113 -177 -148 -271 -436 -253
-778 11 -218 65 -372 166 -475 67 -69 143 -106 244 -121 234 -35 449 111 511
346 17 68 20 228 4 295 -23 102 -87 191 -179 250 -134 86 -361 79 -511 -16
l-41 -26 7 44 c41 268 158 409 363 440 64 10 141 1 230 -27 22 -7 22 -6 22 84
0 89 -1 92 -26 101 -35 14 -248 11 -309 -4z m121 -719 c48 -25 110 -101 125
-154 18 -63 16 -204 -4 -273 -51 -174 -249 -243 -389 -137 -89 67 -138 209
-138 399 0 106 0 108 27 125 15 10 56 28 92 41 56 19 81 22 161 19 62 -2 106
-10 126 -20z"/>
<path d="M21862 2778 c-88 -101 -234 -268 -325 -373 l-166 -190 -1 -107 0
-108 320 0 320 0 0 -250 0 -251 93 3 92 3 3 248 2 247 85 0 85 0 0 80 0 80
-85 0 -85 0 0 400 0 400 -90 0 -89 0 -159 -182z m145 -615 c-2 -2 -112 -2
-244 -1 l-239 3 240 279 241 278 3 -277 c1 -153 1 -280 -1 -282z"/>
<path d="M22860 2584 l-325 -375 0 -102 0 -102 323 -3 322 -2 0 -250 0 -250
90 0 90 0 0 250 0 249 88 3 87 3 3 78 3 77 -91 0 -90 0 0 400 0 400 -87 0 -88
0 -325 -376z m317 -421 c-2 -2 -112 -2 -245 -1 l-241 3 151 175 c83 96 192
222 242 280 l91 105 3 -279 c1 -153 1 -281 -1 -283z"/>
<path d="M23840 2584 l0 -376 28 6 c136 28 303 34 392 15 64 -14 127 -61 160
-119 22 -40 25 -56 25 -150 0 -85 -4 -114 -21 -151 -29 -63 -77 -114 -132
-141 -98 -48 -285 -22 -441 63 -30 16 -58 29 -63 29 -4 0 -8 -45 -8 -101 l0
-100 45 -20 c144 -64 377 -83 502 -42 232 77 357 307 313 576 -37 230 -241
357 -532 333 l-78 -6 0 195 0 195 305 0 305 0 0 85 0 85 -400 0 -400 0 0 -376z"/>
</g>
</svg>
