<?xml version="1.0" encoding="UTF-8" standalone="no"?>
<!-- Created with Inkscape (http://www.inkscape.org/) -->

<svg
   xmlns:dc="http://purl.org/dc/elements/1.1/"
   xmlns:cc="http://creativecommons.org/ns#"
   xmlns:rdf="http://www.w3.org/1999/02/22-rdf-syntax-ns#"
   xmlns:svg="http://www.w3.org/2000/svg"
   xmlns="http://www.w3.org/2000/svg"
   xmlns:sodipodi="http://sodipodi.sourceforge.net/DTD/sodipodi-0.dtd"
   xmlns:inkscape="http://www.inkscape.org/namespaces/inkscape"
   width="355.29443"
   height="319.85449"
   id="svg2"
   sodipodi:version="0.32"
   inkscape:version="0.47 r22583"
   version="1.0"
   sodipodi:docname="UM4.svg"
   inkscape:output_extension="org.inkscape.output.svg.inkscape">
  <defs
     id="defs4">
    <inkscape:perspective
       sodipodi:type="inkscape:persp3d"
       inkscape:vp_x="0 : 526.18109 : 1"
       inkscape:vp_y="0 : 1000 : 0"
       inkscape:vp_z="744.09448 : 526.18109 : 1"
       inkscape:persp3d-origin="372.04724 : 350.78739 : 1"
       id="perspective10" />
    <inkscape:perspective
       id="perspective6148"
       inkscape:persp3d-origin="372.04724 : 350.78739 : 1"
       inkscape:vp_z="744.09448 : 526.18109 : 1"
       inkscape:vp_y="0 : 1000 : 0"
       inkscape:vp_x="0 : 526.18109 : 1"
       sodipodi:type="inkscape:persp3d" />
    <clipPath
       id="clipPath6183"
       clipPathUnits="userSpaceOnUse">
      <path
         id="path6185"
         d="m 0,0 1801,0 0,1647 L 0,1647 0,0 z" />
    </clipPath>
    <clipPath
       id="clipPath6173"
       clipPathUnits="userSpaceOnUse">
      <path
         id="path6175"
         d="m 0,0 0,1647 1801,0 L 1801,0 0,0 z" />
    </clipPath>
    <clipPath
       id="clipPath6167"
       clipPathUnits="userSpaceOnUse">
      <path
         id="path6169"
         d="m 0,0 1801,0 0,1647 L 0,1647 0,0 z" />
    </clipPath>
    <inkscape:perspective
       id="perspective6161"
       inkscape:persp3d-origin="372.04724 : 350.78739 : 1"
       inkscape:vp_z="744.09448 : 526.18109 : 1"
       inkscape:vp_y="0 : 1000 : 0"
       inkscape:vp_x="0 : 526.18109 : 1"
       sodipodi:type="inkscape:persp3d" />
    <clipPath
       id="clipPath11935"
       clipPathUnits="userSpaceOnUse">
      <path
         id="path11937"
         d="M 0,0 445,0 445,365 0,365 0,0 z" />
    </clipPath>
    <clipPath
       id="clipPath11925"
       clipPathUnits="userSpaceOnUse">
      <path
         id="path11927"
         d="M 0,0 0,365 445,365 445,0 0,0 z" />
    </clipPath>
    <clipPath
       id="clipPath11919"
       clipPathUnits="userSpaceOnUse">
      <path
         id="path11921"
         d="M 0,0 445,0 445,365 0,365 0,0 z" />
    </clipPath>
    <inkscape:perspective
       id="perspective11913"
       inkscape:persp3d-origin="372.04724 : 350.78739 : 1"
       inkscape:vp_z="744.09448 : 526.18109 : 1"
       inkscape:vp_y="0 : 1000 : 0"
       inkscape:vp_x="0 : 526.18109 : 1"
       sodipodi:type="inkscape:persp3d" />
    <clipPath
       id="clipPath12926"
       clipPathUnits="userSpaceOnUse">
      <path
         id="path12928"
         d="m 0,0 1801,0 0,1647 L 0,1647 0,0 z" />
    </clipPath>
    <clipPath
       id="clipPath12916"
       clipPathUnits="userSpaceOnUse">
      <path
         id="path12918"
         d="m 0,0 0,1647 1801,0 L 1801,0 0,0 z" />
    </clipPath>
    <clipPath
       id="clipPath12910"
       clipPathUnits="userSpaceOnUse">
      <path
         id="path12912"
         d="m 0,0 1801,0 0,1647 L 0,1647 0,0 z" />
    </clipPath>
    <inkscape:perspective
       id="perspective12904"
       inkscape:persp3d-origin="372.04724 : 350.78739 : 1"
       inkscape:vp_z="744.09448 : 526.18109 : 1"
       inkscape:vp_y="0 : 1000 : 0"
       inkscape:vp_x="0 : 526.18109 : 1"
       sodipodi:type="inkscape:persp3d" />
    <clipPath
       id="clipPath18338"
       clipPathUnits="userSpaceOnUse">
      <path
         id="path18340"
         d="M 0,0 445,0 445,365 0,365 0,0 z" />
    </clipPath>
    <clipPath
       id="clipPath18328"
       clipPathUnits="userSpaceOnUse">
      <path
         id="path18330"
         d="M 0,0 0,365 445,365 445,0 0,0 z" />
    </clipPath>
    <clipPath
       id="clipPath18322"
       clipPathUnits="userSpaceOnUse">
      <path
         id="path18324"
         d="M 0,0 445,0 445,365 0,365 0,0 z" />
    </clipPath>
    <inkscape:perspective
       id="perspective18316"
       inkscape:persp3d-origin="372.04724 : 350.78739 : 1"
       inkscape:vp_z="744.09448 : 526.18109 : 1"
       inkscape:vp_y="0 : 1000 : 0"
       inkscape:vp_x="0 : 526.18109 : 1"
       sodipodi:type="inkscape:persp3d" />
    <clipPath
       id="clipPath23962"
       clipPathUnits="userSpaceOnUse">
      <path
         id="path23964"
         d="m 0,0 1801,0 0,1647 L 0,1647 0,0 z" />
    </clipPath>
    <clipPath
       id="clipPath23952"
       clipPathUnits="userSpaceOnUse">
      <path
         id="path23954"
         d="m 0,0 0,1647 1801,0 L 1801,0 0,0 z" />
    </clipPath>
    <clipPath
       id="clipPath23946"
       clipPathUnits="userSpaceOnUse">
      <path
         id="path23948"
         d="m 0,0 1801,0 0,1647 L 0,1647 0,0 z" />
    </clipPath>
    <inkscape:perspective
       id="perspective23940"
       inkscape:persp3d-origin="372.04724 : 350.78739 : 1"
       inkscape:vp_z="744.09448 : 526.18109 : 1"
       inkscape:vp_y="0 : 1000 : 0"
       inkscape:vp_x="0 : 526.18109 : 1"
       sodipodi:type="inkscape:persp3d" />
  </defs>
  <sodipodi:namedview
     id="base"
     pagecolor="#ffffff"
     bordercolor="#666666"
     borderopacity="1.0"
     gridtolerance="10000"
     guidetolerance="10"
     objecttolerance="10"
     inkscape:pageopacity="1"
     inkscape:pageshadow="2"
     inkscape:zoom="0.81454783"
     inkscape:cx="-96.031985"
     inkscape:cy="82.100723"
     inkscape:document-units="px"
     inkscape:current-layer="layer1"
     showgrid="false"
     showguides="false"
     inkscape:guide-bbox="true"
     inkscape:snap-global="false"
     inkscape:window-width="921"
     inkscape:window-height="717"
     inkscape:window-x="106"
     inkscape:window-y="0"
     inkscape:window-maximized="0">
    <inkscape:grid
       type="xygrid"
       id="grid12883"
       visible="true"
       enabled="true"
       empspacing="5"
       snapvisiblegridlinesonly="true" />
    <sodipodi:guide
       orientation="0,1"
       position="-1720.6574,639.25595"
       id="guide12887" />
    <sodipodi:guide
       orientation="0,1"
       position="-1714.9431,602.11305"
       id="guide12889" />
    <sodipodi:guide
       orientation="1,0"
       position="-600,492"
       id="guide12891" />
    <sodipodi:guide
       orientation="1,0"
       position="-21.7117,270.68452"
       id="guide12893" />
  </sodipodi:namedview>
  <metadata
     id="metadata7">
    <rdf:RDF>
      <cc:Work
         rdf:about="">
        <dc:format>image/svg+xml</dc:format>
        <dc:type
           rdf:resource="http://purl.org/dc/dcmitype/StillImage" />
        <dc:title></dc:title>
      </cc:Work>
    </rdf:RDF>
  </metadata>
  <g
     inkscape:label="Layer 1"
     inkscape:groupmode="layer"
     id="layer1"
     transform="translate(-1046.3717,-209.40145)">
    <g
       id="g18332"
       transform="matrix(0.79841446,0,0,0.87631371,1046.3717,209.40145)">
      <path
         d="M 0,0 445,0 445,365 0,365 0,0 z"
         style="fill:#ffffff;fill-opacity:1;fill-rule:nonzero;stroke:none"
         id="path18334" />
      <g
         id="g18336"
         clip-path="url(#clipPath18338)">
        <g
           id="g18342"
           transform="matrix(0.99819,0,0,0.99819,-308.44071,-270.50949)">
          <path
             d="m 578.6817,568.7984 46.05457,63.05573"
             style="fill:none;stroke:#b0b2b4;stroke-width:1;stroke-linecap:square;stroke-linejoin:miter;stroke-miterlimit:10;stroke-opacity:1;stroke-dasharray:none"
             id="path18344" />
          <path
             d="M 578.6817,568.7984 740.02448,535.74487"
             style="fill:none;stroke:#b0b2b4;stroke-width:1;stroke-linecap:square;stroke-linejoin:miter;stroke-miterlimit:10;stroke-opacity:1;stroke-dasharray:none"
             id="path18346" />
          <path
             d="M 578.6817,568.7984 525.71643,296.06296"
             style="fill:none;stroke:#b0b2b4;stroke-width:8;stroke-linecap:square;stroke-linejoin:miter;stroke-miterlimit:10;stroke-opacity:1;stroke-dasharray:none"
             id="path18348" />
          <path
             d="M 578.6817,568.7984 427.45547,378.25391"
             style="fill:none;stroke:#b0b2b4;stroke-width:2.16667008;stroke-linecap:square;stroke-linejoin:miter;stroke-miterlimit:10;stroke-opacity:1;stroke-dasharray:none"
             id="path18350" />
          <path
             d="M 578.6817,568.7984 400.92981,477.70654"
             style="fill:none;stroke:#b0b2b4;stroke-width:2.75;stroke-linecap:square;stroke-linejoin:miter;stroke-miterlimit:10;stroke-opacity:1;stroke-dasharray:none"
             id="path18352" />
          <path
             d="M 525.71643,296.06296 400.92981,477.70654"
             style="fill:none;stroke:#b0b2b4;stroke-width:1.58333004;stroke-linecap:square;stroke-linejoin:miter;stroke-miterlimit:10;stroke-opacity:1;stroke-dasharray:none"
             id="path18354" />
          <path
             d="m 525.71643,296.06296 -98.26096,82.19095"
             style="fill:none;stroke:#b0b2b4;stroke-width:3.33332992;stroke-linecap:square;stroke-linejoin:miter;stroke-miterlimit:10;stroke-opacity:1;stroke-dasharray:none"
             id="path18356" />
          <path
             d="m 427.45547,378.25391 -26.52566,99.45263"
             style="fill:none;stroke:#b0b2b4;stroke-width:1.58333004;stroke-linecap:square;stroke-linejoin:miter;stroke-miterlimit:10;stroke-opacity:1;stroke-dasharray:none"
             id="path18358" />
          <path
             d="M 427.45547,378.25391 352.95764,314.59113"
             style="fill:none;stroke:#b0b2b4;stroke-width:2.75;stroke-linecap:square;stroke-linejoin:miter;stroke-miterlimit:10;stroke-opacity:1;stroke-dasharray:none"
             id="path18360" />
          <path
             d="m 352.95764,314.59113 47.97217,163.11541"
             style="fill:none;stroke:#b0b2b4;stroke-width:3.91667008;stroke-linecap:square;stroke-linejoin:miter;stroke-miterlimit:10;stroke-opacity:1;stroke-dasharray:none"
             id="path18362" />
          <path
             d="M 352.95764,314.59113 323.84805,555.25226"
             style="fill:none;stroke:#b0b2b4;stroke-width:1;stroke-linecap:square;stroke-linejoin:miter;stroke-miterlimit:10;stroke-opacity:1;stroke-dasharray:none"
             id="path18364" />
          <path
             d="m 323.84805,555.25226 77.08176,-77.54572"
             style="fill:none;stroke:#b0b2b4;stroke-width:1.58333004;stroke-linecap:square;stroke-linejoin:miter;stroke-miterlimit:10;stroke-opacity:1;stroke-dasharray:none"
             id="path18366" />
          <g
             id="g18368"
             transform="matrix(1,0,0,-1,0,321.06296)">
            <text
               transform="matrix(1,0,0,-1,552.71643,0)"
               id="text18370">
              <tspan
                 style="font-size:16px;font-variant:normal;font-weight:normal;writing-mode:lr-tb;fill:#000000;fill-opacity:1;fill-rule:nonzero;stroke:none;font-family:Helvetica;-inkscape-font-specification:Helvetica"
                 x="0 10.672 19.568001 28.464001 32.015999 40.911999 49.807999 58.703999 64.031998 67.584 76.480003"
                 y="0"
                 sodipodi:role="line"
                 id="tspan18372">Engineering</tspan>
            </text>
          </g>
          <path
             d="m 550.21643,296.06296 c 0,13.53085 -10.9693,24.5 -24.50018,24.5 -13.53083,0 -24.49982,-10.96915 -24.49982,-24.5 0,-13.53089 10.96899,-24.5 24.49982,-24.5 13.53088,0 24.50018,10.96911 24.50018,24.5 z"
             style="fill:#4f42f9;fill-opacity:1;fill-rule:nonzero;stroke:none"
             id="path18374" />
          <path
             d="m 550.21643,296.06296 c 0,13.53085 -10.9693,24.5 -24.50018,24.5 -13.53083,0 -24.49982,-10.96915 -24.49982,-24.5 0,-13.53089 10.96899,-24.5 24.49982,-24.5 13.53088,0 24.50018,10.96911 24.50018,24.5 z"
             style="fill:none;stroke:#000000;stroke-width:1;stroke-linecap:square;stroke-linejoin:miter;stroke-miterlimit:10;stroke-opacity:1;stroke-dasharray:none"
             id="path18376" />
          <g
             id="g18378"
             transform="matrix(1,0,0,-1,0,334.13962)">
            <text
               transform="matrix(1,0,0,-1,374.5061,0)"
               id="text18380">
              <tspan
                 style="font-size:16px;font-variant:normal;font-weight:normal;writing-mode:lr-tb;fill:#000000;fill-opacity:1;fill-rule:nonzero;stroke:none;font-family:Helvetica;-inkscape-font-specification:Helvetica"
                 x="0 11.552 20.448 33.776001 42.672001 51.568001 56.015999 59.568001 68.463997"
                 y="0"
                 sodipodi:role="line"
                 id="tspan18382">Computing</tspan>
            </text>
          </g>
          <path
             d="m 372.0061,314.59125 c 0,10.51993 -8.52838,19.04837 -19.04855,19.04837 -10.52008,0 -19.0484,-8.52844 -19.0484,-19.04837 0,-10.52017 8.52832,-19.04859 19.0484,-19.04859 10.52017,0 19.04855,8.52842 19.04855,19.04859 z"
             style="fill:#73fdd9;fill-opacity:1;fill-rule:nonzero;stroke:none"
             id="path18384" />
          <path
             d="m 372.0061,314.59125 c 0,10.51993 -8.52838,19.04837 -19.04855,19.04837 -10.52008,0 -19.0484,-8.52844 -19.0484,-19.04837 0,-10.52017 8.52832,-19.04859 19.0484,-19.04859 10.52017,0 19.04855,8.52842 19.04855,19.04859 z"
             style="fill:none;stroke:#000000;stroke-width:1;stroke-linecap:square;stroke-linejoin:miter;stroke-miterlimit:10;stroke-opacity:1;stroke-dasharray:none"
             id="path18386" />
          <g
             id="g18388"
             transform="matrix(1,0,0,-1,0,550.74487)">
            <text
               transform="matrix(1,0,0,-1,757.02448,0)"
               id="text18390">
              <tspan
                 style="font-size:16px;font-variant:normal;font-weight:normal;writing-mode:lr-tb;fill:#000000;fill-opacity:1;fill-rule:nonzero;stroke:none;font-family:Helvetica;-inkscape-font-specification:Helvetica"
                 x="0 11.552 20.448 29.344 34.672001 43.568001 52.464001 57.792"
                 y="0"
                 sodipodi:role="line"
                 id="tspan18392">Dearborn</tspan>
            </text>
          </g>
          <path
             d="m 754.52448,535.74487 c 0,8.00812 -6.49207,14.5 -14.49994,14.5 -8.00794,0 -14.50006,-6.49188 -14.50006,-14.5 0,-8.00787 6.49212,-14.5 14.50006,-14.5 8.00787,0 14.49994,6.49213 14.49994,14.5 z"
             style="fill:#fa0eef;fill-opacity:1;fill-rule:nonzero;stroke:none"
             id="path18394" />
          <path
             d="m 754.52448,535.74487 c 0,8.00812 -6.49207,14.5 -14.49994,14.5 -8.00794,0 -14.50006,-6.49188 -14.50006,-14.5 0,-8.00787 6.49212,-14.5 14.50006,-14.5 8.00787,0 14.49994,6.49213 14.49994,14.5 z"
             style="fill:none;stroke:#000000;stroke-width:1;stroke-linecap:square;stroke-linejoin:miter;stroke-miterlimit:10;stroke-opacity:1;stroke-dasharray:none"
             id="path18396" />
          <g
             id="g18398"
             transform="matrix(1,0,0,-1,0,587.60193)">
            <text
               transform="matrix(1,0,0,-1,599.48517,0)"
               id="text18400">
              <tspan
                 style="font-size:16px;font-variant:normal;font-weight:normal;writing-mode:lr-tb;fill:#000000;fill-opacity:1;fill-rule:nonzero;stroke:none;font-family:Helvetica;-inkscape-font-specification:Helvetica"
                 x="0 11.552 20.448 24.896 33.792 39.119999 48.015999 51.568001 56.015999 66.688004 74.688004 78.239998 87.136002 96.031998 104.032 112.928"
                 y="0"
                 sodipodi:role="line"
                 id="tspan18402">Natural Sciences</tspan>
            </text>
          </g>
          <path
             d="m 596.98517,568.7981 c 0,10.10894 -8.19495,18.30383 -18.30353,18.30383 -10.10852,0 -18.30347,-8.19489 -18.30347,-18.30383 0,-10.10834 8.19495,-18.30317 18.30347,-18.30317 10.10858,0 18.30353,8.19483 18.30353,18.30317 z"
             style="fill:#c20101;fill-opacity:1;fill-rule:nonzero;stroke:none"
             id="path18404" />
          <path
             d="m 596.98517,568.7981 c 0,10.10894 -8.19495,18.30383 -18.30353,18.30383 -10.10852,0 -18.30347,-8.19489 -18.30347,-18.30383 0,-10.10834 8.19495,-18.30317 18.30347,-18.30317 10.10858,0 18.30353,8.19483 18.30353,18.30317 z"
             style="fill:none;stroke:#000000;stroke-width:1;stroke-linecap:square;stroke-linejoin:miter;stroke-miterlimit:10;stroke-opacity:1;stroke-dasharray:none"
             id="path18406" />
          <g
             id="g18408"
             transform="matrix(1,0,0,-1,0,569.26758)">
            <text
               transform="matrix(1,0,0,-1,339.86334,0)"
               id="text18410">
              <tspan
                 style="font-size:16px;font-variant:normal;font-weight:normal;writing-mode:lr-tb;fill:#000000;fill-opacity:1;fill-rule:nonzero;stroke:none;font-family:Helvetica;-inkscape-font-specification:Helvetica"
                 x="0 10.672 19.568001 27.568001 31.120001 40.015999 43.568001 48.015999 58.688 66.688004 70.239998 79.136002 88.031998 96.031998 104.928"
                 y="0"
                 sodipodi:role="line"
                 id="tspan18412">Social Sciences</tspan>
            </text>
          </g>
          <path
             d="m 337.36334,555.25323 c 0,7.46424 -6.05053,13.51435 -13.5144,13.51435 -7.46454,0 -13.51618,-6.05011 -13.51618,-13.51435 0,-7.46484 6.05164,-13.51623 13.51618,-13.51623 7.46387,0 13.5144,6.05139 13.5144,13.51623 z"
             style="fill:#fc8265;fill-opacity:1;fill-rule:nonzero;stroke:none"
             id="path18414" />
          <path
             d="m 337.36334,555.25323 c 0,7.46424 -6.05053,13.51435 -13.5144,13.51435 -7.46454,0 -13.51618,-6.05011 -13.51618,-13.51435 0,-7.46484 6.05164,-13.51623 13.51618,-13.51623 7.46387,0 13.5144,6.05139 13.5144,13.51623 z"
             style="fill:none;stroke:#000000;stroke-width:1;stroke-linecap:square;stroke-linejoin:miter;stroke-miterlimit:10;stroke-opacity:1;stroke-dasharray:none"
             id="path18416" />
          <g
             id="g18418"
             transform="matrix(1,0,0,-1,0,493.40457)">
            <text
               transform="matrix(1,0,0,-1,418.62784,0)"
               id="text18420">
              <tspan
                 style="font-size:16px;font-variant:normal;font-weight:normal;writing-mode:lr-tb;fill:#000000;fill-opacity:1;fill-rule:nonzero;stroke:none;font-family:Helvetica;-inkscape-font-specification:Helvetica"
                 x="0 10.672 19.568001 27.568001 31.120001 40.015999 44.464001 53.360001 61.360001 70.255997 79.152 82.704002 90.704002 99.599998 103.152 107.6 118.272 126.272 134.272 138.72 147.616 160.944"
                 y="0"
                 sodipodi:role="line"
                 id="tspan18422">Sociotechnical Systems</tspan>
            </text>
          </g>
          <path
             d="m 416.12784,477.70667 c 0,8.39367 -6.80435,15.1979 -15.19812,15.1979 -8.39343,0 -15.19797,-6.80423 -15.19797,-15.1979 0,-8.39307 6.80454,-15.19819 15.19797,-15.19819 8.39377,0 15.19812,6.80512 15.19812,15.19819 z"
             style="fill:#fdb807;fill-opacity:1;fill-rule:nonzero;stroke:none"
             id="path18424" />
          <path
             d="m 416.12784,477.70667 c 0,8.39367 -6.80435,15.1979 -15.19812,15.1979 -8.39343,0 -15.19797,-6.80423 -15.19797,-15.1979 0,-8.39307 6.80454,-15.19819 15.19797,-15.19819 8.39377,0 15.19812,6.80512 15.19812,15.19819 z"
             style="fill:none;stroke:#000000;stroke-width:1;stroke-linecap:square;stroke-linejoin:miter;stroke-miterlimit:10;stroke-opacity:1;stroke-dasharray:none"
             id="path18426" />
          <g
             id="g18428"
             transform="matrix(1,0,0,-1,0,636.85413)">
            <text
               transform="matrix(1,0,0,-1,631.73627,0)"
               id="text18430">
              <tspan
                 style="font-size:16px;font-variant:normal;font-weight:normal;writing-mode:lr-tb;fill:#000000;fill-opacity:1;fill-rule:nonzero;stroke:none;font-family:Helvetica;-inkscape-font-specification:Helvetica"
                 x="0 13.328 22.224001 26.672001 35.568001 44.464001 57.792 66.688004 71.136002 74.688004 82.688004"
                 y="0"
                 sodipodi:role="line"
                 id="tspan18432">Mathematics</tspan>
            </text>
          </g>
          <path
             d="m 629.23627,631.85413 c 0,2.48523 -2.01471,4.5 -4.5,4.5 -2.48529,0 -4.5,-2.01477 -4.5,-4.5 0,-2.48523 2.01471,-4.5 4.5,-4.5 2.48529,0 4.5,2.01477 4.5,4.5 z"
             style="fill:#c50dd3;fill-opacity:1;fill-rule:nonzero;stroke:none"
             id="path18434" />
          <path
             d="m 629.23627,631.85413 c 0,2.48523 -2.01471,4.5 -4.5,4.5 -2.48529,0 -4.5,-2.01477 -4.5,-4.5 0,-2.48523 2.01471,-4.5 4.5,-4.5 2.48529,0 4.5,2.01477 4.5,4.5 z"
             style="fill:none;stroke:#000000;stroke-width:1;stroke-linecap:square;stroke-linejoin:miter;stroke-miterlimit:10;stroke-opacity:1;stroke-dasharray:none"
             id="path18436" />
          <g
             id="g18438"
             transform="matrix(1,0,0,-1,0,399.55115)">
            <text
               transform="matrix(1,0,0,-1,450.75269,0)"
               id="text18440">
              <tspan
                 style="font-size:16px;font-variant:normal;font-weight:normal;writing-mode:lr-tb;fill:#000000;fill-opacity:1;fill-rule:nonzero;stroke:none;font-family:Helvetica;-inkscape-font-specification:Helvetica"
                 x="0 4.448 13.344 17.792 26.688 32.015999 40.911999 44.464001 52.464001 60.464001 64.015999 72.912003 76.463997 80.015999 88.912003 97.807999 103.136 111.136 115.584 127.136 136.032 144.032 147.584 156.48"
                 y="0"
                 sodipodi:role="line"
                 id="tspan18442">Interdisciplinary Design</tspan>
            </text>
          </g>
          <path
             d="m 448.25269,378.25388 c 0,11.48596 -9.31131,20.79727 -20.79722,20.79727 -11.48587,0 -20.79721,-9.31131 -20.79721,-20.79727 0,-11.48581 9.31134,-20.79718 20.79721,-20.79718 11.48591,0 20.79722,9.31137 20.79722,20.79718 z"
             style="fill:#0dc907;fill-opacity:1;fill-rule:nonzero;stroke:none"
             id="path18444" />
          <path
             d="m 448.25269,378.25388 c 0,11.48596 -9.31131,20.79727 -20.79722,20.79727 -11.48587,0 -20.79721,-9.31131 -20.79721,-20.79727 0,-11.48581 9.31134,-20.79718 20.79721,-20.79718 11.48591,0 20.79722,9.31137 20.79722,20.79718 z"
             style="fill:none;stroke:#000000;stroke-width:1;stroke-linecap:square;stroke-linejoin:miter;stroke-miterlimit:10;stroke-opacity:1;stroke-dasharray:none"
             id="path18446" />
        </g>
      </g>
    </g>
  </g>
</svg>
